<svg width="20" height="20" viewBox="0 0 20 20" fill="none" xmlns="http://www.w3.org/2000/svg">
<path d="M17.7616 13.964C17.4576 13.964 17.2056 13.872 17.0056 13.688C16.8136 13.496 16.7176 13.26 16.7176 12.98C16.7176 12.7 16.8136 12.468 17.0056 12.284C17.2056 12.092 17.4576 11.996 17.7616 11.996C18.0576 11.996 18.3016 12.092 18.4936 12.284C18.6856 12.468 18.7816 12.7 18.7816 12.98C18.7816 13.26 18.6856 13.496 18.4936 13.688C18.3016 13.872 18.0576 13.964 17.7616 13.964Z" fill="#10173A"/>
<path d="M9.29281 10.532C9.29281 9.86001 9.42481 9.26401 9.68881 8.74401C9.96081 8.22401 10.3248 7.82401 10.7808 7.54401C11.2448 7.26401 11.7608 7.12401 12.3288 7.12401C12.8248 7.12401 13.2568 7.22401 13.6248 7.42401C14.0008 7.62401 14.3008 7.87601 14.5248 8.18001V7.23201H16.2168V13.88H14.5248V12.908C14.3088 13.22 14.0088 13.48 13.6248 13.688C13.2488 13.888 12.8128 13.988 12.3168 13.988C11.7568 13.988 11.2448 13.844 10.7808 13.556C10.3248 13.268 9.96081 12.864 9.68881 12.344C9.42481 11.816 9.29281 11.212 9.29281 10.532ZM14.5248 10.556C14.5248 10.148 14.4448 9.80001 14.2848 9.51201C14.1248 9.21601 13.9088 8.99201 13.6368 8.84001C13.3648 8.68001 13.0728 8.60001 12.7608 8.60001C12.4488 8.60001 12.1608 8.67601 11.8968 8.82801C11.6328 8.98001 11.4168 9.20401 11.2488 9.50001C11.0888 9.78801 11.0088 10.132 11.0088 10.532C11.0088 10.932 11.0888 11.284 11.2488 11.588C11.4168 11.884 11.6328 12.112 11.8968 12.272C12.1688 12.432 12.4568 12.512 12.7608 12.512C13.0728 12.512 13.3648 12.436 13.6368 12.284C13.9088 12.124 14.1248 11.9 14.2848 11.612C14.4448 11.316 14.5248 10.964 14.5248 10.556Z" fill="#1FD45D"/>
<path d="M2 10.532C2 9.86 2.132 9.264 2.396 8.744C2.668 8.224 3.036 7.824 3.5 7.544C3.964 7.264 4.48 7.124 5.048 7.124C5.48 7.124 5.892 7.22 6.284 7.412C6.676 7.596 6.988 7.844 7.22 8.156V5H8.924V13.88H7.22V12.896C7.012 13.224 6.72 13.488 6.344 13.688C5.968 13.888 5.532 13.988 5.036 13.988C4.476 13.988 3.964 13.844 3.5 13.556C3.036 13.268 2.668 12.864 2.396 12.344C2.132 11.816 2 11.212 2 10.532ZM7.232 10.556C7.232 10.148 7.152 9.8 6.992 9.512C6.832 9.216 6.616 8.992 6.344 8.84C6.072 8.68 5.78 8.6 5.468 8.6C5.156 8.6 4.868 8.676 4.604 8.828C4.34 8.98 4.124 9.204 3.956 9.5C3.796 9.788 3.716 10.132 3.716 10.532C3.716 10.932 3.796 11.284 3.956 11.588C4.124 11.884 4.34 12.112 4.604 12.272C4.876 12.432 5.164 12.512 5.468 12.512C5.78 12.512 6.072 12.436 6.344 12.284C6.616 12.124 6.832 11.9 6.992 11.612C7.152 11.316 7.232 10.964 7.232 10.556Z" fill="#F9FAFF"/>
</svg>
