<svg width="40" height="40" viewBox="0 0 40 40" fill="none" xmlns="http://www.w3.org/2000/svg">
<path d="M35.257 14.0995V17.6556C35.257 18.9564 35.7708 19.6068 36.7985 19.6068C37.155 19.6068 37.3333 19.7851 37.3333 20.1418V21.7467C37.3333 22.1244 37.1131 22.3132 36.6727 22.3132C35.7289 22.3132 35.257 22.9531 35.257 24.2329V27.789C35.257 31.0409 33.8309 32.6668 30.9786 32.6668H30.7899C30.4124 32.6668 30.2236 32.4885 30.2236 32.1318V30.9674C30.2236 30.6108 30.4124 30.4324 30.7899 30.4324H30.8843C31.5764 30.4324 32.0587 30.2436 32.3314 29.866C32.604 29.5093 32.7403 28.9219 32.7403 28.1037V24.0126C32.7403 22.3342 33.359 21.3166 34.5964 20.96C33.359 20.5404 32.7403 19.5124 32.7403 17.8759V13.7848C32.7403 12.9666 32.604 12.3792 32.3314 12.0225C32.0587 11.6449 31.5764 11.456 30.8843 11.456H30.7899C30.4124 11.456 30.2236 11.2777 30.2236 10.9211V9.75667C30.2236 9.40001 30.4124 9.22168 30.7899 9.22168H30.9786C33.8309 9.22168 35.257 10.8476 35.257 14.0995Z" fill="#1FD45D"/>
<path d="M23.3038 29.4569H21.3219C20.9654 29.4569 20.7871 29.2786 20.7871 28.9219V13.9422C20.7871 13.5856 20.9654 13.4072 21.3219 13.4072H23.3038C23.6603 13.4072 23.8386 13.5856 23.8386 13.9422V15.1381H23.9644C24.1742 14.6136 24.5726 14.194 25.1599 13.8793C25.7681 13.5646 26.4392 13.4072 27.1732 13.4072H28.3372C28.6937 13.4072 28.872 13.5856 28.872 13.9422V15.5787C28.872 15.9773 28.6937 16.1451 28.3372 16.0822H26.4497C24.709 16.0822 23.8386 17.0368 23.8386 18.9459V28.9219C23.8386 29.2786 23.6603 29.4569 23.3038 29.4569Z" fill="#1FD45D"/>
<path d="M16.1189 29.4569H14.137C13.7804 29.4569 13.6022 29.2786 13.6022 28.9219V7.86848C13.6022 7.51183 13.7804 7.3335 14.137 7.3335H16.1189C16.4754 7.3335 16.6537 7.51183 16.6537 7.86848V28.9219C16.6537 29.2786 16.4754 29.4569 16.1189 29.4569Z" fill="#1FD45D"/>
<path d="M9.05273 9.22168H9.24148C9.59801 9.22168 9.77628 9.40001 9.77628 9.75667V10.9211C9.77628 11.2777 9.59801 11.456 9.24148 11.456H9.1471C8.45501 11.456 7.96216 11.6449 7.66855 12.0225C7.39591 12.3792 7.25959 12.9666 7.25959 13.7848V17.8759C7.25959 19.5333 6.6409 20.5614 5.40353 20.96C6.6409 21.3166 7.25959 22.3342 7.25959 24.0126V28.1037C7.25959 28.9219 7.39591 29.5093 7.66855 29.866C7.96216 30.2436 8.45501 30.4324 9.1471 30.4324H9.24148C9.59801 30.4324 9.77628 30.6108 9.77628 30.9674V32.1318C9.77628 32.4885 9.59801 32.6668 9.24148 32.6668H9.05273C6.20048 32.6668 4.77435 31.0409 4.77435 27.789V24.2329C4.77435 22.9531 4.26053 22.3132 3.23288 22.3132C2.85538 22.3132 2.66663 22.1244 2.66663 21.7467V20.1418C2.66663 19.7851 2.85538 19.6068 3.23288 19.6068C4.26053 19.6068 4.77435 18.9564 4.77435 17.6556V14.0995C4.77435 10.8476 6.20048 9.22168 9.05273 9.22168Z" fill="#1FD45D"/>
</svg>
