<svg width="635" height="635" viewBox="0 0 635 635" fill="none" xmlns="http://www.w3.org/2000/svg">
<path d="M162.839 512.915C252.692 560.87 398.374 560.87 488.226 512.915C578.079 464.96 578.091 387.185 488.226 339.23C398.361 291.274 252.692 291.262 162.839 339.23C72.9869 387.198 72.9869 464.947 162.839 512.915Z" fill="#EBEBEB"/>
<path d="M514.655 393.929L501.548 386.309C501.548 386.309 498.335 358.229 500.469 336.487C503.479 305.918 523.215 269.176 546.748 277.787C570.281 286.398 535.94 317.602 528.32 343.51C520.7 369.418 514.655 393.929 514.655 393.929Z" fill="#301DDE"/>
<path opacity="0.1" d="M514.655 393.929L501.548 386.309C501.548 386.309 498.335 358.229 500.469 336.487C503.479 305.918 523.215 269.176 546.748 277.787C570.281 286.398 535.94 317.602 528.32 343.51C520.7 369.418 514.655 393.929 514.655 393.929Z" fill="black"/>
<path d="M507.835 390.487C507.712 390.488 507.594 390.445 507.5 390.366C507.407 390.287 507.345 390.176 507.327 390.055C502.869 355.765 515.074 303.936 539.712 284.277C539.763 284.236 539.821 284.205 539.884 284.187C539.946 284.168 540.012 284.162 540.077 284.17C540.142 284.177 540.205 284.197 540.262 284.228C540.319 284.259 540.37 284.302 540.41 284.353C540.494 284.458 540.533 284.591 540.519 284.724C540.504 284.857 540.438 284.98 540.334 285.064C515.963 304.521 503.911 355.943 508.33 389.915C508.348 390.048 508.313 390.183 508.232 390.29C508.151 390.397 508.031 390.468 507.898 390.487H507.835Z" fill="white"/>
<path d="M521.652 399.352L512.331 393.954C512.331 393.954 510.743 374.688 520.192 351.282C528.409 330.962 548.818 313.995 559.079 317.551C569.341 321.107 569.087 328.384 564.083 336.017C559.079 343.649 528.637 361.848 521.652 399.352Z" fill="#301DDE"/>
<path d="M515.874 399.847C515.808 399.844 515.743 399.827 515.683 399.798C515.623 399.77 515.57 399.729 515.526 399.679C515.482 399.63 515.449 399.572 515.428 399.509C515.407 399.446 515.399 399.38 515.404 399.313C518.477 351.358 542.734 327.774 557.314 324.18C557.445 324.149 557.584 324.17 557.7 324.239C557.816 324.307 557.901 324.418 557.936 324.549C557.967 324.678 557.946 324.815 557.877 324.929C557.808 325.043 557.697 325.125 557.568 325.158C542.214 328.968 519.303 354.495 516.433 399.377C516.428 399.445 516.41 399.511 516.379 399.572C516.348 399.633 516.305 399.686 516.253 399.73C516.201 399.774 516.14 399.807 516.075 399.827C516.01 399.847 515.942 399.854 515.874 399.847Z" fill="white"/>
<path d="M137.16 397.662C137.16 397.662 138.9 369.506 122.542 350.202C106.185 330.898 84.8868 330.975 77.8383 334.569C70.7898 338.163 66.0527 348.437 78.1812 355.79C90.3097 363.144 116.103 377.863 120.396 390.995L137.16 397.662Z" fill="#301DDE"/>
<path opacity="0.1" d="M137.16 397.662C137.16 397.662 138.9 369.506 122.542 350.202C106.185 330.898 84.8868 330.975 77.8383 334.569C70.7898 338.163 66.0527 348.437 78.1812 355.79C90.3097 363.144 116.103 377.863 120.396 390.995L137.16 397.662Z" fill="black"/>
<path d="M129.464 390.614C129.307 390.612 129.156 390.553 129.039 390.448C128.922 390.343 128.847 390.198 128.829 390.042C125.463 358.889 94.3229 341.63 81.915 339.674C81.8316 339.662 81.7515 339.633 81.6793 339.589C81.607 339.546 81.544 339.489 81.4939 339.421C81.4438 339.353 81.4075 339.276 81.3872 339.194C81.3668 339.112 81.3628 339.027 81.3753 338.944C81.3878 338.861 81.4166 338.78 81.4601 338.708C81.5035 338.636 81.5608 338.573 81.6286 338.523C81.6964 338.473 81.7734 338.436 81.8553 338.416C81.9371 338.396 82.0221 338.392 82.1055 338.404C94.8055 340.398 126.644 358.051 130.099 389.903C130.108 389.986 130.1 390.071 130.076 390.151C130.052 390.231 130.012 390.306 129.959 390.371C129.906 390.436 129.84 390.49 129.766 390.529C129.692 390.569 129.611 390.593 129.527 390.601L129.464 390.614Z" fill="white"/>
<path d="M123.406 383.464C119.304 374.117 114.668 369.926 101.333 372.161C87.9983 374.396 89.9033 374.053 73.5838 369.875C66.7004 368.122 58.9661 367.843 52.3621 370.815C46.7868 373.355 42.6212 378.435 48.0187 383.845C54.0893 389.89 63.1444 391.96 69.85 397.281C71.3712 398.357 72.5806 399.816 73.3552 401.511C75.1205 406.006 71.5899 411.074 72.6186 415.785C73.6473 420.497 78.6003 423.012 83.2485 423.316C87.8967 423.621 92.4814 422.224 97.1169 421.691C101.752 421.157 106.959 421.691 110.16 425.133C113.589 428.777 113.678 434.607 116.865 438.48C121.641 444.284 133.375 445.897 139.725 442.29L156.35 432.702C167.335 417.894 150 406.159 140.919 394.665C136.512 389.065 125.87 389.09 123.406 383.464Z" fill="#301DDE"/>
<path d="M146.05 423.761C145.942 423.763 145.835 423.736 145.741 423.682C145.647 423.629 145.57 423.55 145.517 423.456C126.555 392.735 74.93 377.19 56.6674 375.92C56.5011 375.907 56.3467 375.829 56.2373 375.703C56.128 375.577 56.0727 375.413 56.0832 375.247C56.0962 375.08 56.1736 374.924 56.2992 374.813C56.4247 374.701 56.5886 374.643 56.7563 374.65C75.2602 375.92 127.381 391.693 146.596 422.821C146.681 422.967 146.706 423.139 146.666 423.303C146.626 423.467 146.523 423.608 146.38 423.697C146.276 423.743 146.163 423.765 146.05 423.761Z" fill="white"/>
<path d="M85.9917 409.283C85.8928 409.285 85.7948 409.263 85.7063 409.219C85.6178 409.174 85.5414 409.109 85.4837 409.029C85.3826 408.894 85.3393 408.725 85.3631 408.558C85.3869 408.391 85.476 408.241 85.6107 408.14C86.2711 407.645 102.019 396.088 117.361 395.859C117.443 395.857 117.526 395.872 117.603 395.903C117.68 395.933 117.75 395.979 117.809 396.037C117.868 396.095 117.915 396.164 117.947 396.24C117.979 396.317 117.996 396.399 117.996 396.481C117.997 396.565 117.983 396.648 117.952 396.725C117.922 396.803 117.877 396.874 117.819 396.934C117.761 396.994 117.692 397.042 117.615 397.076C117.539 397.109 117.457 397.127 117.373 397.129C102.476 397.345 86.5632 409.042 86.3981 409.156C86.2834 409.248 86.1383 409.293 85.9917 409.283Z" fill="white"/>
<path d="M144.869 434.556C145.005 436.403 145.573 438.192 146.528 439.778C147.484 441.364 148.799 442.703 150.368 443.687L304.457 532.651C306.161 533.515 308.045 533.966 309.956 533.966C311.867 533.966 313.751 533.515 315.455 532.651L526.275 410.921C527.937 410.044 529.328 408.73 530.298 407.121C531.268 405.512 531.781 403.669 531.781 401.79C531.781 399.911 531.268 398.068 530.298 396.459C529.328 394.849 527.937 393.536 526.275 392.659L372.199 303.759C370.495 302.894 368.611 302.443 366.7 302.443C364.789 302.443 362.905 302.894 361.201 303.759L150.368 425.45C148.802 426.431 147.489 427.766 146.534 429.348C145.579 430.93 145.008 432.714 144.869 434.556Z" fill="#37474F"/>
<path d="M208.445 391.897L150.368 425.45C148.706 426.327 147.315 427.641 146.345 429.25C145.375 430.859 144.862 432.702 144.862 434.581C144.862 436.46 145.375 438.304 146.345 439.913C147.315 441.522 148.706 442.836 150.368 443.713L304.457 532.676C306.152 533.561 308.045 533.999 309.956 533.946V391.897H208.445Z" fill="#263238"/>
<path d="M139.7 425.628C138.169 424.585 136.905 423.196 136.01 421.575C135.114 419.953 134.612 418.144 134.544 416.293V232.41C134.646 230.502 135.197 228.644 136.153 226.989C137.109 225.334 138.441 223.928 140.043 222.885L350.863 101.156C352.454 100.157 354.287 99.6116 356.166 99.577C358.044 99.5424 359.896 100.02 361.523 100.959C363.15 101.898 364.49 103.262 365.4 104.906C366.31 106.549 366.755 108.41 366.687 110.287V294.183C366.583 296.091 366.031 297.947 365.075 299.602C364.12 301.257 362.788 302.664 361.188 303.708L150.368 425.45C148.729 426.315 146.909 426.781 145.055 426.812C143.202 426.843 141.367 426.437 139.7 425.628Z" fill="#455A64"/>
<path d="M160.35 240.957L136.157 226.987C135.193 228.635 134.664 230.501 134.62 232.41V416.293C134.688 418.144 135.19 419.953 136.086 421.575C136.982 423.196 138.246 424.585 139.776 425.628C141.444 426.431 143.277 426.832 145.128 426.796C146.979 426.761 148.796 426.291 150.431 425.425L174.485 411.543L160.35 240.957Z" fill="#263238"/>
<path d="M144.869 238.379V422.25C144.869 425.755 147.333 427.177 150.368 425.425L361.188 303.708C362.788 302.663 364.12 301.257 365.075 299.602C366.031 297.947 366.583 296.091 366.687 294.183V110.299C366.687 106.794 364.223 105.372 361.188 107.124L150.368 228.854C148.766 229.897 147.434 231.303 146.478 232.958C145.522 234.613 144.971 236.471 144.869 238.379Z" fill="#37474F"/>
<path d="M150.368 431.8L304.457 520.7C306.161 521.565 308.045 522.015 309.956 522.015C311.867 522.015 313.751 521.565 315.455 520.7L526.275 398.97C529.323 397.218 529.323 394.373 526.275 392.62L372.199 303.72C370.495 302.856 368.611 302.405 366.7 302.405C364.789 302.405 362.905 302.856 361.201 303.72L150.368 425.45C147.32 427.177 147.32 430.022 150.368 431.8Z" fill="#455A64"/>
<path d="M153.327 239.052L358.242 120.752C360.058 119.698 361.544 120.548 361.544 122.657V281.826C361.48 282.97 361.147 284.084 360.574 285.077C360 286.07 359.201 286.914 358.242 287.541L153.327 405.841C151.498 406.895 150.025 406.044 150.025 403.936V244.767C150.086 243.622 150.417 242.507 150.991 241.514C151.565 240.521 152.365 239.677 153.327 239.052Z" fill="white"/>
<path d="M168.25 427.012L363.944 313.982C364.796 313.55 365.738 313.325 366.693 313.325C367.649 313.325 368.591 313.55 369.443 313.982L379.463 319.761C379.795 319.873 380.083 320.087 380.287 320.372C380.491 320.656 380.601 320.998 380.601 321.348C380.601 321.698 380.491 322.04 380.287 322.325C380.083 322.609 379.795 322.823 379.463 322.936L183.731 435.953C182.879 436.385 181.937 436.61 180.981 436.61C180.026 436.61 179.084 436.385 178.232 435.953L168.25 430.187C167.918 430.075 167.63 429.861 167.426 429.576C167.222 429.291 167.112 428.95 167.112 428.6C167.112 428.249 167.222 427.908 167.426 427.623C167.63 427.338 167.918 427.125 168.25 427.012Z" fill="#263238"/>
<path d="M194.056 441.96L389.738 328.93C390.592 328.498 391.536 328.273 392.493 328.273C393.451 328.273 394.395 328.498 395.249 328.93L456.806 364.49C457.138 364.603 457.426 364.816 457.63 365.101C457.834 365.386 457.944 365.727 457.944 366.078C457.944 366.428 457.834 366.769 457.63 367.054C457.426 367.339 457.138 367.552 456.806 367.665L261.341 480.466C260.486 480.898 259.542 481.123 258.585 481.123C257.627 481.123 256.683 480.898 255.829 480.466L194.056 445.072C193.74 444.952 193.468 444.739 193.276 444.461C193.085 444.183 192.982 443.853 192.982 443.516C192.982 443.178 193.085 442.848 193.276 442.57C193.468 442.293 193.74 442.08 194.056 441.96Z" fill="#263238"/>
<path d="M369.468 379.73L375.603 376.187C375.857 376.034 375.844 375.793 375.603 375.628L368.516 371.539C368.365 371.461 368.197 371.42 368.027 371.42C367.857 371.42 367.689 371.461 367.538 371.539L361.417 375.082C361.15 375.234 361.163 375.476 361.417 375.641L368.503 379.73C368.653 379.806 368.818 379.845 368.986 379.845C369.154 379.845 369.319 379.806 369.468 379.73ZM357.378 365.76L351.257 369.303C350.99 369.443 351.003 369.697 351.257 369.862L358.343 373.952C358.494 374.03 358.662 374.07 358.832 374.07C359.002 374.07 359.17 374.03 359.321 373.952L365.455 370.408C365.709 370.256 365.697 370.002 365.455 369.849L358.356 365.76C358.205 365.682 358.037 365.641 357.867 365.641C357.697 365.641 357.529 365.682 357.378 365.76ZM337.591 377.19L327.215 383.172C326.961 383.324 326.974 383.578 327.215 383.743L334.302 387.833C334.453 387.911 334.621 387.951 334.791 387.951C334.961 387.951 335.129 387.911 335.28 387.833L345.643 381.851C345.91 381.699 345.885 381.445 345.643 381.292L338.557 377.19C338.408 377.112 338.242 377.071 338.074 377.071C337.906 377.071 337.74 377.112 337.591 377.19ZM348.425 370.929L342.303 374.472C342.036 374.625 342.049 374.879 342.303 375.031L349.39 379.12C349.541 379.198 349.709 379.239 349.879 379.239C350.049 379.239 350.216 379.198 350.368 379.12L356.502 375.577C356.756 375.425 356.743 375.183 356.502 375.018L349.402 370.84C349.251 370.762 349.084 370.721 348.913 370.721C348.743 370.721 348.576 370.762 348.425 370.84V370.929ZM324.383 384.81L318.262 388.341C317.995 388.493 318.021 388.747 318.262 388.912L325.349 393.002C325.498 393.076 325.664 393.115 325.831 393.115C325.999 393.115 326.164 393.076 326.314 393.002L332.448 389.458C332.702 389.306 332.689 389.052 332.448 388.899L325.361 384.81C325.21 384.732 325.042 384.691 324.872 384.691C324.702 384.691 324.535 384.732 324.383 384.81ZM315.493 389.979L309.372 393.522C309.105 393.662 309.131 393.916 309.372 394.081L316.459 398.17C316.61 398.248 316.777 398.289 316.948 398.289C317.118 398.289 317.285 398.248 317.437 398.17L323.571 394.627C323.825 394.475 323.812 394.221 323.571 394.068L316.408 389.89C316.257 389.812 316.089 389.771 315.919 389.771C315.749 389.771 315.581 389.812 315.43 389.89L315.493 389.979ZM343.37 406.616L349.491 403.073C349.758 402.92 349.733 402.679 349.491 402.514L342.405 398.424C342.256 398.347 342.09 398.306 341.922 398.306C341.754 398.306 341.588 398.347 341.44 398.424L335.305 401.968C335.051 402.12 335.064 402.361 335.305 402.527L342.392 406.616C342.54 406.674 342.698 406.698 342.856 406.687C343.015 406.676 343.168 406.63 343.306 406.552L343.37 406.616ZM334.404 411.785L340.538 408.242C340.792 408.102 340.779 407.848 340.538 407.683L333.451 403.593C333.3 403.515 333.132 403.475 332.962 403.475C332.792 403.475 332.625 403.515 332.473 403.593L326.352 407.137C326.085 407.289 326.111 407.543 326.352 407.695L333.438 411.785C333.584 411.843 333.74 411.867 333.897 411.856C334.053 411.845 334.204 411.799 334.34 411.721L334.404 411.785ZM325.45 416.954L331.584 413.423C331.838 413.271 331.826 413.017 331.584 412.852L324.498 408.762C324.346 408.687 324.178 408.648 324.009 408.648C323.839 408.648 323.672 408.687 323.52 408.762L317.398 412.306C317.132 412.458 317.157 412.712 317.398 412.864L324.472 416.954C324.62 417.012 324.778 417.036 324.937 417.025C325.095 417.014 325.249 416.968 325.387 416.89L325.45 416.954ZM316.56 422.123L322.694 418.592C322.948 418.44 322.936 418.186 322.694 418.021L315.608 413.931C315.457 413.853 315.289 413.812 315.119 413.812C314.949 413.812 314.781 413.853 314.63 413.931L308.508 417.462C308.242 417.614 308.254 417.868 308.508 418.033L315.595 422.123C315.872 422.213 316.173 422.19 316.433 422.059L316.56 422.123ZM360.642 384.988L366.776 381.445C367.03 381.305 367.017 381.051 366.776 380.886L359.689 376.796C359.537 376.721 359.37 376.682 359.2 376.682C359.031 376.682 358.864 376.721 358.712 376.796L352.59 380.34C352.323 380.492 352.336 380.746 352.59 380.898L359.677 384.988C359.813 385.035 359.958 385.053 360.102 385.042C360.246 385.031 360.387 384.991 360.515 384.924L360.642 384.988ZM352.387 401.498L366.052 393.598C366.306 393.459 366.293 393.205 366.052 393.04L348.844 383.108C348.692 383.03 348.525 382.99 348.355 382.99C348.185 382.99 348.017 383.03 347.866 383.108L340.805 387.198C340.538 387.337 340.563 387.591 340.805 387.756L349.923 393.014C350.203 393.179 350.215 393.433 349.923 393.586L344.17 396.71C343.916 396.85 343.929 397.104 344.17 397.269L351.282 401.32C351.428 401.408 351.593 401.46 351.763 401.471C351.933 401.482 352.104 401.452 352.26 401.384L352.387 401.498ZM306.603 395.148L300.482 398.691C300.215 398.844 300.228 399.085 300.482 399.25L307.569 403.339C307.72 403.417 307.887 403.458 308.058 403.458C308.228 403.458 308.395 403.417 308.547 403.339L314.681 399.796C314.935 399.644 314.922 399.402 314.681 399.237L307.594 395.148C307.432 395.035 307.242 394.969 307.044 394.958C306.847 394.946 306.65 394.99 306.476 395.084L306.603 395.148ZM297.713 400.317L291.389 403.86C291.135 404.012 291.148 404.266 291.389 404.419L298.475 408.508C298.627 408.586 298.794 408.627 298.964 408.627C299.134 408.627 299.302 408.586 299.453 408.508L305.587 404.965C305.841 404.825 305.829 404.571 305.587 404.406L298.45 400.279C298.307 400.205 298.15 400.164 297.989 400.16C297.829 400.156 297.669 400.187 297.523 400.253L297.713 400.317ZM252.73 458.229C252.881 458.307 253.049 458.347 253.219 458.347C253.389 458.347 253.557 458.307 253.708 458.229L259.842 454.685C260.096 454.546 260.083 454.292 259.842 454.127L252.73 450.063C252.579 449.985 252.411 449.944 252.241 449.944C252.071 449.944 251.903 449.985 251.752 450.063L245.631 453.606C245.364 453.758 245.377 454.012 245.631 454.165L252.73 458.229ZM225.844 441.617L219.71 445.16C219.456 445.313 219.469 445.554 219.71 445.719L226.797 449.809C226.948 449.887 227.115 449.927 227.286 449.927C227.456 449.927 227.623 449.887 227.775 449.809L233.909 446.265C234.163 446.113 234.15 445.872 233.909 445.707L226.822 441.617C226.676 441.545 226.515 441.508 226.352 441.508C226.189 441.508 226.028 441.545 225.882 441.617H225.844ZM240.259 453.746C240.41 453.824 240.577 453.864 240.748 453.864C240.918 453.864 241.085 453.824 241.237 453.746L247.358 450.202C247.625 450.063 247.599 449.809 247.358 449.644L240.284 445.554C240.133 445.476 239.965 445.435 239.795 445.435C239.625 445.435 239.457 445.476 239.306 445.554L233.172 449.097C232.918 449.25 232.931 449.504 233.172 449.656L240.259 453.746ZM268.542 461.366L274.676 457.822C274.93 457.67 274.917 457.429 274.676 457.264L267.589 453.174C267.438 453.096 267.27 453.055 267.1 453.055C266.93 453.055 266.762 453.096 266.611 453.174L260.49 456.717C260.223 456.857 260.248 457.111 260.49 457.276L267.564 461.366C267.719 461.452 267.893 461.498 268.07 461.501C268.247 461.503 268.423 461.461 268.58 461.378L268.542 461.366ZM258.61 466.446C258.761 466.524 258.929 466.564 259.099 466.564C259.269 466.564 259.437 466.524 259.588 466.446L265.722 462.902C265.976 462.763 265.963 462.509 265.722 462.344L258.636 458.254C258.484 458.176 258.317 458.135 258.147 458.135C257.976 458.135 257.809 458.176 257.658 458.254L251.536 461.797C251.27 461.95 251.282 462.204 251.536 462.356L258.61 466.446ZM234.798 436.372L228.676 439.915C228.41 440.055 228.422 440.309 228.676 440.474L235.763 444.564C235.914 444.641 236.082 444.682 236.252 444.682C236.422 444.682 236.59 444.641 236.741 444.564L242.875 441.02C243.129 440.868 243.116 440.614 242.875 440.461L235.788 436.372C235.634 436.31 235.468 436.284 235.303 436.298C235.138 436.311 234.978 436.362 234.836 436.448L234.798 436.372ZM279.578 410.528L273.444 414.058C273.19 414.211 273.202 414.465 273.444 414.617L280.53 418.719C280.682 418.794 280.85 418.833 281.019 418.833C281.189 418.833 281.356 418.794 281.508 418.719L287.63 415.188C287.896 415.036 287.884 414.782 287.63 414.617L280.543 410.528C280.393 410.469 280.231 410.446 280.071 410.459C279.91 410.472 279.755 410.522 279.616 410.604L279.578 410.528ZM243.84 431.279L237.719 434.81C237.452 434.962 237.465 435.216 237.719 435.381L244.805 439.471C244.957 439.546 245.125 439.585 245.294 439.585C245.464 439.585 245.631 439.546 245.783 439.471L251.917 435.928C252.171 435.775 252.159 435.521 251.917 435.369L244.831 431.267C244.676 431.191 244.506 431.154 244.334 431.156C244.162 431.158 243.993 431.2 243.84 431.279ZM288.62 405.422L282.435 408.94C282.181 409.092 282.194 409.346 282.435 409.499L289.522 413.588C289.673 413.666 289.841 413.707 290.011 413.707C290.181 413.707 290.349 413.666 290.5 413.588L296.621 410.058C296.888 409.905 296.875 409.651 296.621 409.486L289.56 405.448C289.408 405.366 289.24 405.322 289.068 405.318C288.896 405.313 288.725 405.349 288.569 405.422H288.62ZM270.713 415.773L264.579 419.303C264.325 419.456 264.338 419.71 264.579 419.875L271.666 423.964C271.818 424.039 271.985 424.078 272.155 424.078C272.324 424.078 272.492 424.039 272.644 423.964L278.765 420.434C279.032 420.281 279.006 420.027 278.765 419.862L271.691 415.773C271.532 415.689 271.356 415.646 271.177 415.646C270.998 415.646 270.821 415.689 270.662 415.773H270.713ZM261.747 420.942L255.626 424.472C255.359 424.625 255.384 424.879 255.626 425.044L262.712 429.133C262.864 429.208 263.032 429.247 263.201 429.247C263.371 429.247 263.538 429.208 263.69 429.133L269.812 425.602C270.066 425.45 270.053 425.196 269.812 425.031L262.725 420.942C262.566 420.858 262.39 420.814 262.211 420.814C262.031 420.814 261.855 420.858 261.696 420.942H261.747ZM252.73 426.11L246.609 429.641C246.342 429.793 246.367 430.047 246.609 430.213L253.683 434.302C253.834 434.38 254.001 434.421 254.171 434.421C254.342 434.421 254.509 434.38 254.66 434.302L260.795 430.771C261.049 430.619 261.036 430.365 260.795 430.2L253.708 426.11C253.556 426.035 253.389 425.996 253.219 425.996C253.049 425.996 252.882 426.035 252.73 426.11ZM298.514 432.46L304.635 428.93C304.902 428.777 304.889 428.523 304.635 428.358L297.536 424.18C297.384 424.105 297.216 424.066 297.047 424.066C296.877 424.066 296.71 424.105 296.558 424.18L290.424 427.711C290.17 427.863 290.182 428.117 290.424 428.282L297.51 432.372C297.664 432.46 297.838 432.509 298.015 432.513C298.192 432.517 298.368 432.478 298.526 432.397L298.514 432.46ZM377.19 354.33L371.056 357.873C370.802 358.026 370.815 358.267 371.056 358.432L378.143 362.522C378.294 362.6 378.461 362.64 378.631 362.64C378.802 362.64 378.969 362.6 379.12 362.522L385.242 358.978C385.509 358.826 385.496 358.585 385.242 358.419L378.155 354.33C378.006 354.254 377.84 354.215 377.673 354.215C377.505 354.215 377.34 354.254 377.19 354.33ZM366.344 360.591L360.223 364.134C359.956 364.274 359.982 364.528 360.223 364.693L367.297 368.783C367.449 368.858 367.616 368.897 367.786 368.897C367.955 368.897 368.123 368.858 368.275 368.783L374.409 365.239C374.663 365.087 374.65 364.833 374.409 364.681L367.322 360.591C367.175 360.501 367.007 360.448 366.835 360.437C366.662 360.426 366.489 360.457 366.332 360.528L366.344 360.591ZM386.143 349.161L380.022 352.704C379.755 352.844 379.768 353.098 380.022 353.263L387.109 357.353C387.26 357.431 387.428 357.471 387.598 357.471C387.768 357.471 387.935 357.431 388.087 357.353L394.221 353.809C394.475 353.657 394.462 353.403 394.221 353.251L387.134 349.161C386.979 349.06 386.8 349.001 386.615 348.99C386.431 348.979 386.246 349.016 386.08 349.098L386.143 349.161ZM339.788 396.964L345.923 393.421C346.177 393.268 346.164 393.014 345.923 392.862L338.836 388.772C338.685 388.694 338.517 388.654 338.347 388.654C338.177 388.654 338.009 388.694 337.858 388.772L331.737 392.316C331.47 392.455 331.483 392.709 331.737 392.875L338.823 396.964C338.976 397.028 339.142 397.056 339.307 397.045C339.472 397.034 339.633 396.984 339.776 396.9L339.788 396.964ZM396.075 344.018C395.924 343.94 395.756 343.899 395.586 343.899C395.416 343.899 395.248 343.94 395.097 344.018L388.976 347.561C388.709 347.701 388.722 347.955 388.976 348.12L396.062 352.209C396.214 352.284 396.382 352.323 396.551 352.323C396.721 352.323 396.888 352.284 397.04 352.209L403.174 348.666C403.428 348.513 403.415 348.259 403.174 348.107L396.075 344.018ZM307.48 427.228L313.614 423.697C313.868 423.545 313.855 423.291 313.614 423.126L306.489 419.1C306.338 419.022 306.17 418.981 306 418.981C305.83 418.981 305.662 419.022 305.511 419.1L299.39 422.631C299.123 422.783 299.136 423.037 299.39 423.202L306.476 427.292C306.637 427.361 306.811 427.392 306.986 427.38C307.16 427.369 307.329 427.317 307.48 427.228ZM417.297 363.83L423.431 360.286C423.685 360.147 423.672 359.893 423.431 359.728L416.306 355.6C416.155 355.522 415.987 355.481 415.817 355.481C415.647 355.481 415.479 355.522 415.328 355.6L409.207 359.143C408.94 359.296 408.953 359.55 409.207 359.702L416.293 363.792C416.445 363.88 416.615 363.929 416.79 363.936C416.965 363.943 417.139 363.906 417.297 363.83ZM398.247 363.157L404.381 359.613C404.635 359.461 404.622 359.22 404.381 359.054L397.294 354.965C397.143 354.887 396.975 354.846 396.805 354.846C396.635 354.846 396.467 354.887 396.316 354.965L390.195 358.508C389.928 358.661 389.941 358.902 390.195 359.067L397.281 363.157C397.423 363.238 397.581 363.287 397.744 363.298C397.907 363.309 398.07 363.282 398.221 363.22L398.247 363.157ZM406.21 349.796C406.058 349.718 405.891 349.677 405.721 349.677C405.55 349.677 405.383 349.718 405.232 349.796L399.11 353.339C398.844 353.479 398.856 353.733 399.11 353.898L406.197 357.988C406.348 358.066 406.516 358.106 406.686 358.106C406.856 358.106 407.023 358.066 407.175 357.988L413.309 354.444C413.563 354.292 413.55 354.038 413.309 353.886L406.21 349.796ZM408.102 348.704L425.298 358.635C425.449 358.713 425.616 358.754 425.787 358.754C425.957 358.754 426.124 358.713 426.275 358.635L432.41 355.092C432.664 354.94 432.651 354.698 432.41 354.533L415.201 344.602C415.05 344.524 414.882 344.483 414.712 344.483C414.542 344.483 414.374 344.524 414.223 344.602L408.102 348.145C407.772 348.285 407.797 348.539 408.076 348.704H408.102ZM387.325 360.134L381.19 363.677C380.936 363.83 380.949 364.084 381.19 364.236L388.277 368.325C388.428 368.403 388.596 368.444 388.766 368.444C388.936 368.444 389.104 368.403 389.255 368.325L395.376 364.782C395.643 364.642 395.63 364.388 395.376 364.223L388.29 360.134C388.145 360.058 387.986 360.017 387.823 360.012C387.66 360.008 387.498 360.041 387.35 360.109L387.325 360.134ZM319.926 399.047L313.766 402.59C313.512 402.742 313.525 402.996 313.766 403.149L320.853 407.238C321.004 407.316 321.172 407.357 321.342 407.357C321.512 407.357 321.68 407.316 321.831 407.238L327.952 403.695C328.219 403.555 328.206 403.301 327.952 403.136L320.865 399.047C320.718 398.967 320.554 398.923 320.386 398.919C320.218 398.914 320.052 398.949 319.9 399.021L319.926 399.047ZM407.391 368.999C407.542 369.076 407.709 369.117 407.88 369.117C408.05 369.117 408.217 369.076 408.368 368.999L414.503 365.455C414.757 365.316 414.744 365.062 414.503 364.896L407.416 360.807C407.264 360.732 407.097 360.693 406.927 360.693C406.757 360.693 406.59 360.732 406.438 360.807L400.317 364.35C400.05 364.503 400.063 364.757 400.317 364.909L407.391 368.999ZM328.879 393.878L322.758 397.421C322.491 397.574 322.504 397.815 322.758 397.98L329.844 402.069C329.996 402.147 330.163 402.188 330.333 402.188C330.503 402.188 330.671 402.147 330.822 402.069L336.956 398.526C337.21 398.374 337.198 398.132 336.956 397.967L329.87 393.878C329.716 393.789 329.542 393.741 329.365 393.736C329.188 393.732 329.012 393.772 328.854 393.852L328.879 393.878ZM261.747 453.085C261.898 453.163 262.066 453.204 262.236 453.204C262.406 453.204 262.574 453.163 262.725 453.085L268.859 449.542C269.113 449.39 269.1 449.148 268.859 448.983L261.772 444.894C261.621 444.816 261.454 444.775 261.283 444.775C261.113 444.775 260.946 444.816 260.795 444.894L254.673 448.437C254.406 448.589 254.432 448.831 254.673 448.996L261.747 453.085ZM248.285 440.385L242.151 443.929C241.897 444.081 241.91 444.322 242.151 444.487L249.238 448.577C249.389 448.655 249.556 448.695 249.726 448.695C249.897 448.695 250.064 448.655 250.215 448.577L256.337 445.033C256.604 444.881 256.591 444.64 256.337 444.475L249.25 440.385C249.097 440.305 248.927 440.263 248.755 440.263C248.582 440.263 248.412 440.305 248.26 440.385H248.285ZM271.691 447.916L277.813 444.373C278.067 444.221 278.054 443.967 277.813 443.814L270.726 439.725C270.575 439.647 270.407 439.606 270.237 439.606C270.067 439.606 269.899 439.647 269.748 439.725L263.563 443.23C263.309 443.37 263.322 443.624 263.563 443.789L270.65 447.878C270.803 447.969 270.975 448.019 271.153 448.026C271.33 448.033 271.507 447.995 271.666 447.916H271.691ZM280.645 442.747L286.766 439.204C287.033 439.052 287.007 438.798 286.766 438.645L279.692 434.556C279.541 434.478 279.373 434.437 279.203 434.437C279.033 434.437 278.865 434.478 278.714 434.556L272.58 438.087C272.326 438.239 272.339 438.493 272.58 438.658L279.667 442.747C279.822 442.827 279.994 442.868 280.168 442.868C280.343 442.868 280.515 442.827 280.67 442.747H280.645ZM289.535 437.566L295.656 434.035C295.923 433.883 295.91 433.629 295.656 433.476L288.569 429.374C288.417 429.299 288.25 429.26 288.08 429.26C287.911 429.26 287.744 429.299 287.592 429.374L281.457 432.905C281.203 433.057 281.216 433.311 281.457 433.476L288.544 437.566C288.7 437.65 288.875 437.695 289.052 437.695C289.229 437.695 289.404 437.65 289.56 437.566H289.535ZM257.175 435.216L251.041 438.76C250.787 438.899 250.8 439.153 251.041 439.318L258.128 443.408C258.279 443.486 258.446 443.526 258.616 443.526C258.787 443.526 258.954 443.486 259.105 443.408L265.24 439.865C265.494 439.712 265.481 439.458 265.24 439.306L258.153 435.216C258.007 435.145 257.846 435.107 257.683 435.107C257.52 435.107 257.359 435.145 257.213 435.216H257.175ZM266.129 430.047L260.007 433.578C259.74 433.73 259.753 433.984 260.007 434.15L267.094 438.239C267.246 438.314 267.413 438.353 267.583 438.353C267.752 438.353 267.92 438.314 268.072 438.239L274.32 434.721C274.574 434.569 274.561 434.315 274.32 434.162L267.233 430.073C267.073 429.975 266.891 429.922 266.703 429.917C266.516 429.913 266.331 429.958 266.167 430.047H266.129ZM301.955 409.372L295.91 412.902C295.656 413.055 295.669 413.309 295.91 413.474L302.997 417.563C303.149 417.638 303.316 417.677 303.486 417.677C303.655 417.677 303.822 417.638 303.975 417.563L310.096 414.033C310.363 413.88 310.337 413.626 310.096 413.461L303.022 409.372C302.864 409.285 302.688 409.24 302.508 409.24C302.328 409.24 302.151 409.285 301.993 409.372H301.955ZM292.989 414.541L286.868 418.071C286.614 418.224 286.626 418.478 286.868 418.643L293.954 422.732C294.106 422.807 294.274 422.846 294.443 422.846C294.613 422.846 294.78 422.807 294.932 422.732L301.054 419.202C301.32 419.049 301.295 418.795 301.054 418.63L293.967 414.541C293.82 414.472 293.659 414.436 293.497 414.436C293.335 414.436 293.174 414.472 293.027 414.541H292.989ZM310.909 404.19L304.8 407.734C304.546 407.886 304.559 408.14 304.8 408.292L311.887 412.394C312.039 412.469 312.206 412.508 312.376 412.508C312.545 412.508 312.712 412.469 312.865 412.394L318.986 408.851C319.253 408.711 319.24 408.457 318.986 408.292L311.899 404.203C311.752 404.13 311.589 404.091 311.424 404.089C311.26 404.086 311.096 404.121 310.947 404.19H310.909ZM275.082 424.879L268.961 428.409C268.694 428.562 268.707 428.816 268.961 428.981L276.047 433.07C276.199 433.145 276.367 433.184 276.536 433.184C276.706 433.184 276.873 433.145 277.025 433.07L283.159 429.527C283.413 429.374 283.401 429.12 283.159 428.968L276.073 424.866C275.923 424.797 275.76 424.762 275.595 424.764C275.43 424.766 275.268 424.805 275.12 424.879H275.082ZM284.035 419.71L277.914 423.24C277.647 423.393 277.673 423.647 277.914 423.812L285.001 427.901C285.15 427.979 285.315 428.02 285.483 428.02C285.651 428.02 285.817 427.979 285.966 427.901L292.1 424.371C292.354 424.218 292.341 423.964 292.1 423.799L285.013 419.71C284.866 419.641 284.706 419.605 284.544 419.605C284.381 419.605 284.221 419.641 284.074 419.71H284.035ZM277.508 456.209L283.629 452.666C283.883 452.514 283.87 452.26 283.629 452.107L276.543 448.018C276.391 447.94 276.224 447.899 276.054 447.899C275.883 447.899 275.716 447.94 275.565 448.018L269.443 451.561C269.177 451.701 269.202 451.955 269.443 452.12L276.53 456.209C276.686 456.294 276.86 456.338 277.038 456.338C277.215 456.338 277.39 456.294 277.546 456.209H277.508ZM224.993 450.85L217.907 446.761C217.755 446.683 217.588 446.642 217.418 446.642C217.248 446.642 217.08 446.683 216.929 446.761L210.82 450.329C210.566 450.482 210.579 450.723 210.82 450.888L217.907 454.978C218.058 455.055 218.225 455.096 218.396 455.096C218.566 455.096 218.733 455.055 218.885 454.978L225.006 451.434C225.285 451.32 225.273 451.066 224.993 450.85ZM238.404 454.787L231.318 450.698C231.168 450.623 231.003 450.584 230.835 450.584C230.668 450.584 230.502 450.623 230.353 450.698L220.98 456.171C220.726 456.324 220.739 456.578 220.98 456.73L228.067 460.82C228.218 460.898 228.385 460.938 228.556 460.938C228.726 460.938 228.893 460.898 229.045 460.82L238.468 455.384C238.76 455.257 238.684 455.003 238.404 454.838V454.787ZM214.122 442.938L207.01 438.899C206.859 438.821 206.691 438.781 206.521 438.781C206.351 438.781 206.183 438.821 206.032 438.899L198.514 443.23C198.26 443.382 198.272 443.636 198.514 443.802L205.6 447.891C205.752 447.969 205.919 448.01 206.089 448.01C206.259 448.01 206.427 447.969 206.578 447.891L214.109 443.548C214.414 443.408 214.401 443.154 214.122 442.989V442.938ZM219.901 439.598C220.052 439.676 220.219 439.716 220.389 439.716C220.56 439.716 220.727 439.676 220.878 439.598L227 436.055C227.267 435.915 227.254 435.661 227 435.496L219.913 431.406C219.762 431.328 219.594 431.288 219.424 431.288C219.254 431.288 219.087 431.328 218.935 431.406L212.801 434.95C212.547 435.102 212.56 435.356 212.801 435.508L219.901 439.598ZM250.889 459.27L243.84 455.232C243.688 455.157 243.521 455.117 243.351 455.117C243.181 455.117 243.014 455.157 242.862 455.232L231.077 462.039C230.823 462.191 230.835 462.445 231.077 462.598L238.163 466.7C238.315 466.775 238.482 466.814 238.652 466.814C238.822 466.814 238.989 466.775 239.141 466.7L250.927 459.892C251.181 459.74 251.168 459.486 250.889 459.321V459.27ZM256.769 467.563L249.682 463.55C249.531 463.472 249.363 463.431 249.193 463.431C249.023 463.431 248.855 463.472 248.704 463.55L241.16 467.906C240.906 468.059 240.919 468.313 241.16 468.478L248.247 472.567C248.399 472.642 248.566 472.681 248.736 472.681C248.905 472.681 249.073 472.642 249.225 472.567L256.769 468.211C257.061 468.033 257.048 467.779 256.769 467.614V467.563ZM286.487 401.155C286.638 401.233 286.805 401.274 286.976 401.274C287.146 401.274 287.313 401.233 287.465 401.155L293.586 397.624C293.853 397.472 293.827 397.218 293.586 397.053L286.499 392.963C286.347 392.888 286.18 392.849 286.01 392.849C285.841 392.849 285.673 392.888 285.521 392.963L279.4 396.558C279.146 396.71 279.159 396.964 279.4 397.116L286.487 401.155ZM268.567 411.505C268.719 411.58 268.886 411.62 269.056 411.62C269.225 411.62 269.393 411.58 269.545 411.505L275.679 407.975C275.933 407.822 275.92 407.568 275.679 407.403L268.592 403.314C268.44 403.239 268.273 403.2 268.103 403.2C267.934 403.2 267.766 403.239 267.614 403.314L261.493 406.845C261.226 406.997 261.252 407.251 261.493 407.416L268.567 411.505ZM228.854 434.48C229.005 434.558 229.173 434.598 229.343 434.598C229.513 434.598 229.681 434.558 229.832 434.48L235.953 430.936C236.22 430.784 236.207 430.543 235.953 430.378L228.867 426.288C228.716 426.21 228.548 426.17 228.378 426.17C228.208 426.17 228.04 426.21 227.889 426.288L221.755 429.832C221.501 429.984 221.513 430.225 221.755 430.39L228.854 434.48ZM277.533 406.4C277.683 406.475 277.848 406.514 278.016 406.514C278.183 406.514 278.348 406.475 278.498 406.4L284.632 402.869C284.886 402.717 284.874 402.463 284.632 402.298L277.546 398.209C277.395 398.131 277.227 398.09 277.057 398.09C276.887 398.09 276.719 398.131 276.568 398.209L270.447 401.739C270.18 401.892 270.205 402.146 270.447 402.311L277.533 406.4ZM259.613 416.738C259.765 416.816 259.932 416.856 260.102 416.856C260.272 416.856 260.44 416.816 260.591 416.738L266.725 413.207C266.979 413.055 266.967 412.801 266.725 412.636L259.639 408.546C259.487 408.471 259.319 408.432 259.15 408.432C258.98 408.432 258.813 408.471 258.661 408.546L252.54 412.077C252.273 412.229 252.286 412.483 252.54 412.648L259.613 416.738ZM261.684 468.287C261.531 468.212 261.364 468.173 261.195 468.173C261.025 468.173 260.858 468.212 260.706 468.287L251.282 473.71C251.028 473.862 251.041 474.116 251.282 474.282L258.369 478.371C258.52 478.449 258.688 478.49 258.858 478.49C259.028 478.49 259.196 478.449 259.347 478.371L268.77 472.935C269.037 472.783 269.011 472.529 268.77 472.364L261.684 468.287ZM246.761 424.18C246.913 424.255 247.08 424.294 247.25 424.294C247.42 424.294 247.587 424.255 247.739 424.18L253.873 420.637C254.127 420.484 254.114 420.23 253.873 420.078L246.786 415.989C246.635 415.911 246.468 415.87 246.297 415.87C246.127 415.87 245.96 415.911 245.809 415.989L239.687 419.532C239.42 419.672 239.433 419.926 239.687 420.091L246.761 424.18ZM237.808 429.26C237.959 429.338 238.126 429.379 238.296 429.379C238.467 429.379 238.634 429.338 238.785 429.26L244.92 425.717C245.174 425.564 245.161 425.31 244.92 425.158L237.833 421.069C237.682 420.991 237.514 420.95 237.344 420.95C237.174 420.95 237.006 420.991 236.855 421.069L230.734 424.612C230.467 424.752 230.48 425.006 230.734 425.171L237.808 429.26ZM427.596 372.491C427.445 372.413 427.277 372.372 427.107 372.372C426.937 372.372 426.77 372.413 426.618 372.491L411.48 381.178C411.226 381.33 411.239 381.584 411.48 381.749L418.567 385.839C418.719 385.914 418.886 385.953 419.056 385.953C419.225 385.953 419.392 385.914 419.545 385.839L434.708 377.19C434.975 377.038 434.962 376.784 434.708 376.619L427.596 372.491ZM407.797 383.921C407.646 383.843 407.478 383.802 407.308 383.802C407.138 383.802 406.97 383.843 406.819 383.921L400.698 387.452C400.431 387.604 400.444 387.858 400.698 388.023L407.784 392.113C407.936 392.188 408.104 392.227 408.273 392.227C408.443 392.227 408.61 392.188 408.762 392.113L414.896 388.582C415.15 388.43 415.138 388.176 414.896 388.01L407.797 383.921ZM286.499 451.041L292.621 447.497C292.887 447.345 292.862 447.091 292.621 446.938L285.547 442.836C285.395 442.761 285.227 442.722 285.058 442.722C284.888 442.722 284.721 442.761 284.569 442.836L278.435 446.367C278.181 446.519 278.194 446.773 278.435 446.938L285.521 451.028C285.673 451.105 285.839 451.146 286.009 451.148C286.178 451.15 286.346 451.114 286.499 451.041ZM389.89 394.259C389.738 394.184 389.571 394.145 389.401 394.145C389.231 394.145 389.064 394.184 388.912 394.259L382.778 397.789C382.524 397.942 382.537 398.196 382.778 398.361L389.865 402.45C390.016 402.528 390.183 402.569 390.354 402.569C390.524 402.569 390.691 402.528 390.843 402.45L396.964 398.92C397.231 398.767 397.218 398.513 396.964 398.348L389.89 394.259ZM436.55 367.322C436.398 367.247 436.23 367.208 436.061 367.208C435.891 367.208 435.724 367.247 435.572 367.322L429.45 370.84C429.184 370.992 429.196 371.246 429.45 371.399L436.537 375.501C436.689 375.576 436.856 375.615 437.026 375.615C437.196 375.615 437.363 375.576 437.515 375.501L443.649 371.97C443.903 371.818 443.89 371.564 443.649 371.399L436.55 367.322ZM452.59 366.243L435.381 356.311C435.23 356.233 435.063 356.193 434.892 356.193C434.722 356.193 434.555 356.233 434.403 356.311L428.282 359.855C428.015 360.007 428.028 360.261 428.282 360.413L445.491 370.345C445.642 370.423 445.809 370.463 445.98 370.463C446.15 370.463 446.317 370.423 446.468 370.345L452.603 366.801C452.882 366.662 452.869 366.408 452.59 366.243ZM356.425 413.588C356.274 413.51 356.107 413.47 355.937 413.47C355.766 413.47 355.599 413.51 355.448 413.588L347.904 417.944C347.65 418.097 347.663 418.351 347.904 418.503L354.99 422.593C355.142 422.67 355.309 422.711 355.479 422.711C355.649 422.711 355.817 422.67 355.968 422.593L363.512 418.236C363.766 418.084 363.753 417.83 363.512 417.678L356.425 413.588ZM379.044 400.52C378.893 400.442 378.725 400.401 378.555 400.401C378.385 400.401 378.218 400.442 378.066 400.52L368.643 405.956C368.389 406.108 368.402 406.362 368.643 406.514L375.73 410.616C375.882 410.691 376.049 410.73 376.218 410.73C376.388 410.73 376.555 410.691 376.707 410.616L386.131 405.181C386.385 405.028 386.372 404.774 386.131 404.609L379.044 400.52ZM335.686 425.552C335.534 425.477 335.367 425.438 335.197 425.438C335.028 425.438 334.861 425.477 334.708 425.552L284.277 454.66C284.023 454.812 284.036 455.066 284.277 455.232L291.363 459.321C291.515 459.396 291.683 459.435 291.852 459.435C292.022 459.435 292.189 459.396 292.341 459.321L342.773 430.2C343.027 430.047 343.014 429.793 342.773 429.628L335.686 425.552ZM282.423 456.311C282.271 456.233 282.104 456.192 281.934 456.192C281.764 456.192 281.596 456.233 281.445 456.311L273.914 460.667C273.647 460.82 273.66 461.074 273.914 461.226L281 465.315C281.151 465.393 281.319 465.434 281.489 465.434C281.659 465.434 281.827 465.393 281.978 465.315L289.56 461.01C289.814 460.858 289.801 460.604 289.56 460.451L282.423 456.311ZM346.05 419.57C345.898 419.495 345.73 419.456 345.561 419.456C345.391 419.456 345.224 419.495 345.072 419.57L337.541 423.926C337.274 424.078 337.287 424.332 337.541 424.498L344.627 428.587C344.779 428.662 344.947 428.701 345.116 428.701C345.286 428.701 345.453 428.662 345.605 428.587L353.149 424.231C353.416 424.091 353.39 423.837 353.149 423.672L346.05 419.57ZM272.059 462.28C271.907 462.205 271.74 462.166 271.57 462.166C271.401 462.166 271.234 462.205 271.082 462.28L263.538 466.636C263.284 466.789 263.296 467.043 263.538 467.208L270.624 471.297C270.776 471.372 270.944 471.411 271.113 471.411C271.283 471.411 271.45 471.372 271.602 471.297L279.133 466.954C279.4 466.801 279.387 466.547 279.133 466.382L272.059 462.28ZM366.789 407.581C366.637 407.506 366.469 407.467 366.3 407.467C366.13 407.467 365.963 407.506 365.811 407.581L358.28 411.925C358.013 412.077 358.026 412.331 358.28 412.496L365.366 416.585C365.518 416.66 365.686 416.7 365.855 416.7C366.025 416.7 366.192 416.66 366.344 416.585L373.888 412.229C374.155 412.077 374.129 411.823 373.888 411.658L366.789 407.581ZM398.843 389.077C398.692 388.999 398.525 388.959 398.355 388.959C398.184 388.959 398.017 388.999 397.866 389.077L391.744 392.608C391.477 392.76 391.49 393.014 391.744 393.179L398.831 397.269C398.983 397.344 399.15 397.383 399.32 397.383C399.489 397.383 399.657 397.344 399.809 397.269L405.943 393.738C406.197 393.586 406.184 393.332 405.943 393.167L398.843 389.077ZM418.465 374.828L424.586 371.297C424.853 371.145 424.84 370.891 424.586 370.726L417.5 366.636C417.348 366.561 417.18 366.522 417.011 366.522C416.841 366.522 416.674 366.561 416.522 366.636L410.388 370.18C410.134 370.332 410.147 370.586 410.388 370.738L417.474 374.841C417.628 374.918 417.798 374.958 417.97 374.958C418.142 374.958 418.311 374.918 418.465 374.841V374.828ZM378.46 374.65L384.594 371.107C384.848 370.954 384.835 370.7 384.594 370.548L377.508 366.459C377.356 366.381 377.189 366.34 377.019 366.34C376.848 366.34 376.681 366.381 376.53 366.459L370.408 370.002C370.142 370.154 370.167 370.396 370.408 370.561L377.482 374.65C377.633 374.728 377.801 374.769 377.971 374.769C378.141 374.769 378.309 374.728 378.46 374.65ZM358.14 409.74L376.047 399.402C376.301 399.25 376.288 398.996 376.047 398.831L368.96 394.741C368.808 394.666 368.641 394.627 368.471 394.627C368.302 394.627 368.135 394.666 367.983 394.741L350.075 405.092C349.821 405.232 349.834 405.486 350.075 405.651L357.162 409.74C357.318 409.808 357.489 409.838 357.659 409.827C357.829 409.816 357.994 409.765 358.14 409.677V409.74ZM408.534 380.06C408.686 380.135 408.853 380.174 409.023 380.174C409.192 380.174 409.359 380.135 409.512 380.06L415.633 376.53C415.9 376.377 415.887 376.123 415.633 375.958L408.546 371.869C408.395 371.791 408.227 371.75 408.057 371.75C407.887 371.75 407.72 371.791 407.568 371.869L401.434 375.399C401.18 375.552 401.193 375.806 401.434 375.971L408.534 380.06ZM399.39 374.231L405.511 370.7C405.778 370.548 405.765 370.294 405.511 370.129L398.424 366.039C398.272 365.964 398.105 365.925 397.935 365.925C397.766 365.925 397.599 365.964 397.447 366.039L391.312 369.583C391.058 369.735 391.071 369.989 391.312 370.142L398.399 374.244C398.559 374.309 398.731 374.336 398.903 374.323C399.075 374.31 399.242 374.257 399.39 374.167V374.231ZM349.187 414.871L355.308 411.328C355.575 411.175 355.549 410.934 355.308 410.769L348.221 406.679C348.07 406.601 347.902 406.561 347.732 406.561C347.562 406.561 347.395 406.601 347.243 406.679L341.084 410.21C340.817 410.362 340.843 410.604 341.084 410.769L348.17 414.858C348.335 414.952 348.522 415.001 348.712 414.998C348.902 414.996 349.087 414.943 349.25 414.846L349.187 414.871ZM388.734 391.452C388.886 391.527 389.054 391.566 389.223 391.566C389.393 391.566 389.56 391.527 389.712 391.452L395.846 387.922C396.1 387.769 396.088 387.515 395.846 387.35L388.76 383.261C388.608 383.186 388.44 383.147 388.271 383.147C388.101 383.147 387.934 383.186 387.782 383.261L381.66 386.804C381.394 386.956 381.406 387.21 381.66 387.363L388.734 391.452ZM304.406 440.69L310.528 437.159C310.794 437.007 310.782 436.753 310.528 436.588L303.441 432.499C303.289 432.423 303.122 432.384 302.952 432.384C302.783 432.384 302.615 432.423 302.463 432.499L296.329 436.029C296.075 436.182 296.088 436.436 296.329 436.601L303.416 440.69C303.569 440.767 303.739 440.807 303.911 440.807C304.083 440.807 304.253 440.767 304.406 440.69ZM313.36 435.521L319.494 431.991C319.748 431.838 319.735 431.584 319.494 431.419L312.42 427.33C312.269 427.252 312.101 427.211 311.931 427.211C311.761 427.211 311.593 427.252 311.442 427.33L305.308 430.86C305.054 431.013 305.067 431.267 305.308 431.432L312.395 435.521C312.545 435.594 312.71 435.632 312.877 435.632C313.044 435.632 313.209 435.594 313.36 435.521ZM295.453 445.859L301.574 442.328C301.841 442.176 301.828 441.922 301.574 441.757L294.5 437.667C294.348 437.592 294.181 437.553 294.011 437.553C293.842 437.553 293.674 437.592 293.522 437.667L287.388 441.198C287.134 441.35 287.147 441.604 287.388 441.77L294.475 445.859C294.626 445.937 294.794 445.978 294.964 445.978C295.134 445.978 295.302 445.937 295.453 445.859ZM331.267 425.183L337.401 421.653C337.655 421.5 337.642 421.246 337.401 421.081L330.314 416.992C330.162 416.917 329.995 416.878 329.825 416.878C329.656 416.878 329.488 416.917 329.336 416.992L323.215 420.535C322.948 420.688 322.961 420.942 323.215 421.094L330.302 425.183C330.451 425.259 330.616 425.299 330.784 425.299C330.952 425.299 331.117 425.259 331.267 425.183ZM322.377 430.352L328.511 426.822C328.765 426.669 328.752 426.415 328.511 426.25L321.31 422.161C321.159 422.083 320.991 422.042 320.821 422.042C320.651 422.042 320.483 422.083 320.332 422.161L314.211 425.691C313.944 425.844 313.957 426.098 314.211 426.25L321.297 430.352C321.454 430.433 321.629 430.476 321.805 430.476C321.982 430.476 322.156 430.433 322.313 430.352H322.377ZM340.284 420.014L346.418 416.471C346.672 416.331 346.659 416.077 346.418 415.912L339.331 411.823C339.18 411.745 339.012 411.704 338.842 411.704C338.672 411.704 338.505 411.745 338.353 411.823L332.13 415.29C331.864 415.442 331.889 415.696 332.13 415.849L339.204 419.938C339.354 420.035 339.525 420.092 339.703 420.105C339.88 420.119 340.058 420.087 340.22 420.014H340.284ZM381.254 343.522C381.405 343.6 381.573 343.641 381.743 343.641C381.913 343.641 382.081 343.6 382.232 343.522L388.366 339.979C388.62 339.839 388.607 339.585 388.366 339.42L386.486 338.328C386.334 338.253 386.167 338.214 385.997 338.214C385.828 338.214 385.661 338.253 385.508 338.328L379.374 341.859C379.12 342.011 379.133 342.265 379.374 342.43L381.254 343.522ZM337.198 371.97C337.349 372.048 337.517 372.089 337.687 372.089C337.857 372.089 338.024 372.048 338.176 371.97L344.297 368.44C344.564 368.287 344.551 368.033 344.297 367.868L337.21 363.779C337.058 363.704 336.891 363.665 336.721 363.665C336.552 363.665 336.385 363.704 336.233 363.779L330.098 367.309C329.844 367.462 329.857 367.716 330.098 367.881L337.198 371.97ZM355.105 361.633C355.257 361.708 355.424 361.747 355.594 361.747C355.763 361.747 355.931 361.708 356.083 361.633L362.217 358.102C362.471 357.95 362.458 357.696 362.217 357.53L355.13 353.441C354.979 353.363 354.811 353.322 354.641 353.322C354.471 353.322 354.303 353.363 354.152 353.441L347.98 356.972C347.713 357.124 347.726 357.378 347.98 357.543L355.105 361.633ZM326.263 378.282C326.415 378.357 326.582 378.396 326.752 378.396C326.922 378.396 327.089 378.357 327.241 378.282L333.362 374.739C333.629 374.587 333.616 374.333 333.362 374.18L326.276 370.078C326.124 370.003 325.956 369.964 325.787 369.964C325.617 369.964 325.45 370.003 325.298 370.078L319.164 373.609C318.91 373.761 318.922 374.015 319.164 374.18L326.263 378.282ZM346.151 366.852C346.303 366.927 346.471 366.966 346.64 366.966C346.81 366.966 346.977 366.927 347.129 366.852L353.263 363.322C353.517 363.169 353.505 362.915 353.263 362.75L346.177 358.661C346.025 358.586 345.857 358.547 345.688 358.547C345.518 358.547 345.351 358.586 345.199 358.661L339.077 362.191C338.811 362.344 338.823 362.598 339.077 362.763L346.151 366.852ZM308.293 388.62C308.444 388.698 308.611 388.739 308.781 388.739C308.952 388.739 309.119 388.698 309.27 388.62L315.392 385.077C315.659 384.924 315.633 384.67 315.392 384.518L308.318 380.429C308.167 380.351 307.999 380.31 307.829 380.31C307.659 380.31 307.491 380.351 307.34 380.429L301.206 383.972C300.952 384.112 300.965 384.366 301.206 384.531L308.293 388.62ZM317.246 383.451C317.398 383.526 317.565 383.565 317.735 383.565C317.905 383.565 318.072 383.526 318.224 383.451L324.345 379.908C324.612 379.755 324.599 379.501 324.345 379.349L317.271 375.26C317.12 375.182 316.953 375.141 316.782 375.141C316.612 375.141 316.445 375.182 316.294 375.26L310.159 378.803C309.905 378.943 309.918 379.197 310.159 379.362L317.246 383.451ZM363.283 353.873C363.436 353.948 363.603 353.987 363.772 353.987C363.942 353.987 364.109 353.948 364.261 353.873L370.395 350.342C370.649 350.19 370.637 349.936 370.395 349.771L368.503 348.679C368.351 348.603 368.184 348.564 368.014 348.564C367.845 348.564 367.677 348.603 367.525 348.679L361.404 352.209C361.137 352.362 361.163 352.616 361.404 352.781L363.283 353.873ZM390.157 338.353C390.306 338.431 390.471 338.472 390.639 338.472C390.807 338.472 390.973 338.431 391.122 338.353L397.256 334.81C397.51 334.658 397.497 334.416 397.256 334.251L395.376 333.159C395.225 333.081 395.058 333.04 394.887 333.04C394.717 333.04 394.55 333.081 394.398 333.159L388.264 336.69C388.01 336.842 388.023 337.096 388.264 337.261L390.157 338.353ZM405.028 346.951C405.18 347.026 405.348 347.065 405.517 347.065C405.687 347.065 405.854 347.026 406.006 346.951L412.14 343.408C412.394 343.256 412.382 343.002 412.14 342.849L405.054 338.747C404.902 338.672 404.734 338.633 404.565 338.633C404.395 338.633 404.228 338.672 404.076 338.747L397.955 342.278C397.688 342.43 397.713 342.684 397.955 342.849L405.028 346.951ZM427.418 369.672L433.553 366.128C433.807 365.989 433.794 365.735 433.553 365.57L426.466 361.48C426.314 361.405 426.147 361.366 425.977 361.366C425.807 361.366 425.64 361.405 425.488 361.48L419.367 365.023C419.1 365.176 419.113 365.43 419.367 365.582L426.453 369.672C426.603 369.747 426.768 369.787 426.936 369.787C427.104 369.787 427.269 369.747 427.418 369.672ZM372.237 348.704C372.389 348.779 372.556 348.818 372.726 348.818C372.896 348.818 373.063 348.779 373.215 348.704L379.349 345.173C379.603 345.021 379.59 344.767 379.349 344.602L377.457 343.51C377.305 343.435 377.137 343.396 376.968 343.396C376.798 343.396 376.631 343.435 376.479 343.51L370.357 347.04C370.103 347.193 370.116 347.447 370.357 347.612L372.237 348.704ZM299.339 393.789C299.49 393.867 299.658 393.908 299.828 393.908C299.998 393.908 300.166 393.867 300.317 393.789L306.438 390.246C306.692 390.093 306.68 389.852 306.438 389.687L299.352 385.597C299.201 385.519 299.033 385.479 298.863 385.479C298.693 385.479 298.525 385.519 298.374 385.597L292.252 389.141C291.998 389.293 292.011 389.534 292.252 389.7L299.339 393.789Z" fill="#455A64"/>
<path d="M335.75 449.453L402.806 410.731L444.081 434.556L377.012 473.278L335.75 449.453Z" fill="#263238"/>
<path d="M186.69 254.33L386.537 138.951C390.436 136.69 393.637 138.544 393.637 143.053V297.828C393.572 298.972 393.24 300.086 392.667 301.079C392.093 302.071 391.294 302.916 390.334 303.543L185.42 421.856C183.604 422.897 182.118 422.046 182.118 419.951V262.242C182.209 260.658 182.67 259.117 183.464 257.743C184.258 256.369 185.363 255.2 186.69 254.33Z" fill="#F5F5F5"/>
<path d="M393.7 146.761V143.053C393.7 138.544 390.5 136.703 386.601 138.951L186.69 254.33C185.363 255.2 184.258 256.369 183.464 257.743C182.67 259.117 182.209 260.658 182.118 262.242V268.884L393.7 146.761Z" fill="#301DDE"/>
<path d="M363.88 155.207C363.167 155.671 362.573 156.297 362.147 157.034C361.721 157.771 361.475 158.598 361.429 159.449C361.429 161.011 362.522 161.646 363.88 160.858C364.591 160.395 365.183 159.771 365.606 159.036C366.03 158.301 366.274 157.476 366.319 156.629C366.319 155.067 365.227 154.432 363.88 155.207Z" fill="white"/>
<path d="M373.583 149.606C372.872 150.072 372.281 150.699 371.857 151.436C371.433 152.172 371.189 152.999 371.145 153.848C371.145 155.41 372.237 156.032 373.583 155.257C374.297 154.793 374.89 154.167 375.316 153.43C375.742 152.693 375.988 151.866 376.034 151.016C376.034 149.454 374.942 148.819 373.583 149.606Z" fill="white"/>
<path d="M383.299 143.993C382.587 144.459 381.995 145.086 381.57 145.822C381.144 146.559 380.897 147.385 380.848 148.234C380.848 149.797 381.953 150.432 383.299 149.644C384.011 149.182 384.605 148.558 385.03 147.823C385.456 147.088 385.703 146.263 385.75 145.415C385.75 143.853 384.645 143.218 383.299 143.993Z" fill="white"/>
<path d="M231.467 344.662L223.691 340.172L204.647 373.157L212.423 377.646L231.467 344.662Z" fill="#37474F"/>
<path d="M231.482 344.652L227.6 342.41L208.556 375.395L212.439 377.636L231.482 344.652Z" fill="#263238"/>
<path d="M183.769 437.566C180.226 443.725 163.449 433.946 166.98 427.876L210.731 359.639C210.849 359.454 211.034 359.322 211.246 359.269C211.459 359.217 211.684 359.25 211.874 359.359L220.662 364.439C220.852 364.546 220.992 364.723 221.054 364.931C221.115 365.14 221.093 365.364 220.993 365.557L183.769 437.566Z" fill="#301DDE"/>
<path opacity="0.1" d="M183.769 437.566L220.98 365.557C221.081 365.364 221.102 365.14 221.041 364.931C220.979 364.723 220.839 364.546 220.65 364.439L216.649 362.128L173.99 437.959C177.876 439.877 182.169 440.347 183.769 437.566Z" fill="black"/>
<path d="M312.42 276.923C312.42 276.403 312.42 275.895 312.344 275.387C312.268 274.879 312.344 274.383 312.229 273.888C312.115 273.393 312.229 273.228 312.128 272.898C312.039 272.034 311.912 271.183 311.772 270.358C311.709 269.989 311.645 269.608 311.569 269.24C311.493 268.872 311.429 268.541 311.353 268.199C311.137 267.259 310.909 266.344 310.642 265.468C310.502 265.049 310.375 264.63 310.236 264.198C310.209 264.137 310.187 264.073 310.172 264.008C310.02 263.601 309.88 263.207 309.728 262.826C309.575 262.445 309.372 261.937 309.169 261.556C308.966 261.175 308.889 260.934 308.724 260.629C308.632 260.401 308.522 260.18 308.394 259.969C308.267 259.702 308.127 259.436 307.975 259.182C307.823 258.928 307.911 259.055 307.873 259.004C307.835 258.953 307.607 258.547 307.467 258.318C307.327 258.089 307.276 258.026 307.188 257.886C306.537 256.861 305.806 255.889 305.003 254.978L304.597 254.521L304.254 254.165C304.114 254.013 303.962 253.873 303.809 253.721C303.41 253.301 302.986 252.907 302.539 252.539C302.323 252.349 302.095 252.171 301.866 252.006L301.168 251.498C300.805 251.232 300.427 250.986 300.037 250.761L299.733 250.571H299.669L281.673 240.182L281.572 240.119C278.119 238.193 274.221 237.208 270.269 237.261C264.376 237.261 257.721 239.192 250.673 243.256C226.466 257.226 206.832 291.236 206.832 319.202C206.832 333.172 211.709 342.951 219.596 347.548H219.672L237.68 357.924H237.757L237.973 358.038C238.31 358.238 238.658 358.42 239.014 358.584C239.446 358.8 239.89 358.991 240.284 359.169C240.678 359.346 241.084 359.486 241.49 359.613L242.138 359.804C242.365 359.891 242.599 359.959 242.837 360.007C243.071 360.078 243.308 360.137 243.548 360.185C243.719 360.235 243.893 360.273 244.069 360.299C244.373 360.362 244.704 360.426 245.021 360.464C245.093 360.476 245.165 360.476 245.237 360.464C245.618 360.532 245.999 360.583 246.38 360.616C252.908 361.302 260.502 359.461 268.63 354.774C292.849 340.804 312.483 306.781 312.483 278.828C312.42 278.244 312.42 277.584 312.42 276.923ZM283.045 257.15C283.996 260.625 284.462 264.215 284.429 267.818C284.429 292.481 266.382 323.698 245.059 336.067C241.942 337.92 238.577 339.319 235.064 340.22C234.119 336.74 233.653 333.146 233.68 329.54C233.68 304.876 251.727 273.66 273.05 261.29C276.155 259.444 279.508 258.05 283.007 257.15H283.045Z" fill="#301DDE"/>
<path opacity="0.1" d="M236.944 357.568L219.456 347.485C211.569 342.875 206.692 333.07 206.692 319.151C206.692 306.68 210.604 293.014 217.068 280.467L235.077 290.83C228.6 303.378 224.701 317.043 224.701 329.514C224.701 343.179 229.349 352.844 236.944 357.568Z" fill="black"/>
<path opacity="0.4" d="M312.42 276.923C312.42 276.403 312.42 275.895 312.344 275.387C312.268 274.879 312.344 274.383 312.229 273.888C312.115 273.393 312.229 273.228 312.128 272.898C312.039 272.034 311.912 271.183 311.772 270.358C311.709 269.989 311.645 269.608 311.569 269.24C311.493 268.872 311.429 268.541 311.353 268.199C311.137 267.259 310.909 266.344 310.642 265.468C310.502 265.049 310.375 264.63 310.236 264.198C310.209 264.137 310.187 264.073 310.172 264.008C310.02 263.601 309.88 263.207 309.728 262.826C309.575 262.445 309.372 261.937 309.169 261.556C308.966 261.175 308.889 260.934 308.724 260.629C308.632 260.401 308.522 260.18 308.394 259.969C308.267 259.702 308.127 259.436 307.975 259.182C307.823 258.928 307.911 259.055 307.873 259.004C307.835 258.953 307.607 258.547 307.467 258.318C307.327 258.089 307.276 258.026 307.188 257.886C306.537 256.861 305.806 255.889 305.003 254.978L304.597 254.521L304.254 254.165C304.114 254.013 303.962 253.873 303.809 253.721C303.411 253.301 302.986 252.907 302.539 252.539C302.323 252.349 302.095 252.171 301.866 252.006L301.168 251.498C300.805 251.232 300.427 250.986 300.037 250.761C292.075 245.923 280.987 246.494 268.656 253.594C244.437 267.564 224.803 301.574 224.803 329.54C224.803 343.7 229.883 353.593 237.947 358.089C238.285 358.289 238.632 358.471 238.989 358.635C239.42 358.851 239.865 359.042 240.259 359.219C240.652 359.397 241.059 359.537 241.465 359.664L242.113 359.854C242.34 359.941 242.573 360.009 242.811 360.058C243.045 360.129 243.283 360.188 243.522 360.235C243.693 360.286 243.867 360.324 244.043 360.35C244.348 360.413 244.678 360.477 244.996 360.515C245.067 360.527 245.14 360.527 245.212 360.515C245.593 360.583 245.974 360.633 246.355 360.667C252.882 361.353 260.477 359.512 268.605 354.825C292.824 340.855 312.458 306.832 312.458 278.879C312.42 278.244 312.42 277.584 312.42 276.923ZM264.16 347.167C258.724 350.304 253.492 351.955 249.022 351.955C240.627 351.955 236.766 346.227 235.052 340.22C234.106 336.74 233.64 333.146 233.667 329.54C233.667 304.876 251.714 273.66 273.037 261.29C276.155 259.44 279.52 258.046 283.032 257.15C284.695 256.738 286.399 256.52 288.112 256.502C301.993 256.502 303.479 272.174 303.479 278.917C303.53 303.53 285.483 334.835 264.16 347.167Z" fill="white"/>
<path opacity="0.1" d="M303.53 278.917C303.53 303.581 285.496 334.797 264.16 347.167C258.724 350.304 253.492 351.955 249.022 351.955C240.627 351.955 236.766 346.227 235.052 340.22C238.564 339.319 241.929 337.92 245.046 336.067C266.408 323.736 284.416 292.481 284.416 267.818C284.449 264.215 283.983 260.625 283.032 257.15C284.695 256.738 286.399 256.52 288.112 256.502C302.031 256.54 303.53 272.174 303.53 278.917Z" fill="black"/>
<path opacity="0.7" d="M295.91 274.612C295.91 299.275 277.876 330.492 256.54 342.862C251.104 345.999 245.872 347.65 241.402 347.65C240.512 347.652 239.624 347.58 238.747 347.434C237.031 345.314 235.78 342.856 235.077 340.22C234.131 336.74 233.666 333.146 233.693 329.54C233.693 304.876 251.739 273.66 273.063 261.29C276.18 259.44 279.546 258.046 283.058 257.15C284.72 256.738 286.425 256.52 288.138 256.502C289.031 256.5 289.923 256.572 290.805 256.718C295.199 261.887 295.91 270.18 295.91 274.612Z" fill="white"/>
<path d="M326.606 248.92V277.038C326.606 279.146 328.092 279.997 329.908 278.943L514.185 172.555C515.145 171.928 515.944 171.084 516.517 170.091C517.091 169.098 517.423 167.985 517.487 166.84V138.684C517.487 136.576 516.001 135.725 514.185 136.779L329.908 243.167C328.944 243.799 328.142 244.649 327.569 245.648C326.995 246.648 326.665 247.769 326.606 248.92Z" fill="#E6E6E6"/>
<path d="M329.908 243.167L362.725 224.231V259.969L329.908 278.905C328.092 279.959 326.606 279.108 326.606 277V248.92C326.665 247.769 326.995 246.648 327.569 245.648C328.142 244.649 328.944 243.799 329.908 243.167Z" fill="#301DDE"/>
<path d="M351.866 239.827C349.796 238.633 347.18 238.824 344.5 240.373C341.954 242.004 339.835 244.222 338.322 246.84C336.808 249.459 335.944 252.401 335.801 255.422C335.711 257.38 336.329 259.305 337.541 260.845L334.01 266.89C333.78 267.323 333.724 267.827 333.854 268.299C333.984 268.772 334.29 269.176 334.709 269.43C335 269.594 335.327 269.681 335.661 269.685C335.996 269.685 336.324 269.597 336.614 269.43C336.904 269.262 337.145 269.022 337.312 268.732L340.805 262.687C341.182 262.758 341.564 262.796 341.948 262.801C343.507 262.773 345.031 262.335 346.367 261.531C348.909 259.896 351.024 257.677 352.535 255.059C354.046 252.442 354.909 249.501 355.054 246.482C355.092 243.396 353.949 241.033 351.866 239.827ZM344.5 258.242C344.054 258.722 343.458 259.036 342.81 259.134C342.162 259.231 341.501 259.106 340.933 258.779C340.365 258.452 339.925 257.941 339.685 257.332C339.445 256.722 339.419 256.049 339.611 255.422C339.759 253.072 340.449 250.789 341.628 248.751C342.807 246.712 344.442 244.975 346.405 243.675C347.167 243.19 348.043 242.914 348.945 242.875C349.317 242.861 349.686 242.949 350.012 243.129C350.49 243.537 350.857 244.06 351.079 244.649C351.301 245.237 351.371 245.872 351.282 246.494C351.135 248.843 350.447 251.126 349.27 253.164C348.094 255.202 346.461 256.94 344.5 258.242Z" fill="white"/>
</svg>
