<svg width="844" height="829" viewBox="0 0 844 829" fill="none" xmlns="http://www.w3.org/2000/svg">
<path d="M546.744 676.612C555.823 676.612 564.651 676.214 573.23 675.418C631.146 670.172 676.937 647.747 707.389 616.438C723.497 600.119 735.678 580.464 743.038 558.916C749.969 538.516 751.991 516.814 748.944 495.518C727.901 348.717 551.165 420.103 625.256 330.816C699.348 241.529 554.304 127.968 498.649 154.844C442.995 181.72 504.37 239.2 366.836 212.026C229.302 184.852 257.763 304.247 257.763 304.247" stroke="#F9FAFF" stroke-width="4.62154" stroke-miterlimit="10"/>
<path d="M176.457 549.915C176.457 549.915 113.47 505.553 89.1528 554.614C89.1528 554.614 114.727 465.592 201.956 433.752C201.956 433.752 226.889 420.128 227.986 428.357C229.083 436.586 236.314 440.788 239.478 440.688C242.642 440.589 269.356 442.23 270.284 438.31C271.212 434.39 269.44 422.647 282.687 422.564C295.935 422.481 367.815 439.826 388.369 458.158C388.369 458.158 352.593 500.58 371.722 547.354L355.606 543.517C355.606 543.517 365.545 628.047 351.994 677.216H117.934C117.934 677.216 141.331 680.108 165.328 663.293L200.176 619.37C200.176 619.37 215.456 596.63 246.676 593.382C246.676 593.382 264.445 591.475 264.276 583.18C264.108 574.884 270.681 588.492 279.464 576.5C280.536 576.5 301.883 577.71 301.883 577.71C301.883 577.71 317.915 579.185 320.927 565.13C323.939 551.075 335.043 452.423 331.052 446.498C327.061 440.572 325.534 440.498 291.851 440.697C258.168 440.896 228.568 434.299 224.282 450.757C219.996 467.216 215.043 529.578 215.043 529.578C215.043 529.578 196.058 534.459 181.596 554.655C181.646 554.647 176.457 564.492 176.457 549.915Z" fill="#10173A"/>
<path d="M176.457 519.955V558.79" stroke="#F9FAFF" stroke-width="4.62154" stroke-miterlimit="10"/>
<path d="M354.526 539.374C391.694 558.766 494.414 598.388 498.059 445.993C498.059 445.993 493.637 405.974 505.163 400.753C516.689 395.532 535.277 378.999 511.34 338.971L526.958 323.664C529.068 321.531 530.229 318.662 530.186 315.688C530.142 312.714 528.898 309.879 526.726 307.807C524.554 305.734 521.633 304.594 518.605 304.636C515.577 304.679 512.691 305.901 510.58 308.035L479.538 340.355C479.538 340.355 475.041 332.068 467.067 336.385C459.094 340.703 429.849 359.026 443.13 397.289L408.586 494.747" stroke="#F9FAFF" stroke-width="4.62154" stroke-miterlimit="10"/>
<path d="M479.496 340.335C479.496 340.335 487.773 352.708 470.155 365.354" stroke="#F9FAFF" stroke-width="4.62154" stroke-miterlimit="10"/>
<path d="M516.436 348.583C516.436 348.583 521.591 364.487 500.793 374.746C493.435 378.376 485.36 370.735 488.836 363.401C488.896 363.293 488.946 363.177 489.005 363.061" stroke="#F9FAFF" stroke-width="4.62154" stroke-miterlimit="10"/>
<path d="M522.73 368.224C522.73 368.224 518.183 383.754 505.737 384.5C494.726 385.154 496.574 374.124 496.574 374.124" stroke="#F9FAFF" stroke-width="4.62154" stroke-miterlimit="10"/>
<path d="M309.815 358.496C308.971 358.711 308.439 358.023 307.655 358.156C296.373 356.134 287.986 347.383 287.041 343.173C287.362 345.468 291.648 345.236 290.923 347.582C290.788 348.029 290.518 347.855 290.298 348.286C289.944 349.115 289.952 347.979 289.454 348.725C286.687 344.706 285.084 342.709 284.594 340.496C284.927 342.871 284.731 345.288 284.021 347.582C283.891 348.03 283.719 348.466 283.506 348.883C281.818 352.794 278.3 356.101 272.419 356.921C270.945 357.104 269.456 357.152 267.972 357.062C263.753 356.822 260.108 356.581 257.003 356.449C246.625 355.993 242.904 356.764 244.068 363.344C244.71 366.32 245.62 369.235 246.785 372.054C248.844 377.374 250.278 386.59 248.169 396.626V396.684C245.722 408.369 237.976 417.402 221.379 425.888C218.439 427.379 215.407 428.688 212.3 429.808C183.503 440.3 114.618 466.877 86.0646 564.336C83.0273 574.719 80.7575 584.167 79.1544 592.794L78.3697 592.347C58.8702 580.869 46.1547 555.12 50.0191 532.968C51.9429 521.971 59.233 514.297 68.582 508.521C75.1465 504.526 82.1666 501.253 88.0475 496.322C107.538 479.971 91.9541 454.546 102.746 434.996C114.913 413.001 133.965 399.443 158.839 398.325C165.1 398.59 172.146 399.311 178.98 398.988C188.903 399.336 199.045 398.54 206.31 392.151C212.03 387.178 213.22 379.073 215.389 372.311C217.831 364.685 219.867 356.94 221.489 349.106C222.973 341.679 225.742 334.557 229.674 328.048C233.919 320.995 239.905 315.106 247.081 310.927C253.34 307.457 260.318 305.425 267.491 304.985C274.024 305.363 280.378 307.224 286.054 310.421C287.992 311.547 289.825 312.839 291.53 314.283C304.094 324.808 310.11 342.626 309.815 358.496Z" fill="#1FD45D"/>
<path d="M500.438 383.572C500.438 383.572 496.413 388.478 498.616 393.135C500.818 397.793 506.285 398.878 511.601 396.84" stroke="#F9FAFF" stroke-width="4.62154" stroke-miterlimit="10"/>
<path d="M511.323 338.969L500.202 349.884" stroke="#F9FAFF" stroke-width="4.62154" stroke-miterlimit="10"/>
<path d="M215.085 528.509L224.138 451.851C224.505 448.749 226.019 445.889 228.393 443.812C230.767 441.735 233.835 440.588 237.014 440.589H320.159C321.978 440.588 323.777 440.963 325.439 441.69C327.101 442.417 328.588 443.479 329.804 444.809C331.021 446.138 331.938 447.703 332.497 449.403C333.057 451.104 333.246 452.9 333.052 454.677L320.935 565.138C320.592 568.261 319.086 571.15 316.706 573.248C314.326 575.348 311.24 576.509 308.043 576.509H278.291" stroke="#F9FAFF" stroke-width="4.62154" stroke-miterlimit="10"/>
<path d="M313.358 460.113C315.232 460.113 316.75 458.622 316.75 456.781C316.75 454.942 315.232 453.45 313.358 453.45C311.485 453.45 309.966 454.942 309.966 456.781C309.966 458.622 311.485 460.113 313.358 460.113Z" fill="#F9FAFF"/>
<path d="M257.366 546.294C266.141 548.233 267.896 548.266 276.41 549.51C281.776 550.297 294.045 550.952 294.264 542.772C294.466 535.587 286.257 531.369 280.46 529.073C273.77 526.574 266.769 524.966 259.644 524.291C256.708 523.96 253.757 523.733 250.793 523.612C230.247 522.783 206.546 527.664 192.396 543.452C159.616 579.982 116.027 603.468 116.027 603.468" stroke="#F9FAFF" stroke-width="4.62154" stroke-miterlimit="10"/>
<path d="M280.865 549.913C285.084 551.67 292.231 555.416 289.303 562.593C287.969 565.908 285.548 567.084 282.223 567.565C275.043 568.584 267.339 567.084 260.286 565.634C257.678 565.095 253.054 564.109 250.481 563.413" stroke="#F9FAFF" stroke-width="4.62154" stroke-miterlimit="10"/>
<path d="M273.364 567.731C273.364 567.731 281.034 567.64 279.186 574.642C276.14 586.245 252.472 580.99 241.402 578.554" stroke="#F9FAFF" stroke-width="4.62154" stroke-miterlimit="10"/>
<path d="M273.836 423.192C309.899 424.742 364.853 435.126 414.686 477.466" stroke="#F9FAFF" stroke-width="4.62154" stroke-miterlimit="10"/>
<path d="M546.744 676.618L117.934 677.247" stroke="#F9FAFF" stroke-width="4.62154" stroke-miterlimit="10"/>
<path d="M354.526 523.526C354.526 523.526 362.963 600.656 354.526 676.618" stroke="#F9FAFF" stroke-width="4.62154" stroke-miterlimit="10"/>
<path opacity="0.54" d="M726.896 488.298L801.055 301.66C801.975 298.048 802.044 294.279 801.258 290.638C800.472 286.996 798.852 283.579 796.52 280.644C794.188 277.711 791.206 275.336 787.8 273.704C784.394 272.07 780.654 271.222 776.864 271.221H482.263C475.649 271.22 469.226 273.406 464.031 277.428C458.836 281.449 455.171 287.072 453.626 293.389L372.422 479.986C371.54 483.587 371.502 487.338 372.309 490.956C373.116 494.574 374.749 497.965 377.083 500.875C379.417 503.784 382.393 506.136 385.785 507.752C389.178 509.369 392.901 510.21 396.672 510.21H698.318C704.888 510.21 711.268 508.054 716.446 504.084C721.625 500.113 725.303 494.557 726.896 488.298Z" fill="#F9FAFF"/>
<path d="M726.896 488.298L801.055 301.66C801.975 298.048 802.044 294.279 801.258 290.638C800.472 286.996 798.852 283.579 796.52 280.644C794.188 277.711 791.206 275.336 787.8 273.704C784.394 272.07 780.654 271.222 776.864 271.221H482.263C475.649 271.22 469.226 273.406 464.031 277.428C458.836 281.449 455.171 287.072 453.626 293.389L372.422 479.986C371.54 483.587 371.502 487.338 372.309 490.956C373.116 494.574 374.749 497.965 377.083 500.875C379.417 503.784 382.393 506.136 385.785 507.752C389.178 509.369 392.901 510.21 396.672 510.21H698.318C704.888 510.21 711.268 508.054 716.446 504.084C721.625 500.113 725.303 494.557 726.896 488.298Z" fill="#1FD45D"/>
<path d="M726.896 488.298L801.055 301.66C801.975 298.048 802.044 294.279 801.258 290.638C800.472 286.996 798.852 283.579 796.52 280.644C794.188 277.711 791.206 275.336 787.8 273.704C784.394 272.07 780.654 271.222 776.864 271.221H482.263C475.649 271.22 469.226 273.406 464.031 277.428C458.836 281.449 455.171 287.072 453.626 293.389L372.422 479.986C371.54 483.587 371.502 487.338 372.309 490.956C373.116 494.574 374.749 497.965 377.083 500.875C379.417 503.784 382.393 506.136 385.785 507.752C389.178 509.369 392.901 510.21 396.672 510.21H698.318C704.888 510.21 711.268 508.054 716.446 504.084C721.625 500.113 725.303 494.557 726.896 488.298Z" stroke="#F9FAFF" stroke-width="4.62154" stroke-linecap="square" stroke-linejoin="round"/>
<path d="M716.046 480.742L784.467 308.557C785.314 305.226 785.377 301.75 784.652 298.392C783.928 295.033 782.433 291.881 780.283 289.174C778.133 286.469 775.383 284.278 772.242 282.772C769.102 281.265 765.652 280.481 762.158 280.479H490.355C484.252 280.478 478.327 282.495 473.534 286.205C468.741 289.916 465.36 295.103 463.937 300.932L389.019 473.076C388.206 476.398 388.171 479.858 388.917 483.196C389.662 486.534 391.168 489.662 393.322 492.346C395.476 495.029 398.222 497.199 401.352 498.689C404.483 500.18 407.917 500.954 411.396 500.954H689.687C695.745 500.951 701.629 498.961 706.405 495.299C711.18 491.637 714.573 486.514 716.046 480.742Z" fill="#1FD45D"/>
<path d="M509.964 312.135C513.567 306.823 519.465 304.461 523.135 306.856C526.806 309.251 526.856 315.508 523.254 320.82C522.694 321.637 522.062 322.402 521.364 323.108L548.069 378.483C552.288 375.69 557.013 375.003 560.371 377.199C562.539 378.616 563.746 381.027 564.126 383.828L582.368 377.779L598.323 372.541C600.011 371.969 601.791 371.422 603.529 370.884C604.185 368.959 605.096 367.129 606.238 365.439C611.301 357.98 619.578 354.666 624.725 357.98C629.872 361.295 629.939 369.972 625.02 377.389L655.396 418.188C662.019 412.851 669.824 411.201 675.233 414.732C682.59 419.538 682.7 432.085 675.477 442.751C675.191 443.174 674.861 443.522 674.558 443.928L694.808 471.102C694.867 471.185 694.943 471.284 694.994 471.367C695.506 472.125 695.86 472.976 696.037 473.869C696.215 474.762 696.211 475.681 696.027 476.572C695.843 477.465 695.482 478.312 694.964 479.067C694.447 479.822 693.783 480.469 693.011 480.972C692.239 481.474 691.373 481.823 690.464 481.997C689.554 482.171 688.618 482.168 687.71 481.987C686.802 481.807 685.939 481.452 685.171 480.943C684.403 480.435 683.744 479.783 683.232 479.025L665.251 452.381C659.564 455.621 653.523 456.243 649.093 453.342C642.056 448.751 641.718 437.116 647.988 426.823L618.869 383.671C614.574 386.538 609.832 387.268 606.432 385.055C604.533 383.739 603.238 381.741 602.829 379.494C602.103 379.685 601.386 379.892 600.661 380.091L584.435 384.442L563.67 389.936C563.034 392.381 561.984 394.703 560.565 396.806C555.502 404.265 547.233 407.58 542.078 404.223C536.923 400.867 536.847 392.074 541.901 384.607C542.654 383.524 543.501 382.507 544.432 381.566L519.009 325.105C515.947 327.152 512.563 327.682 510.141 326.099C506.42 323.713 506.361 317.456 509.964 312.135Z" fill="#F9FAFF"/>
<path d="M703.355 315.192H742.751C744.553 315.192 746.317 314.676 747.825 313.708C749.334 312.739 750.524 311.36 751.248 309.739C751.479 309.242 751.603 308.703 751.61 308.156C751.602 307.1 751.168 306.09 750.406 305.344C749.643 304.599 748.611 304.181 747.535 304.178H705.625C707.625 307.452 706.629 311.977 703.355 315.192Z" fill="#F9FAFF"/>
<path d="M677.882 311.223C677.885 312.277 678.312 313.286 679.072 314.03C679.83 314.775 680.86 315.192 681.932 315.192H703.355C706.629 311.977 707.625 307.452 705.659 304.178H686.742C684.941 304.178 683.179 304.691 681.671 305.656C680.162 306.622 678.971 307.997 678.245 309.615C678.015 310.122 677.892 310.668 677.882 311.223Z" fill="#1FD45D"/>
<path d="M687.737 315.192C687.849 315.405 687.979 315.607 688.125 315.797C690.935 319.568 697.027 319.941 701.769 316.527C702.33 316.12 702.86 315.675 703.355 315.192C706.629 311.977 707.625 307.452 705.659 304.179C705.548 303.969 705.418 303.769 705.271 303.582C702.486 299.786 696.394 299.438 691.652 302.828C691.084 303.24 690.545 303.692 690.041 304.179C686.792 307.402 685.797 311.902 687.737 315.192Z" fill="#F9FAFF"/>
<path d="M667.976 335.507C667.985 336.563 668.419 337.572 669.182 338.316C669.945 339.059 670.977 339.477 672.052 339.477H713.396C711.397 336.162 712.392 331.687 715.675 328.471H676.861C675.059 328.471 673.296 328.987 671.787 329.955C670.278 330.924 669.089 332.303 668.365 333.924C668.128 334.42 667.997 334.959 667.976 335.507Z" fill="#1FD45D"/>
<path d="M713.388 339.477H732.795C734.594 339.478 736.355 338.966 737.864 338.002C739.373 337.038 740.563 335.664 741.291 334.048C741.524 333.543 741.648 332.995 741.654 332.441C741.655 331.919 741.551 331.402 741.349 330.92C741.146 330.438 740.848 330 740.473 329.631C740.097 329.262 739.651 328.97 739.16 328.771C738.67 328.571 738.143 328.469 737.612 328.471H715.666C712.375 331.687 711.388 336.187 713.388 339.477Z" fill="#F9FAFF"/>
<path d="M713.388 339.476C713.475 339.693 713.595 339.897 713.742 340.081C716.535 343.876 722.627 344.224 727.361 340.835C727.934 340.426 728.474 339.971 728.972 339.476C732.221 336.26 733.191 331.76 731.276 328.47C731.168 328.257 731.04 328.055 730.896 327.865C728.078 324.095 721.986 323.722 717.252 327.136C716.688 327.538 716.157 327.984 715.666 328.47C712.375 331.686 711.388 336.186 713.388 339.476Z" fill="#F9FAFF"/>
<path d="M699.618 363.593H724.365C726.166 363.593 727.928 363.08 729.436 362.114C730.945 361.149 732.135 359.774 732.862 358.156C733.095 357.659 733.219 357.119 733.225 356.573C733.221 355.513 732.789 354.499 732.026 353.751C731.262 353.002 730.228 352.58 729.149 352.579H701.921C703.862 355.869 702.866 360.369 699.618 363.593Z" fill="#1FD45D"/>
<path d="M659.505 359.64C659.509 360.69 659.938 361.697 660.697 362.438C661.457 363.18 662.484 363.594 663.555 363.593H699.618C702.866 360.369 703.837 355.869 701.921 352.579H668.365C666.562 352.579 664.799 353.095 663.29 354.063C661.781 355.032 660.592 356.41 659.868 358.032C659.637 358.537 659.513 359.084 659.505 359.64Z" fill="#F9FAFF"/>
<path d="M684 363.591C684.111 363.801 684.241 364 684.388 364.188C687.172 367.983 693.264 368.331 698.006 364.942C698.575 364.529 699.113 364.077 699.618 363.591C702.866 360.367 703.837 355.867 701.921 352.577C701.81 352.364 701.68 352.162 701.533 351.972C698.723 348.201 692.631 347.878 687.889 351.243C687.328 351.649 686.798 352.095 686.303 352.577C683.029 355.793 682 360.317 684 363.591Z" fill="#F9FAFF"/>
<path d="M539.623 477.332H564.37C566.171 477.334 567.933 476.82 569.441 475.855C570.95 474.889 572.14 473.514 572.867 471.896C573.15 471.291 573.271 470.625 573.221 469.962C573.171 469.298 572.95 468.658 572.578 468.1C572.208 467.543 571.699 467.088 571.1 466.776C570.501 466.464 569.832 466.307 569.154 466.318H541.935C543.867 469.609 542.871 474.109 539.623 477.332Z" fill="#1FD45D"/>
<path d="M441.375 473.383C441.375 473.902 441.481 474.418 441.685 474.897C441.888 475.378 442.186 475.814 442.562 476.181C442.937 476.548 443.382 476.839 443.872 477.037C444.361 477.235 444.886 477.336 445.416 477.336H539.623C542.871 474.112 543.841 469.612 541.926 466.322H450.234C448.432 466.322 446.668 466.838 445.16 467.806C443.65 468.775 442.461 470.153 441.737 471.775C441.505 472.28 441.382 472.827 441.375 473.383Z" fill="#F9FAFF"/>
<path d="M524.005 477.334C524.116 477.544 524.246 477.743 524.393 477.931C527.177 481.735 533.269 482.074 538.011 478.685C538.58 478.272 539.118 477.82 539.623 477.334C542.871 474.11 543.842 469.61 541.926 466.32C541.816 466.107 541.686 465.905 541.538 465.715C538.72 461.945 532.628 461.621 527.894 464.986C527.333 465.392 526.803 465.838 526.308 466.32C523.034 469.536 522.039 474.061 524.005 477.334Z" fill="#F9FAFF"/>
<path d="M80.5631 596.704C77.4209 595.487 74.3823 594.026 71.4757 592.337C51.9594 580.859 39.2439 555.118 43.1168 532.958C45.049 521.961 52.3391 514.295 61.7218 508.511C68.2779 504.516 75.3317 501.251 81.1875 496.32C100.679 479.969 85.0859 454.536 95.8776 434.994C108.998 411.293 130.092 397.395 157.886 398.298C171.226 398.729 188.548 401.737 199.441 392.149C205.162 387.177 206.36 379.072 208.529 372.309C210.973 364.683 213.012 356.938 214.638 349.105C216.098 341.678 218.85 334.556 222.772 328.047C227.016 320.986 233.002 315.09 240.178 310.9C253.679 303.251 272.503 302.547 286.071 310.411C288.002 311.539 289.832 312.829 291.539 314.265C304.094 324.84 310.101 342.649 309.815 358.527" stroke="#F9FAFF" stroke-width="4.62154" stroke-miterlimit="10"/>
<path d="M284.316 339.092C285.016 343.766 287.91 348.075 293.049 349.368C298.854 350.819 301.934 356.371 303.571 361.948C305.897 370.131 305.301 378.849 301.883 386.653C298.711 393.995 293.057 402.399 283.497 403.716C266.006 406.202 257.299 398.926 257.299 398.926" stroke="#F9FAFF" stroke-width="4.62154" stroke-miterlimit="10"/>
<path d="M269.744 364.063C271.403 364.063 272.748 362.742 272.748 361.113C272.748 359.484 271.403 358.163 269.744 358.163C268.085 358.163 266.74 359.484 266.74 361.113C266.74 362.742 268.085 364.063 269.744 364.063Z" fill="#F9FAFF"/>
<path d="M296.162 362.107C297.821 362.107 299.166 360.787 299.166 359.157C299.166 357.528 297.821 356.207 296.162 356.207C294.504 356.207 293.159 357.528 293.159 359.157C293.159 360.787 294.504 362.107 296.162 362.107Z" fill="#F9FAFF"/>
<path d="M262.775 581.843C267.145 584.479 263.618 588.821 260.446 590.288C254.995 592.774 247.95 593.213 242.009 593.909C196.843 599.13 181.765 660.025 153.414 671.346C125.063 682.666 48.9809 690.937 86.0899 564.324C114.66 466.882 183.545 440.305 212.343 429.813C215.443 428.694 218.468 427.387 221.405 425.901C238.002 417.432 245.773 408.365 248.211 396.672C248.211 396.672 248.211 396.672 248.211 396.622C250.321 386.586 248.903 377.371 246.836 372.042C245.65 369.228 244.73 366.312 244.085 363.332C242.549 354.854 249.215 356.048 267.93 357.059C276.52 357.556 281.38 353.744 283.472 348.888C283.677 348.467 283.844 348.028 283.97 347.578C284.85 344.828 284.955 341.896 284.274 339.092" stroke="#F9FAFF" stroke-width="4.62154" stroke-miterlimit="10"/>
<path d="M282.687 361.827C282.687 361.827 285.843 373.156 285.522 374.83C285.202 376.504 281.16 375.211 281.16 375.211" stroke="#F9FAFF" stroke-width="4.62154" stroke-miterlimit="10"/>
<path d="M280.511 385.585C274.461 388.784 267.466 386.77 264.732 381.442" stroke="#F9FAFF" stroke-width="4.62154" stroke-miterlimit="10"/>
<path d="M274.568 373.168C280.203 367.943 280.562 359.328 275.37 353.926C270.179 348.525 261.402 348.381 255.766 353.606C250.132 358.832 249.772 367.446 254.964 372.848C260.156 378.249 268.932 378.393 274.568 373.168Z" stroke="#F9FAFF" stroke-width="4.62154" stroke-miterlimit="10"/>
<path d="M309.609 370.028C315.245 364.802 315.604 356.188 310.413 350.786C305.221 345.385 296.444 345.241 290.809 350.466C285.173 355.691 284.814 364.306 290.005 369.708C295.197 375.109 303.975 375.253 309.609 370.028Z" stroke="#F9FAFF" stroke-width="4.62154" stroke-miterlimit="10"/>
<path d="M300.499 350.795C302.87 350.78 305.158 351.657 306.892 353.246C308.626 354.835 309.674 357.015 309.823 359.34C309.974 361.871 309.119 364.361 307.439 366.286C305.758 368.21 303.382 369.419 300.812 369.657C300.516 369.657 300.213 369.657 299.917 369.657C297.56 369.674 295.284 368.809 293.552 367.237C291.82 365.665 290.763 363.506 290.594 361.196C290.431 358.658 291.28 356.157 292.963 354.224C294.644 352.29 297.027 351.075 299.605 350.837C299.9 350.837 300.204 350.837 300.499 350.837V350.795ZM300.499 348.84C300.145 348.84 299.782 348.84 299.419 348.889C296.323 349.179 293.462 350.635 291.436 352.953C289.411 355.271 288.38 358.271 288.56 361.32C288.749 364.148 290.029 366.799 292.139 368.732C294.25 370.664 297.032 371.733 299.917 371.721C300.272 371.721 300.634 371.721 300.997 371.671C304.095 371.387 306.958 369.931 308.982 367.611C311.007 365.292 312.035 362.29 311.848 359.24C311.679 356.4 310.409 353.731 308.298 351.782C306.187 349.834 303.396 348.754 300.499 348.765V348.84Z" fill="#F9FAFF"/>
<path d="M279.009 362.156L286.366 361.493" stroke="#F9FAFF" stroke-width="4.62154" stroke-miterlimit="10"/>
<path d="M265.466 353.672C267.909 353.649 270.268 354.548 272.055 356.185C273.842 357.82 274.921 360.069 275.068 362.465C275.226 365.073 274.347 367.639 272.615 369.623C270.884 371.607 268.435 372.853 265.787 373.097C265.483 373.097 265.171 373.097 264.867 373.097C262.422 373.119 260.062 372.218 258.274 370.58C256.486 368.942 255.406 366.693 255.257 364.296C255.101 361.689 255.981 359.125 257.712 357.143C259.443 355.161 261.891 353.916 264.538 353.672C264.846 353.641 265.157 353.628 265.466 353.63V353.672ZM265.466 351.633C265.095 351.633 264.724 351.65 264.352 351.683C261.161 351.974 258.212 353.479 256.135 355.875C254.057 358.272 253.016 361.371 253.232 364.512C253.425 367.409 254.736 370.125 256.899 372.105C259.06 374.086 261.911 375.182 264.867 375.169C265.23 375.169 265.601 375.169 265.972 375.119C269.148 374.826 272.085 373.332 274.16 370.952C276.235 368.572 277.287 365.493 277.093 362.365C276.902 359.468 275.592 356.752 273.431 354.772C271.27 352.791 268.422 351.695 265.466 351.708V351.633Z" fill="#F9FAFF"/>
<path d="M308.278 368.64C313.109 364.159 313.415 356.769 308.959 352.133C304.503 347.496 296.973 347.37 292.141 351.85C287.309 356.33 287.004 363.721 291.46 368.357C295.916 372.994 303.446 373.12 308.278 368.64Z" fill="#1FD45D"/>
<path d="M275.769 372.266C280.643 367.74 280.948 360.283 276.45 355.609C271.951 350.934 264.353 350.814 259.479 355.339C254.604 359.864 254.299 367.323 258.797 371.997C263.295 376.671 270.893 376.792 275.769 372.266Z" fill="#1FD45D"/>
<path d="M235.42 440.687C231.707 436.883 228.484 431.289 226.366 423.192" stroke="#F9FAFF" stroke-width="4.62154" stroke-miterlimit="10"/>
<path d="M269.744 440.589L273.836 423.194L278.283 404.448" stroke="#F9FAFF" stroke-width="4.62154" stroke-miterlimit="10"/>
<path d="M286.472 509.851C288.044 502.271 283.789 495.02 276.968 493.654C270.146 492.288 263.341 497.326 261.768 504.905C260.195 512.484 264.45 519.736 271.272 521.101C278.094 522.466 284.899 517.429 286.472 509.851Z" fill="#F9FAFF"/>
<path d="M547.478 633.168L540.559 671.14C540.365 672.206 539.796 673.172 538.95 673.867C538.106 674.562 537.038 674.943 535.935 674.944H499.746C498.633 674.945 497.554 674.557 496.704 673.849C495.854 673.143 495.288 672.161 495.106 671.082L488.777 633.168H547.478Z" stroke="#F9FAFF" stroke-width="4.62154" stroke-miterlimit="10"/>
<path d="M554.059 628.923C553.962 630.079 553.427 631.155 552.559 631.941C551.693 632.727 550.556 633.164 549.377 633.166H486.938C485.773 633.166 484.651 632.743 483.786 631.978C482.922 631.212 482.376 630.16 482.255 629.023C482.193 628.382 482.268 627.736 482.474 627.125C482.681 626.514 483.016 625.953 483.457 625.477C483.898 625.001 484.435 624.621 485.035 624.361C485.634 624.101 486.282 623.967 486.938 623.968H549.377C550.022 623.968 550.662 624.099 551.253 624.354C551.845 624.607 552.378 624.979 552.817 625.444C553.256 625.908 553.594 626.458 553.807 627.056C554.021 627.655 554.107 628.291 554.059 628.923Z" stroke="#F9FAFF" stroke-width="4.62154" stroke-miterlimit="10"/>
<path d="M520.123 623.904C520.123 621.956 525.186 597.699 520.967 576.194C518.672 564.393 513.609 553.429 503.417 547.42" stroke="#F9FAFF" stroke-width="4.62154" stroke-miterlimit="10"/>
<path d="M520.984 576.227C520.984 576.227 522.14 559.884 536.518 558.757" stroke="#F9FAFF" stroke-width="4.62154" stroke-miterlimit="10"/>
<path d="M522.528 601.163C526.619 598.349 531.545 596.949 536.535 597.186" stroke="#F9FAFF" stroke-width="4.62154" stroke-miterlimit="10"/>
<path d="M522.528 589.552C522.528 589.552 512.082 577.403 495.393 587.016" stroke="#F9FAFF" stroke-width="4.62154" stroke-miterlimit="10"/>
<path d="M515.162 584.662C515.162 584.662 491.638 563.562 487.031 592.12C487.031 592.12 493.654 596.355 503.434 592.12C513.213 587.885 515.162 584.662 515.162 584.662Z" stroke="#F9FAFF" stroke-width="4.62154" stroke-miterlimit="10"/>
<path d="M526.156 563.73C526.156 563.73 525.312 554.233 536.518 551.125C547.723 548.017 554.076 561.02 554.076 561.02C554.076 561.02 545.428 570.409 526.156 563.73Z" stroke="#F9FAFF" stroke-width="4.62154" stroke-miterlimit="10"/>
<path d="M528.755 597.177C528.755 597.177 528.367 587.572 541.411 589.553C554.456 591.534 556.599 602.464 556.599 602.464C556.599 602.464 535.235 610.155 528.755 598.188" stroke="#F9FAFF" stroke-width="4.62154" stroke-miterlimit="10"/>
<path d="M513.036 556.337C513.036 557.017 503.231 555.509 502.607 555.293C497.856 553.901 494.481 550.669 492.262 546.393C491.579 545.067 487.621 537.633 488.744 536.34C488.777 536.34 512.082 528.964 513.036 556.337Z" stroke="#F9FAFF" stroke-width="4.62154" stroke-miterlimit="10"/>
<path d="M743.055 558.912C735.696 580.464 723.515 600.123 707.406 616.443C676.937 647.752 631.146 670.177 573.247 675.423V558.912H743.055Z" stroke="#F9FAFF" stroke-width="4.62154" stroke-miterlimit="10"/>
<path d="M707.406 616.444C676.937 647.754 631.146 670.179 573.247 675.425V616.444H707.406Z" stroke="#F9FAFF" stroke-width="4.62154" stroke-miterlimit="10"/>
<path d="M689.779 588.826C689.779 584.179 685.943 580.411 681.211 580.411C676.479 580.411 672.642 584.179 672.642 588.826C672.642 593.474 676.479 597.243 681.211 597.243C685.943 597.243 689.779 593.474 689.779 588.826Z" stroke="#F9FAFF" stroke-width="4.62154" stroke-miterlimit="10"/>
</svg>
