<svg width="298" height="297" viewBox="0 0 298 297" fill="none" xmlns="http://www.w3.org/2000/svg">
<path d="M193.015 61.1647C194.845 59.9842 196.971 59.345 199.148 59.3204C199.526 59.3204 199.894 59.3412 200.256 59.3738C200.102 58.7264 199.909 57.966 199.662 57.1404C198.882 56.7489 198.203 56.1808 197.681 55.4813C197.159 54.7816 196.807 53.9696 196.654 53.1101C196.374 53.1585 196.091 53.1835 195.807 53.1843C194.796 53.1876 193.805 52.8966 192.956 52.3468C192.748 52.3017 192.543 52.244 192.341 52.1745C192.075 52.2215 191.806 52.2464 191.536 52.2488C190.163 52.2565 188.842 51.7231 187.859 50.7638L185.284 51.6548C185.284 51.6548 191.89 54.9871 193.015 61.1647Z" fill="#1FD45D"/>
<path d="M193.785 254.591C193.783 259.328 191.901 263.871 188.551 267.221C185.202 270.57 180.66 272.453 175.923 272.456H90.8919C86.1544 272.454 81.6115 270.571 78.2614 267.222C74.9115 263.872 73.0288 259.329 73.0273 254.591V69.0405C73.0259 66.6933 73.4868 64.3687 74.3837 62.1997C75.2807 60.031 76.5964 58.0599 78.2554 56.3996C79.9145 54.7391 81.8842 53.4219 84.0526 52.5232C86.2207 51.6242 88.5447 51.1614 90.8919 51.1611H102.255C104.3 51.1617 106.261 51.9734 107.708 53.4183C109.035 54.7364 109.83 56.4964 109.941 58.3634C109.958 58.5181 109.966 58.6738 109.965 58.8297C109.965 58.9633 109.965 59.094 109.965 59.2247C110.02 60.3571 110.314 61.4653 110.827 62.4768C110.841 62.5006 110.85 62.5333 110.865 62.557C111.486 63.7741 112.433 64.7949 113.599 65.5065C114.766 66.2181 116.107 66.5921 117.473 66.5873H149.125C150.139 66.5888 151.144 66.3898 152.081 66.0019C153.018 65.614 153.87 65.045 154.587 64.3271C155.134 63.7798 155.592 63.1492 155.944 62.459C155.959 62.4462 155.97 62.4299 155.976 62.4115C156.498 61.4219 156.79 60.3274 156.829 59.2098C156.829 59.1118 156.829 59.0227 156.829 58.9128C156.853 54.6628 160.096 51.1522 164.352 51.1522H173.948L184.046 51.0275C184.251 49.097 185.074 47.0655 185.923 45.2716C186.206 44.6506 186.541 44.0545 186.924 43.4896H91.6195C88.5426 43.489 85.4957 44.0949 82.6528 45.2722C79.8099 46.4495 77.2266 48.1754 75.0508 50.3512C72.8753 52.527 71.1494 55.1101 69.9721 57.9529C68.7945 60.7958 68.1889 63.8427 68.1892 66.92V258.72C68.1883 261.796 68.7939 264.844 69.9712 267.687C71.1482 270.53 72.8741 273.113 75.0502 275.289C77.226 277.465 79.809 279.191 82.6522 280.368C85.4954 281.545 88.5423 282.15 91.6195 282.15H177.779C180.856 282.15 183.903 281.544 186.747 280.367C189.59 279.19 192.173 277.464 194.349 275.288C196.525 273.112 198.251 270.529 199.429 267.687C200.606 264.844 201.213 261.797 201.213 258.72V245.512L193.788 249.744L193.785 254.591Z" fill="#1FD45D"/>
<path d="M196.374 107.565C195.483 106.647 194.622 108.073 193.785 107.099V177.675C194.308 175.748 194.954 173.856 195.718 172.011C195.89 171.607 196.063 171.2 196.241 170.799C196.618 169.971 197.013 169.154 197.429 168.343C197.542 168.111 197.657 167.892 197.779 167.672C197.901 167.452 198.049 167.17 198.189 166.932C198.427 166.499 198.682 166.065 198.943 165.64C199.122 165.32 199.321 165.011 199.517 164.699C199.662 164.452 199.814 164.215 199.974 163.986C200.146 163.707 200.333 163.431 200.515 163.16C200.737 162.825 200.972 162.489 201.204 162.16V111.886C200.313 111.191 199.422 110.461 198.584 109.709C197.821 109.02 197.084 108.308 196.374 107.565Z" fill="#1FD45D"/>
<path d="M200.503 58.5089C199.475 59.8038 198.201 58.7168 196.544 58.7168C195.035 58.7168 194.168 61.1582 193.211 60.1751C193.265 60.3058 192.727 62.2541 192.772 62.3848C192.917 62.7768 193.048 63.1867 193.164 63.5965V63.6114C193.312 64.1371 193.425 64.6598 193.523 65.2003C193.547 65.3221 193.574 65.4557 193.589 65.5864C193.63 65.8626 193.672 66.1507 193.695 66.4358C193.728 66.7002 193.747 66.9657 193.752 67.2318C193.779 67.5288 193.785 67.8525 193.785 68.1733V88.9633C194.027 89.1658 194.229 89.4126 194.379 89.6909C195.567 91.859 196.704 90.2344 197.975 92.3639C198.652 93.4628 200.054 94.3212 200.773 93.5252C201.037 93.2282 201.201 91.957 201.201 91.4818V66.3616C201.2 65.1688 201.112 63.9776 200.936 62.7976C200.883 62.3491 200.598 58.9633 200.503 58.5089Z" fill="#1FD45D"/>
<path d="M109.974 58.4231C110.512 59.4237 110.807 60.5365 110.835 61.6723C110.323 60.6619 110.03 59.5547 109.974 58.4231Z" fill="#1FD45D"/>
<path d="M156.829 58.4044C156.789 59.5223 156.498 60.6168 155.976 61.6061C156.034 60.4911 156.324 59.4006 156.829 58.4044Z" fill="#1FD45D"/>
<path d="M270.529 149.022C242.154 157.882 227.485 136.183 227.485 136.183C228.557 134.594 226.936 131.606 226.936 131.606L225.95 126.557C213.413 125.943 202.071 113.724 202.071 113.724C218.29 110.849 211.299 101.134 211.299 101.134L222.481 109.89L223.693 109.783C223.841 94.6358 233.378 87.5612 236.366 85.1644C239.353 82.7676 239.864 85.1466 239.864 85.1466C239.864 85.1466 238.551 89.9937 244.153 90.6649C249.754 91.3361 253.856 86.0881 253.856 86.0881C255.777 81.7816 257.99 84.4516 257.99 84.4516C267.592 89.56 269.33 102.2 271.391 111.033C272.813 117.086 275.522 130.13 277.331 136.486C277.963 138.686 277.837 141.035 276.971 143.154C276.394 144.545 275.518 145.792 274.404 146.806C273.291 147.82 271.968 148.577 270.529 149.022Z" fill="#233380"/>
<path d="M270.529 149.022C242.154 157.882 227.485 136.183 227.485 136.183C228.557 134.594 226.936 131.606 226.936 131.606L225.95 126.557C213.413 125.943 202.071 113.724 202.071 113.724C212.816 108.351 211.299 101.134 211.299 101.134L222.481 109.89L223.693 109.783C223.841 94.6358 233.378 87.5612 236.366 85.1644C239.353 82.7676 239.864 85.1466 239.864 85.1466C239.864 85.1466 238.551 89.9937 244.153 90.6649C249.754 91.3361 253.856 86.0881 253.856 86.0881C255.777 81.7816 257.99 84.4516 257.99 84.4516C267.592 89.56 269.33 102.2 271.391 111.033C272.813 117.086 275.522 130.13 277.331 136.486C277.963 138.686 277.837 141.035 276.971 143.154C276.394 144.545 275.518 145.792 274.404 146.806C273.291 147.82 271.968 148.577 270.529 149.022Z" fill="#233380"/>
<path d="M237.084 72.5339C238.857 72.5339 240.295 71.0965 240.295 69.3234C240.295 67.55 238.857 66.1128 237.084 66.1128C235.311 66.1128 233.874 67.55 233.874 69.3234C233.874 71.0965 235.311 72.5339 237.084 72.5339Z" fill="#D7E8F0"/>
<path d="M241.459 75.7885C241.18 77.8437 239.436 79.1861 237.619 78.8891" stroke="#10173A" stroke-width="1.22661" stroke-miterlimit="10"/>
<path d="M219.938 57.8849C220.244 59.282 220.98 60.5478 222.043 61.5042C223.106 62.4608 224.442 63.0596 225.864 63.2161C225.994 62.645 226.261 62.1139 226.642 61.6687C228.263 59.8244 228.878 63.3527 234.01 60.9322C241.138 57.5671 243.761 59.6283 243.761 59.6283C243.992 59.8095 243.933 61.4311 243.96 61.7073C244.114 63.3854 244.257 65.0575 244.432 66.7355C244.533 67.7572 244.631 68.773 244.729 69.7887C244.828 69.6194 244.937 69.4558 245.056 69.2986C245.745 67.0385 247.66 64.3922 250.105 65.598C250.602 65.8511 251.031 66.2185 251.358 66.6702C252.953 68.8561 251.655 70.9114 249.923 72.4172C249.484 72.8864 248.995 73.3067 248.465 73.6705C248.735 74.2645 249.843 76.5989 249.843 76.6078C249.956 76.8454 254.076 72.3667 254.384 71.8766C254.858 70.6687 255.124 69.3895 255.171 68.0928C255.344 62.7646 253.297 56.5098 249.038 53.3735C247.984 52.5954 247.616 51.8588 247.553 50.8282C247.55 50.7727 247.53 50.7195 247.496 50.6756C247.462 50.6316 247.415 50.5989 247.362 50.582C247.309 50.5651 247.252 50.5645 247.199 50.5802C247.146 50.596 247.098 50.6277 247.063 50.6708C245.679 52.2033 242.332 51.9806 242.332 51.9806C230.749 48.8383 226.752 53.9289 224.393 54.7991C223.433 55.1421 222.384 55.1421 221.423 54.7991C221.361 55.119 221.212 55.4154 220.992 55.6563C220.773 55.8971 220.491 56.0732 220.179 56.1653L220.229 56.7058C220.272 57.1208 220.169 57.5375 219.938 57.8849Z" fill="#1FD45D"/>
<path d="M244.791 79.7115C244.028 80.3055 241.896 82.0163 241.043 82.5241C240.418 82.9019 239.761 83.2248 239.08 83.4894C233.954 85.4229 229.148 81.0273 227.387 76.6287C225.938 73.0023 225.605 68.9512 225.709 65.0784C225.727 64.6774 225.742 64.2675 225.774 63.8577C225.77 63.833 225.77 63.8078 225.774 63.7834C225.79 63.5966 225.818 63.411 225.858 63.228C225.987 62.6563 226.254 62.125 226.636 61.6807C228.254 59.8393 228.869 63.3676 234.001 60.9441C241.129 57.5791 243.755 59.6403 243.755 59.6403C243.983 59.8215 243.924 61.4431 243.951 61.7193C244.105 63.4003 244.248 65.0694 244.426 66.7475C244.524 67.7721 244.622 68.7849 244.723 69.8007C244.747 70.0798 244.774 70.3501 244.797 70.6263C244.833 70.177 244.918 69.7326 245.05 69.3017C245.739 67.0415 247.654 64.3982 250.099 65.6011C250.596 65.8541 251.025 66.2215 251.352 66.6732C252.947 68.8592 251.649 70.9144 249.918 72.4202C249.478 72.7971 249.013 73.1443 248.528 73.4597L248.397 73.5429L248.462 73.6735C248.733 74.2675 249.837 76.6049 249.837 76.6109C249.95 76.8485 254.07 72.3727 254.381 71.8797C255.455 70.2236 256.127 68.3403 256.345 66.3792C256.371 66.1327 256.386 65.8951 256.395 65.6486C256.567 60.3204 254.521 54.0656 250.262 50.9293C249.205 50.1511 248.836 49.4146 248.777 48.384C248.774 48.3284 248.754 48.2753 248.719 48.2313C248.685 48.1874 248.639 48.1547 248.586 48.1378C248.533 48.1205 248.476 48.12 248.423 48.136C248.369 48.1517 248.322 48.1832 248.287 48.2266C246.903 49.7591 243.553 49.5363 243.553 49.5363C231.985 46.3941 227.972 51.4847 225.617 52.3549C223.262 53.2251 221.195 51.6183 221.195 51.6183L221.441 54.2527C221.458 54.4333 221.447 54.6156 221.409 54.7932C221.346 55.1128 221.197 55.4092 220.977 55.6501C220.758 55.891 220.477 56.0671 220.164 56.1594C220.046 56.2025 219.922 56.2275 219.796 56.2337H219.704C219.726 56.7823 219.798 57.3281 219.918 57.8642C220.224 59.2634 220.962 60.5307 222.028 61.4873C223.094 62.4443 224.433 63.0415 225.858 63.1954" stroke="#10173A" stroke-width="1.22661" stroke-miterlimit="10"/>
<path d="M227.488 72.2181C229.261 72.2181 230.699 70.7807 230.699 69.0076C230.699 67.2345 229.261 65.797 227.488 65.797C225.715 65.797 224.278 67.2345 224.278 69.0076C224.278 70.7807 225.715 72.2181 227.488 72.2181Z" fill="#D7E8F0"/>
<path d="M238.424 70.5227C238.425 70.7837 238.35 71.0397 238.206 71.2577C238.062 71.4757 237.857 71.6462 237.616 71.7472C237.375 71.8485 237.11 71.8758 236.853 71.8259C236.597 71.776 236.361 71.6513 236.176 71.4671C235.99 71.283 235.864 71.0481 235.812 70.792C235.761 70.536 235.786 70.2705 235.886 70.0291C235.985 69.7876 236.154 69.5812 236.371 69.4356C236.589 69.2904 236.844 69.2129 237.105 69.2129C237.233 69.2102 237.361 69.2292 237.482 69.2693C237.419 69.3296 237.368 69.4018 237.333 69.482C237.298 69.5619 237.279 69.6483 237.277 69.7356C237.279 69.904 237.347 70.0647 237.466 70.1832C237.586 70.3017 237.747 70.3682 237.916 70.3682C238.001 70.3679 238.085 70.3501 238.162 70.3157C238.24 70.2815 238.31 70.2316 238.367 70.1692C238.406 70.283 238.425 70.4024 238.424 70.5227Z" fill="#10173A"/>
<path d="M229.089 70.092C229.088 70.3515 229.011 70.6049 228.867 70.8202C228.722 71.0358 228.517 71.2036 228.277 71.3025C228.038 71.4014 227.774 71.4273 227.519 71.3765C227.265 71.3257 227.031 71.2007 226.848 71.0174C226.665 70.8339 226.54 70.6004 226.489 70.3459C226.438 70.0917 226.464 69.8279 226.563 69.5883C226.662 69.3483 226.83 69.1434 227.045 68.9987C227.26 68.8544 227.514 68.7769 227.773 68.7763C227.944 68.7754 228.114 68.8086 228.272 68.8743C228.183 68.934 228.109 69.0142 228.057 69.1083C228.005 69.2022 227.977 69.3076 227.975 69.4148C227.976 69.4983 227.992 69.5805 228.025 69.6575C228.057 69.7344 228.104 69.8039 228.164 69.8624C228.223 69.9209 228.293 69.9672 228.371 69.9984C228.448 70.0296 228.53 70.0453 228.614 70.0444C228.696 70.0456 228.777 70.0302 228.853 69.999C228.929 69.9678 228.998 69.9218 229.056 69.8633C229.076 69.9381 229.087 70.0148 229.089 70.092Z" fill="#10173A"/>
<path d="M232.347 69.2716C232.347 69.2716 231.524 72.9277 231.426 73.296C231.129 74.484 233.488 74.1157 233.488 74.1157" stroke="#10173A" stroke-width="1.22661" stroke-miterlimit="10"/>
<path d="M235.365 62.3703C235.365 62.3703 239.24 60.9179 241.397 63.8285" stroke="#10173A" stroke-width="1.22661" stroke-miterlimit="10"/>
<path d="M222.481 65.2779C222.481 65.2779 224.477 61.6516 228.005 62.4564" stroke="#10173A" stroke-width="1.22661" stroke-miterlimit="10"/>
<path d="M237.084 73.1158C239.179 73.1158 240.877 71.4175 240.877 69.3231C240.877 67.2283 239.179 65.5304 237.084 65.5304C234.989 65.5304 233.292 67.2283 233.292 69.3231C233.292 71.4175 234.989 73.1158 237.084 73.1158Z" stroke="#10173A" stroke-width="1.22661" stroke-miterlimit="10"/>
<path d="M227.488 72.8C229.583 72.8 231.281 71.102 231.281 69.0073C231.281 66.9126 229.583 65.2146 227.488 65.2146C225.393 65.2146 223.695 66.9126 223.695 69.0073C223.695 71.102 225.393 72.8 227.488 72.8Z" stroke="#10173A" stroke-width="1.22661" stroke-miterlimit="10"/>
<path d="M227.485 66.4297H227.571C228.254 66.4407 228.905 66.7225 229.38 67.2131C229.855 67.7041 230.116 68.3634 230.105 69.0462C230.094 69.7293 229.812 70.3798 229.321 70.855C228.83 71.3299 228.171 71.5906 227.488 71.5796H227.408C226.725 71.5687 226.074 71.2868 225.599 70.7962C225.124 70.3055 224.864 69.6462 224.874 68.9631C224.885 68.2803 225.167 67.6295 225.658 67.1543C226.149 66.6794 226.808 66.4187 227.491 66.4297H227.485ZM227.491 65.8149C226.645 65.8012 225.828 66.124 225.22 66.7124C224.612 67.3008 224.263 68.1068 224.249 68.9527C224.236 69.7985 224.559 70.6156 225.147 71.2235C225.735 71.8315 226.541 72.1808 227.387 72.1944H227.494C228.34 72.2081 229.157 71.8853 229.765 71.2969C230.373 70.7085 230.722 69.9028 230.736 69.0566C230.749 68.2108 230.427 67.3937 229.838 66.7858C229.25 66.1781 228.444 65.8285 227.598 65.8149H227.491Z" fill="#F9FAFF"/>
<path d="M233.291 69.198L231.278 69.1327" stroke="#10173A" stroke-width="1.22661" stroke-miterlimit="10"/>
<path d="M236.137 205.076L232.11 229.745L227.747 229.091C226.802 228.943 225.954 228.428 225.385 227.659C224.816 226.89 224.573 225.928 224.708 224.981L225.032 222.335L228.002 200.564C232.837 203.398 236.137 205.076 236.137 205.076Z" fill="#1FD45D"/>
<path d="M216.211 236.959L201.213 245.572L193.788 249.845L191.513 251.155C191.517 251.112 191.517 251.068 191.513 251.024L189.731 252.04L187.438 247.636C186.902 246.619 186.788 245.432 187.121 244.332C187.454 243.232 188.207 242.307 189.217 241.758L215.204 227.529L215.228 227.766L216.211 236.959Z" fill="#1FD45D"/>
<path d="M194.278 175.996C194.114 175.776 193.951 175.563 193.785 175.375C192.843 174.244 191.919 173.484 191.296 172.198C190.799 171.151 190.655 169.97 190.887 168.835C191.119 167.699 191.714 166.67 192.582 165.901C192.941 165.592 193.341 165.333 193.77 165.132" stroke="#10173A" stroke-width="1.22661" stroke-miterlimit="10"/>
<path d="M225.905 215.566L225.032 222.329L224.696 224.975C224.562 225.922 224.804 226.884 225.373 227.653C225.942 228.422 226.79 228.937 227.735 229.085L232.098 229.739L236.125 205.07C236.125 205.07 232.825 203.392 227.996 200.553C224.542 198.521 220.274 195.893 215.896 192.863" stroke="#10173A" stroke-width="1.22661" stroke-miterlimit="10"/>
<path d="M225.163 221.408C225.163 221.408 220.452 218.868 214.471 215.212" stroke="#10173A" stroke-width="1.22661" stroke-miterlimit="10"/>
<g opacity="0.68">
<path opacity="0.68" d="M193.785 107.475V177.674C192.484 182.48 191.863 187.475 191.533 192.5V107.653C192.264 108.604 193.015 106.566 193.785 107.475Z" fill="#D7E8F0"/>
<path opacity="0.68" d="M193.785 249.745V253.781C193.783 258.518 191.901 263.061 188.551 266.41C185.202 269.76 180.66 271.643 175.923 271.645H90.8919C86.1545 271.644 81.6115 269.761 78.2614 266.411C74.9115 263.062 73.0288 258.518 73.0273 253.781V68.2301C73.0259 65.8829 73.4868 63.5586 74.3837 61.3896C75.2807 59.2206 76.5964 57.2497 78.2554 55.5892C79.9145 53.929 81.8842 52.6118 84.0526 51.7127C86.2207 50.814 88.5447 50.3513 90.8919 50.3507H102.255C102.777 50.3522 103.297 50.4039 103.808 50.5051C104.151 50.577 104.488 50.6703 104.818 50.7843C104.964 50.8408 105.115 50.8972 105.252 50.9566C105.484 51.0528 105.71 51.1618 105.929 51.2833C106.193 51.4258 106.448 51.5844 106.692 51.7585C106.856 51.8713 107.01 51.9872 107.159 52.1089C107.307 52.2307 107.536 52.4386 107.708 52.6079L108.896 54.1404C109.005 54.3231 109.104 54.5117 109.193 54.7047L109.627 55.8007C109.686 55.9996 109.742 56.1957 109.784 56.3947L109.891 57.0154C109.906 57.0985 109.915 57.1876 109.924 57.2708C109.927 57.3115 109.927 57.3522 109.924 57.3926C109.941 57.5886 109.956 57.7787 109.956 57.9866V58.0668C109.956 58.1915 109.956 58.3044 109.956 58.4202C109.949 58.4015 109.938 58.3846 109.924 58.3697C109.589 57.7344 109.158 57.1544 108.647 56.6501C107.255 55.2574 105.367 54.4743 103.399 54.4731H92.4719C90.2118 54.4743 87.9739 54.9209 85.8863 55.7873C83.7986 56.6539 81.9023 57.9233 80.3053 59.5233C78.7087 61.1229 77.4428 63.0216 76.5804 65.111C75.7179 67.2001 75.2753 69.4389 75.2786 71.6991V250.327C75.2786 254.887 77.0897 259.262 80.3139 262.487C83.5379 265.713 87.9112 267.527 92.4719 267.529H174.343C178.758 267.528 183.003 265.829 186.198 262.784C189.394 259.738 191.296 255.58 191.51 251.17C191.514 251.127 191.514 251.083 191.51 251.04L193.785 249.745Z" fill="#D7E8F0"/>
<path opacity="0.68" d="M155.977 61.6067C155.977 61.7195 155.977 61.8265 155.977 61.9423C155.966 63.9043 155.178 65.7822 153.787 67.1656C152.396 68.5491 150.514 69.3257 148.552 69.3257H118.07C113.963 69.3257 110.859 65.9696 110.841 61.8591C110.841 61.7938 110.841 61.7374 110.841 61.672C111.455 62.9096 112.402 63.9509 113.577 64.6774C114.752 65.4038 116.107 65.7867 117.488 65.7825H149.125C150.139 65.784 151.144 65.585 152.081 65.1971C153.018 64.8092 153.87 64.2402 154.587 63.5223C155.147 62.9604 155.616 62.3138 155.977 61.6067Z" fill="#D7E8F0"/>
</g>
<path d="M201.213 137.787C211.777 135.64 222.032 133.421 227.485 133.495" stroke="#10173A" stroke-width="1.22661" stroke-miterlimit="10"/>
<path d="M191.224 198.989C175.21 186.085 160.678 169.533 166.924 155.114C170.681 146.42 181.801 141.683 193.785 139.114" stroke="#10173A" stroke-width="1.22661" stroke-miterlimit="10"/>
<path d="M226.027 127.134C226.288 128.075 227.485 133.498 227.779 134.478C228.866 138.016 215.032 147.374 212.689 149.477C208.483 153.228 204.503 157.451 201.213 162.159C199.024 165.23 197.182 168.534 195.718 172.01C194.954 173.855 194.308 175.747 193.785 177.674C192.484 182.48 191.863 187.475 191.533 192.5C191.272 196.308 191.174 200.13 191.067 203.864C190.847 211.027 190.96 218.232 191.429 225.372C191.462 225.824 191.495 226.263 191.533 226.715C191.903 230.955 192.622 235.158 193.681 239.281V239.307" stroke="#10173A" stroke-width="1.22661" stroke-miterlimit="10"/>
<path d="M223.981 110.401C224.429 96.4923 230.743 89.0673 236.365 85.1559C237.459 84.4062 238.633 83.7796 239.864 83.2877" stroke="#10173A" stroke-width="1.22661" stroke-miterlimit="10"/>
<path d="M255.296 83.1959C255.558 83.2939 255.81 83.4008 256.065 83.5078L256.345 83.6295C256.961 83.8983 257.562 84.2019 258.144 84.5384C260.154 85.6839 261.91 87.2271 263.303 89.0736C263.357 89.1258 263.401 89.1873 263.434 89.2547C263.678 89.5992 263.915 89.9497 264.147 90.312C266.202 93.579 268.118 97.9895 269.582 103.083C270.337 105.696 270.941 108.351 271.391 111.034" stroke="#10173A" stroke-width="1.22661" stroke-miterlimit="10"/>
<path d="M271.391 111.03C272.813 117.083 275.525 130.13 277.331 136.483C277.964 138.684 277.837 141.034 276.971 143.154C276.394 144.545 275.518 145.792 274.404 146.806C273.291 147.821 271.968 148.577 270.529 149.023L265.157 150.323C264.594 150.462 264.098 150.792 263.752 151.256C262.533 152.867 261.18 154.373 259.71 155.759C236.466 177.642 208.498 154.989 215.204 227.535L215.228 227.772C215.499 230.677 215.827 233.739 216.211 236.958L201.213 245.512L193.788 249.744L191.521 251.039L189.739 252.055L187.447 247.65C186.906 246.633 186.788 245.443 187.12 244.34C187.451 243.237 188.205 242.309 189.217 241.758L191.533 240.472L193.681 239.284L193.785 239.227L201.21 235.117L202.79 234.226" stroke="#10173A" stroke-width="1.22661" stroke-miterlimit="10"/>
<path d="M201.216 245.512V257.906C201.215 264.122 198.745 270.083 194.349 274.478C189.954 278.873 183.992 281.342 177.776 281.342H89.0357C85.9579 281.343 82.9098 280.737 80.066 279.559C77.2222 278.382 74.6383 276.655 72.4619 274.479C70.2852 272.303 68.5587 269.719 67.3808 266.875C66.2026 264.032 65.5964 260.984 65.5964 257.906V64.7819C65.5964 61.7037 66.2026 58.6562 67.3808 55.8125C68.5587 52.969 70.2852 50.3851 72.4619 48.209C74.6383 46.0325 77.2222 44.3064 80.066 43.1288C82.9098 41.9512 85.9579 41.3453 89.0357 41.3456H188.557" stroke="#10173A" stroke-width="1.22661" stroke-miterlimit="10"/>
<path d="M201.213 64.7814C201.215 63.1731 201.052 61.569 200.728 59.9937C200.728 59.9937 200.295 57.3712 199.879 56.6436" stroke="#10173A" stroke-width="1.22661" stroke-miterlimit="10"/>
<path d="M201.213 162.151V137.794V112.391" stroke="#10173A" stroke-width="1.22661" stroke-miterlimit="10"/>
<path d="M201.213 64.7843V78.5265V94.8466" stroke="#10173A" stroke-width="1.22661" stroke-miterlimit="10"/>
<path d="M225.032 102.168V102.147C222.494 101.009 220.101 99.5721 217.904 97.8671C208.733 90.8115 202.718 80.4207 201.168 68.9541C201.128 68.6711 201.093 68.386 201.061 68.0988" stroke="#10173A" stroke-width="1.22661" stroke-miterlimit="10"/>
<path d="M193.791 170.843V107.451" stroke="#10173A" stroke-width="1.22661" stroke-miterlimit="10"/>
<path d="M193.791 89.641V68.2333C193.791 64.3337 193.449 59.7124 191.349 56.7691C191.349 56.7691 186.256 50.345 181.079 50.345H164.56" stroke="#10173A" stroke-width="1.22661" stroke-miterlimit="10"/>
<path d="M171.215 50.345H164.56C162.512 50.345 160.548 51.1585 159.099 52.6066C157.651 54.0548 156.838 56.0189 156.838 58.067C156.838 60.1148 156.024 62.0791 154.576 63.527C153.128 64.9752 151.164 65.789 149.116 65.789H117.687C115.639 65.789 113.675 64.9752 112.227 63.527C110.779 62.0791 109.965 60.1148 109.965 58.067C109.965 56.0189 109.152 54.0548 107.704 52.6066C106.255 51.1585 104.291 50.345 102.243 50.345H90.8919C86.1503 50.3479 81.6038 52.2342 78.2527 55.5888C74.9014 58.9434 73.0199 63.4917 73.0214 68.2333V253.781C73.0237 258.519 74.9073 263.063 78.2584 266.414C81.6091 269.764 86.1532 271.647 90.8919 271.649H175.92C180.659 271.647 185.203 269.764 188.553 266.414C191.905 263.063 193.788 258.519 193.79 253.781V249.748" stroke="#10173A" stroke-width="1.22661" stroke-miterlimit="10"/>
<path d="M199.386 42.4478C202.62 43.8318 205.641 48.4085 207.108 51.4706C209.829 57.1522 212.202 61.5003 215.424 66.9146C218.183 71.5567 220.714 76.5849 225.053 79.9826C227.349 81.8068 230.146 82.8911 233.072 83.0922" stroke="#10173A" stroke-width="1.22661" stroke-miterlimit="10"/>
<path d="M111.578 50.3501C111.575 56.7641 109.835 63.0575 106.543 68.5621C103.25 74.0664 98.5278 78.5761 92.8779 81.612C87.2278 84.648 80.861 86.097 74.4535 85.8045C68.0461 85.5122 61.8376 83.4897 56.4874 79.9521C49.554 74.1172 45.1144 65.8517 44.0788 56.8491C43.0431 47.8464 45.4895 38.7888 50.9169 31.5319C56.3443 24.275 64.3416 19.3686 73.2697 17.818C82.1981 16.2675 91.3814 18.1903 98.9376 23.1923C102.901 26.5205 106.087 30.6768 108.271 35.3688C110.454 40.0608 111.583 45.1746 111.578 50.3501Z" fill="#1FD45D"/>
<path d="M107.717 50.4906C107.715 56.1716 106.175 61.746 103.259 66.6218C100.344 71.4977 96.1613 75.4923 91.1574 78.1817C86.1532 80.8713 80.5138 82.1546 74.8387 81.8959C69.1637 81.6372 63.6644 79.846 58.9258 76.7127C52.8004 71.5404 48.8821 64.2241 47.9715 56.2589C47.0612 48.2939 49.2275 40.2821 54.028 33.8609C58.8281 27.4401 65.8996 23.0952 73.7969 21.7146C81.6938 20.334 89.82 22.022 96.5141 26.4335C100.026 29.3816 102.848 33.0632 104.784 37.2194C106.719 41.3759 107.721 45.9058 107.717 50.4906Z" fill="#1FD45D"/>
<path d="M145.932 127.74L120.057 131.64C119.43 131.801 118.774 131.816 118.139 131.684C117.505 131.552 116.909 131.278 116.397 130.88C115.885 130.483 115.471 129.974 115.186 129.392C114.901 128.81 114.753 128.171 114.753 127.523L117.459 105.29H156.048C156.363 105.29 156.665 105.415 156.888 105.638C157.111 105.861 157.236 106.163 157.236 106.478L153.544 120.407C153.019 122.184 152.042 123.795 150.707 125.08C149.373 126.366 147.727 127.282 145.932 127.74Z" fill="#D7E8F0"/>
<path d="M123.844 144.986C126.28 144.986 128.254 143.011 128.254 140.576C128.254 138.14 126.28 136.165 123.844 136.165C121.408 136.165 119.434 138.14 119.434 140.576C119.434 143.011 121.408 144.986 123.844 144.986Z" fill="#D7E8F0"/>
<path d="M140.589 144.986C143.025 144.986 144.999 143.011 144.999 140.576C144.999 138.14 143.025 136.165 140.589 136.165C138.153 136.165 136.178 138.14 136.178 140.576C136.178 143.011 138.153 144.986 140.589 144.986Z" fill="#D7E8F0"/>
<path d="M120.96 109.949L116.942 109.411L118.07 100.959C118.142 100.433 118.098 99.8969 117.943 99.3893C117.787 98.8814 117.522 98.4136 117.168 98.018C116.813 97.6227 116.377 97.3091 115.889 97.0988C115.402 96.8885 114.874 96.787 114.343 96.8006L110.88 96.8897C110.342 96.9034 109.822 96.7029 109.432 96.3325C109.042 95.9622 108.815 95.4522 108.801 94.9147C108.794 94.6489 108.839 94.3839 108.935 94.1356C109.03 93.887 109.173 93.6598 109.356 93.4668C109.539 93.2737 109.759 93.1184 110.002 93.0103C110.245 92.9019 110.507 92.8428 110.773 92.8357L114.239 92.7466C115.449 92.7086 116.65 92.9577 117.745 93.4739C118.839 93.9904 119.796 94.759 120.535 95.7166C121.176 96.5716 121.641 97.5455 121.901 98.5817C122.162 99.6177 122.214 100.695 122.053 101.752L120.96 109.949Z" fill="#D7E8F0"/>
<path d="M164.982 157.906H101.833C98.3297 157.906 95.4895 160.747 95.4895 164.25V180.624C95.4895 184.128 98.3297 186.968 101.833 186.968H164.982C168.485 186.968 171.325 184.128 171.325 180.624V164.25C171.325 160.747 168.485 157.906 164.982 157.906Z" fill="#D7E8F0"/>
<path d="M71.8483 204.226C80.0455 201.85 87.0784 192.878 77.2358 185.453C76.8765 185.191 76.5409 184.954 76.2201 184.764C76.7598 184.235 77.4221 183.849 78.1476 183.639C78.8732 183.429 79.6395 183.402 80.3781 183.561C80.4019 183.561 80.4345 183.561 80.4583 183.579C80.5094 183.584 80.5596 183.597 80.6068 183.617C81.679 183.864 82.8759 184.446 84.2094 185.453C94.0371 192.878 80.4464 202.515 71.8483 204.226Z" fill="#1FD45D"/>
<path d="M112.377 164.773C113.961 164.534 115.562 164.421 117.164 164.435C119.324 164.435 120.627 164.592 121.798 165.177C122.408 165.439 122.928 165.875 123.292 166.431C123.656 166.986 123.848 167.637 123.844 168.302C123.844 169.561 123.146 170.799 121.37 171.474V171.518C123.214 172.035 124.34 173.407 124.34 175.207C124.341 175.858 124.186 176.499 123.889 177.078C123.591 177.657 123.159 178.155 122.629 178.533C121.504 179.389 119.618 179.885 116.392 179.885C115.053 179.912 113.715 179.822 112.392 179.614L112.377 164.773ZM116.401 170.372H117.221C118.952 170.372 119.787 169.778 119.787 168.798C119.787 167.907 119.11 167.36 117.741 167.36C117.296 167.352 116.852 167.382 116.413 167.449L116.401 170.372ZM116.401 176.873C116.79 176.912 117.181 176.926 117.571 176.915C118.92 176.915 120.066 176.374 120.066 175.029C120.066 173.746 118.896 173.247 117.366 173.247H116.401V176.873Z" fill="#F9FAFF"/>
<path d="M130.619 164.538V173.151C130.619 175.444 131.409 176.715 132.995 176.715C134.581 176.715 135.4 175.545 135.4 173.151V164.538H139.496V172.913C139.496 177.591 137.156 179.949 132.906 179.949C128.768 179.949 126.565 177.68 126.565 172.821V164.538H130.619Z" fill="#F9FAFF"/>
<path d="M145.786 179.703V173.588L141.02 164.538H145.674L146.954 167.956C147.36 169.014 147.652 169.777 147.99 170.766H148.035C148.332 169.845 148.629 168.984 149.003 167.956L150.238 164.538H154.824L149.855 173.421V179.694L145.786 179.703Z" fill="#F9FAFF"/>
<path d="M80.393 183.561C79.6547 183.402 78.8881 183.429 78.1625 183.639C77.437 183.849 76.7747 184.235 76.235 184.764C71.2335 189.26 71.0048 204.226 71.0048 204.226H69.6773C69.6773 204.226 66.4697 186.804 71.2246 183.888H71.2424C71.3226 183.855 71.6612 183.706 72.1334 183.543C72.1334 183.543 72.1572 183.543 72.1661 183.543C72.7818 183.331 73.4177 183.182 74.0639 183.1C76.1845 182.91 78.3223 183.065 80.393 183.561Z" fill="#D7E8F0"/>
<path d="M111.578 50.351C111.577 58.4329 108.819 66.2728 103.758 72.5743C98.6971 78.8757 91.6377 83.2618 83.7464 85.0073C75.8551 86.7525 67.6045 85.7528 60.3582 82.1733C53.1123 78.5936 47.3048 72.6485 43.8955 65.3207C40.4866 57.9928 39.6799 49.721 41.6095 41.8725C43.5391 34.0243 48.0892 27.0694 54.5073 22.1576C60.9255 17.2458 68.8278 14.6713 76.9077 14.8596C84.9876 15.0479 92.7612 17.9878 98.9436 23.1932C102.902 26.5254 106.083 30.6827 108.266 35.3739C110.448 40.0653 111.579 45.1769 111.578 50.351Z" stroke="#10173A" stroke-width="1.22661" stroke-miterlimit="10"/>
<path d="M63.2352 234.47V249.914H28.4862C28.078 249.915 27.6738 249.833 27.2973 249.676C26.9209 249.518 26.5796 249.287 26.2936 248.996C26.0076 248.704 25.7826 248.359 25.6318 247.98C25.481 247.6 25.4073 247.195 25.4152 246.787L25.5875 237.493C25.6023 236.689 25.9325 235.923 26.5069 235.359C27.0813 234.796 27.854 234.481 28.6585 234.482L63.2352 234.47Z" fill="#D7E8F0"/>
<path d="M118.361 237.538V246.831C118.361 247.646 118.038 248.427 117.462 249.003C116.886 249.579 116.105 249.902 115.29 249.902H63.2352V234.458H115.29C115.694 234.458 116.094 234.538 116.468 234.693C116.841 234.848 117.18 235.075 117.465 235.361C117.75 235.647 117.976 235.987 118.13 236.36C118.284 236.734 118.363 237.134 118.361 237.538Z" fill="#1FD45D"/>
<path d="M68.4684 249.902V281.34H35.1718C33.7527 281.337 32.3921 280.773 31.3865 279.772C30.3809 278.771 29.8114 277.413 29.802 275.994V249.917L68.4684 249.902Z" fill="#D7E8F0"/>
<path d="M112.383 249.902V275.979C112.373 277.398 111.804 278.756 110.798 279.757C109.793 280.758 108.432 281.322 107.013 281.325H68.4684V249.902H112.383Z" fill="#1FD45D"/>
<path d="M68.1803 38.3724C72.1274 38.3724 74.2658 41.2354 74.2658 44.7222C74.2658 49.1624 71.2394 51.5532 67.9843 51.5532C64.4945 51.5532 61.8304 48.9871 61.8304 45.1053C61.8304 41.4552 64.1678 38.3605 68.1476 38.3605L68.1803 38.3724ZM68.0496 41.5324C66.7012 41.5324 66.1726 43.0442 66.1726 44.9865C66.1726 47.024 66.7993 48.408 68.115 48.408C69.303 48.408 69.9237 47.2556 69.9237 44.9865C69.9237 43.0115 69.4307 41.5324 68.0823 41.5324H68.0496ZM68.4446 60.481L80.6216 38.4407H83.6599L71.5186 60.481H68.4446ZM84.2361 47.2556C88.1833 47.2556 90.3217 50.1157 90.3217 53.6055C90.3217 58.0456 87.2952 60.4365 84.0371 60.4365C80.5504 60.4365 77.8863 57.8704 77.8863 53.9559C77.8863 50.3355 80.2207 47.2437 84.2034 47.2437L84.2361 47.2556ZM84.1025 50.4157C82.7541 50.4157 82.2284 51.9274 82.2284 53.8698C82.2284 55.9072 82.8551 57.2913 84.1708 57.2913C85.3588 57.2913 85.9795 56.1033 85.9795 53.8342C85.9795 51.8621 85.4865 50.4157 84.1381 50.4157H84.1025Z" fill="#F9FAFF"/>
<path d="M67.7408 204.063C62.4334 204.063 52.5938 199.73 57.8002 193.926C58.3497 193.267 59.033 192.731 59.805 192.355L59.8465 192.328H59.8644C61.1097 191.748 62.4423 191.376 63.8085 191.23C64.2481 191.193 64.6906 191.207 65.1272 191.271C64.4322 191.238 63.6214 191.616 62.6621 192.533C62.4928 192.688 62.3116 192.884 62.1245 193.089C56.93 198.88 62.377 203.597 67.7408 204.063Z" fill="#D7E8F0"/>
<path d="M69.107 203.799L68.2813 203.956C68.2813 203.956 66.3152 194.714 62.6621 192.528C63.6214 191.61 64.4441 191.233 65.1272 191.265C65.1409 191.269 65.1551 191.269 65.1688 191.265L65.4658 191.307L65.5697 191.331C68.9763 192.379 69.107 203.799 69.107 203.799Z" fill="#1FD45D"/>
<path d="M68.4654 234.466H28.6674C27.8621 234.466 27.0889 234.782 26.5146 235.347C25.9402 235.911 25.6104 236.679 25.5964 237.484L25.4301 246.777C25.4226 247.185 25.4965 247.59 25.6475 247.97C25.7984 248.349 26.0234 248.694 26.3094 248.985C26.5953 249.276 26.9364 249.508 27.3127 249.665C27.689 249.823 28.093 249.904 28.5011 249.904H115.287C115.691 249.904 116.091 249.825 116.463 249.67C116.836 249.516 117.175 249.289 117.46 249.004C117.745 248.718 117.971 248.38 118.126 248.007C118.28 247.634 118.359 247.234 118.358 246.83V237.537C118.358 236.723 118.035 235.942 117.459 235.366C116.883 234.79 116.102 234.466 115.287 234.466H57.8387" stroke="#10173A" stroke-width="1.22661" stroke-miterlimit="10"/>
<path d="M107.013 281.342H35.1688C33.7465 281.337 32.3835 280.77 31.3782 279.764C30.3725 278.758 29.8059 277.395 29.802 275.972V249.905H112.368V275.972C112.363 277.392 111.798 278.753 110.795 279.759C109.792 280.765 108.433 281.334 107.013 281.342Z" stroke="#10173A" stroke-width="1.22661" stroke-miterlimit="10"/>
<path d="M101.976 206.207V212.2C101.976 212.726 101.767 213.229 101.396 213.601C101.024 213.972 100.52 214.181 99.995 214.181H66.4043V204.226H99.995C100.52 204.226 101.024 204.435 101.396 204.806C101.767 205.177 101.976 205.681 101.976 206.207Z" fill="#1FD45D"/>
<path d="M66.4043 204.226V214.181H43.9956C43.7328 214.181 43.4726 214.128 43.2302 214.027C42.9882 213.925 42.7684 213.776 42.584 213.589C42.3998 213.401 42.2546 213.179 42.1569 212.935C42.0589 212.691 42.0108 212.43 42.0146 212.168L42.1215 206.165C42.1316 205.647 42.3449 205.153 42.7155 204.79C43.0859 204.428 43.584 204.225 44.1025 204.226H66.4043Z" fill="#D7E8F0"/>
<path d="M98.1208 214.181V231.006C98.1176 231.925 97.7505 232.805 97.1 233.454C96.4493 234.103 95.5678 234.468 94.6489 234.469H69.7841V214.181H98.1208Z" fill="#1FD45D"/>
<path d="M69.7841 214.181V234.469H48.3169C47.3992 234.467 46.5198 234.101 45.8708 233.452C45.2219 232.803 44.8563 231.924 44.8539 231.006V214.181H69.7841Z" fill="#D7E8F0"/>
<path d="M63.2323 234.466V249.904" stroke="#10173A" stroke-width="1.22661" stroke-miterlimit="10"/>
<path d="M68.4655 249.905V281.342" stroke="#10173A" stroke-width="1.22661" stroke-miterlimit="10"/>
<path d="M101.976 206.207V212.2C101.976 212.726 101.767 213.229 101.396 213.601C101.024 213.972 100.52 214.181 99.995 214.181H66.4043V204.226H99.995C100.52 204.226 101.024 204.435 101.396 204.806C101.767 205.177 101.976 205.681 101.976 206.207Z" stroke="#10173A" stroke-width="1.22661" stroke-miterlimit="10"/>
<path d="M66.4043 204.226V214.181H43.9956C43.7328 214.181 43.4726 214.128 43.2302 214.027C42.9882 213.925 42.7684 213.776 42.584 213.589C42.3998 213.401 42.2546 213.179 42.1569 212.935C42.0589 212.691 42.0108 212.43 42.0146 212.168L42.1215 206.165C42.1316 205.647 42.3449 205.153 42.7155 204.79C43.0859 204.428 43.584 204.225 44.1025 204.226H66.4043Z" stroke="#10173A" stroke-width="1.22661" stroke-miterlimit="10"/>
<path d="M98.1208 214.181V231.006C98.1176 231.925 97.7505 232.805 97.1 233.454C96.4493 234.103 95.5678 234.468 94.6489 234.469H69.7841V214.181H98.1208Z" stroke="#10173A" stroke-width="1.22661" stroke-miterlimit="10"/>
<path d="M69.7841 214.181V234.469H48.3169C47.3992 234.467 46.5198 234.101 45.8708 233.452C45.2219 232.803 44.8563 231.924 44.8539 231.006V214.181H69.7841Z" stroke="#10173A" stroke-width="1.22661" stroke-miterlimit="10"/>
<path d="M73.2827 204.223C81.4948 201.847 94.1321 192.881 84.3074 185.456C83.2491 184.596 82.0216 183.97 80.7047 183.618C80.6578 183.597 80.6073 183.585 80.5562 183.582C79.8069 183.406 79.0252 183.423 78.2842 183.631C77.5432 183.838 76.8669 184.23 76.3181 184.77" stroke="#10173A" stroke-width="1.22661" stroke-miterlimit="10"/>
<path d="M76.3181 184.763C71.3137 189.263 71.0879 204.223 71.0879 204.223H69.7574C69.7574 204.223 64.8064 177.356 76.3181 184.763Z" stroke="#10173A" stroke-width="1.22661" stroke-miterlimit="10"/>
<path d="M71.9492 204.224H71.0879C71.0879 204.224 71.3136 189.264 76.3181 184.764C76.667 184.978 77.005 185.209 77.3308 185.456C87.1734 192.881 80.1434 201.863 71.9492 204.224Z" stroke="#10173A" stroke-width="1.22661" stroke-miterlimit="10"/>
<path d="M71.4503 183.73C72.3202 183.414 73.2228 183.197 74.1411 183.082C76.3383 182.892 78.5522 183.072 80.69 183.614" stroke="#10173A" stroke-width="1.22661" stroke-miterlimit="10"/>
<path d="M67.0279 204.223C61.6492 203.76 52.7214 199.726 57.91 193.929C58.4609 193.267 59.1461 192.729 59.9207 192.352C59.9468 192.334 59.9759 192.32 60.0068 192.31C60.4497 192.111 60.9358 192.025 61.4203 192.063C61.9047 192.101 62.3715 192.261 62.7778 192.527" stroke="#10173A" stroke-width="1.22661" stroke-miterlimit="10"/>
<path d="M62.7631 192.527C66.4162 194.707 68.3734 203.959 68.3734 203.959L69.1991 203.796C69.1991 203.796 69.0001 186.534 62.7631 192.527Z" stroke="#10173A" stroke-width="1.22661" stroke-miterlimit="10"/>
<path d="M67.8388 204.062L68.3734 203.958C68.3734 203.958 66.4162 194.707 62.7631 192.527C62.5908 192.681 62.4097 192.874 62.2196 193.079C57.0221 198.879 62.472 203.593 67.8388 204.062Z" stroke="#10173A" stroke-width="1.22661" stroke-miterlimit="10"/>
<path d="M65.6588 191.294C65.0802 191.204 64.4936 191.179 63.9094 191.22C62.521 191.369 61.1678 191.751 59.9059 192.348" stroke="#10173A" stroke-width="1.22661" stroke-miterlimit="10"/>
<path d="M241.664 83.4576L242.825 85.5366C242.825 85.5366 241.126 89.3145 245.679 89.9679C250.232 90.6213 256.226 86.1455 256.389 83.1903C263.384 85.893 267.081 92.6943 267.147 99.9768C267.265 118.005 244.07 128.934 228.569 127.301C220.779 126.484 213.422 123.048 207.28 118.198C206.461 117.562 205.673 116.894 204.904 116.205C203.348 114.785 201.889 113.262 200.538 111.646C199.84 110.814 199.158 109.964 198.495 109.095" stroke="#10173A" stroke-width="1.11969" stroke-miterlimit="10"/>
<path d="M251.604 74.9984L256.065 83.5075" stroke="#10173A" stroke-width="1.22661" stroke-miterlimit="10"/>
<path d="M20.0099 281.339H277.99" stroke="#10173A" stroke-width="1.22661" stroke-miterlimit="10"/>
<path d="M198.005 41.9397H197.966C196.529 42.1832 194.8 43.4633 193.903 45.1206C192.876 46.9946 192.757 49.2786 192.537 50.2468C192.513 50.3567 192.49 50.4636 192.478 50.5616C192.452 50.6442 192.433 50.7285 192.418 50.8141L192.38 50.9596C192.242 51.4285 191.935 51.8292 191.517 52.0828C191.1 52.3368 190.603 52.4256 190.123 52.332C189.644 52.2382 189.216 51.9688 188.925 51.5765C188.634 51.1841 188.499 50.6973 188.548 50.2111L188.632 49.534C188.658 49.2904 188.694 49.0618 188.742 48.8331C188.838 48.1696 188.984 47.5144 189.178 46.8729C189.204 46.7722 189.236 46.673 189.273 46.5759C189.309 46.4226 189.358 46.2726 189.419 46.1274C189.447 46.0493 189.48 45.973 189.517 45.8987" stroke="#10173A" stroke-width="1.22661" stroke-miterlimit="10"/>
<path d="M201.652 55.4682C200.753 56.3295 199.894 56.759 199.074 56.7572C198.727 56.7575 198.383 56.6794 198.07 56.5285C197.776 56.3964 197.51 56.2078 197.289 55.9731C196.547 55.2098 196.576 53.9298 196.93 53.0714C197.185 52.5143 197.532 52.0034 197.954 51.5597C198.088 51.4082 198.219 51.2627 198.335 51.1053C198.725 50.6601 199.021 50.1395 199.202 49.5758C199.202 49.5431 199.202 49.5134 199.217 49.4807" stroke="#10173A" stroke-width="1.22661" stroke-miterlimit="10"/>
<path d="M194.601 41.1078C195.157 41.2117 195.691 41.3394 196.238 41.4642C196.784 41.5889 197.39 41.7612 197.96 41.9394C199.267 42.3258 200.491 42.951 201.569 43.7838C204.497 45.9489 205.112 49.6406 203 52.3641" stroke="#10173A" stroke-width="1.22661" stroke-miterlimit="10"/>
<path d="M192.537 50.2459C192.537 50.2726 192.537 50.2964 192.522 50.329C192.515 50.4288 192.501 50.528 192.481 50.626L192.415 51.3032C192.377 51.6691 192.442 52.0386 192.603 52.3691C192.765 52.6994 193.017 52.9777 193.329 53.1719C193.642 53.3659 194.003 53.468 194.371 53.4662C194.739 53.4648 195.098 53.3593 195.409 53.1624C195.633 53.024 195.826 52.8405 195.975 52.6237C196.124 52.4071 196.227 52.1618 196.276 51.9031C196.333 51.6507 196.38 51.3774 196.446 51.1191C196.683 50.1152 196.772 49.2183 197.521 48.4461C197.731 48.2278 197.983 48.0522 198.26 47.9293C198.33 47.8996 198.403 47.8764 198.477 47.861" stroke="#10173A" stroke-width="1.22661" stroke-miterlimit="10"/>
<path d="M184.598 48.471V48.3938C184.726 47.1093 185.065 45.8547 185.602 44.6813C185.935 43.9477 186.381 43.2711 186.924 42.6765C187.775 41.7169 188.927 41.0757 190.191 40.8589C190.556 40.8054 190.916 40.7698 191.284 40.752C192.394 40.7362 193.502 40.8559 194.584 41.1084C193.693 41.1767 192.166 42.1301 191.064 43.3299C190.623 43.7846 190.255 44.3044 189.971 44.8714C189.832 45.1684 189.674 45.4951 189.564 45.8099C189.451 46.0653 189.353 46.3237 189.267 46.5762C189.009 47.3068 188.786 48.0285 188.617 48.6938C188.54 48.9908 188.468 49.2878 188.412 49.5551C188.32 50.0502 188.049 50.4939 187.651 50.8022C187.253 51.1107 186.755 51.2619 186.253 51.2272C185.742 51.1675 185.274 50.9085 184.953 50.5064C184.632 50.1042 184.482 49.5916 184.536 49.0799L184.595 48.471" stroke="#10173A" stroke-width="1.22661" stroke-miterlimit="10"/>
<path d="M182.264 100.478C181.759 99.4649 181.432 98.3541 181.919 97.3859C183.021 95.1881 186.565 96.3524 188.638 95.0099C190.42 93.8665 190.238 92.5092 191.213 90.8163C192.35 88.8353 194.399 89.6283 195.965 90.6143C197.963 91.8647 202.329 96.2573 209.33 100.585C211.507 101.938 213.591 103.438 215.567 105.072C221.07 109.607 234.78 117.466 246.698 96.3256" stroke="#10173A" stroke-width="1.14048" stroke-miterlimit="10"/>
<path d="M198.783 109.447C197.806 108.452 196.743 107.401 195.371 107.151C193.906 106.881 192.445 107.573 190.963 107.644C187.313 107.81 184.604 104.41 182.724 101.276C182.57 101.024 182.427 100.754 182.276 100.483" stroke="#10173A" stroke-width="1.14048" stroke-miterlimit="10"/>
<path d="M190.075 104.597C190.075 104.597 186.585 106.471 185.1 104.544" stroke="#10173A" stroke-width="1.14048" stroke-miterlimit="10"/>
<path d="M183.03 101.803C183.03 101.803 185.867 103.733 187.857 102.123" stroke="#10173A" stroke-width="1.14048" stroke-miterlimit="10"/>
<path d="M181.714 99.2515C181.714 99.2515 184.183 100.763 185.243 99.6791" stroke="#10173A" stroke-width="1.14048" stroke-miterlimit="10"/>
</svg>
