<svg width="298" height="297" viewBox="0 0 298 297" fill="none" xmlns="http://www.w3.org/2000/svg">
<path d="M175.864 132.156L195.35 108.66L214.836 132.156V223.142" stroke="#CCDDE2" stroke-width="1.19097" stroke-miterlimit="10"/>
<g opacity="0.81">
<path opacity="0.81" d="M207.631 136.083H202.395V141.319H207.631V136.083Z" stroke="#CCDDE2" stroke-width="1.19097" stroke-miterlimit="10"/>
<path opacity="0.81" d="M197.729 136.083H192.493V141.319H197.729V136.083Z" stroke="#CCDDE2" stroke-width="1.19097" stroke-miterlimit="10"/>
<path opacity="0.81" d="M187.83 136.083H182.594V141.319H187.83V136.083Z" stroke="#CCDDE2" stroke-width="1.19097" stroke-miterlimit="10"/>
</g>
<g opacity="0.46">
<path opacity="0.46" d="M207.631 148.245H202.395V153.481H207.631V148.245Z" stroke="#CCDDE2" stroke-width="1.19097" stroke-miterlimit="10"/>
<path opacity="0.46" d="M197.729 148.245H192.493V153.481H197.729V148.245Z" stroke="#CCDDE2" stroke-width="1.19097" stroke-miterlimit="10"/>
<path opacity="0.46" d="M187.83 148.245H182.594V153.481H187.83V148.245Z" stroke="#CCDDE2" stroke-width="1.19097" stroke-miterlimit="10"/>
</g>
<g opacity="0.25">
<path opacity="0.25" d="M207.631 160.921H202.395V166.157H207.631V160.921Z" stroke="#CCDDE2" stroke-width="1.19097" stroke-miterlimit="10"/>
<path opacity="0.25" d="M197.729 160.921H192.493V166.157H197.729V160.921Z" stroke="#CCDDE2" stroke-width="1.19097" stroke-miterlimit="10"/>
<path opacity="0.25" d="M187.83 160.921H182.594V166.157H187.83V160.921Z" stroke="#CCDDE2" stroke-width="1.19097" stroke-miterlimit="10"/>
</g>
<g opacity="0.25">
<path opacity="0.25" d="M207.631 171.811H202.395V177.047H207.631V171.811Z" stroke="#CCDDE2" stroke-width="1.19097" stroke-miterlimit="10"/>
<path opacity="0.25" d="M197.729 171.811H192.493V177.047H197.729V171.811Z" stroke="#CCDDE2" stroke-width="1.19097" stroke-miterlimit="10"/>
<path opacity="0.25" d="M187.83 171.811H182.594V177.047H187.83V171.811Z" stroke="#CCDDE2" stroke-width="1.19097" stroke-miterlimit="10"/>
</g>
<path d="M222.086 208.88V98.4915H272.656V223.353" stroke="#CCDDE2" stroke-width="1.19097" stroke-miterlimit="10"/>
<path d="M227.111 108.661V115.12H233.571V103.264H227.111V108.661ZM228.171 104.324H232.507V108.661H228.171V104.324ZM228.171 109.724H232.507V114.048H228.171V109.724Z" fill="#D7E8F0"/>
<path d="M238.504 108.661V115.12H244.961V103.264H238.504V108.661ZM239.564 104.324H243.9V108.661H239.564V104.324ZM239.564 109.724H243.9V114.048H239.564V109.724Z" fill="#D7E8F0"/>
<path d="M249.582 108.661V115.12H256.039V103.264H249.582V108.661ZM250.642 104.324H254.979V108.661H250.642V104.324ZM250.642 109.724H254.979V114.048H250.642V109.724Z" fill="#D7E8F0"/>
<path d="M260.01 103.264V115.12H266.466V103.264H260.01ZM265.406 114.048H261.07V109.724H265.406V114.048ZM265.406 108.652H261.07V104.316H265.406V108.652Z" fill="#D7E8F0"/>
<path d="M227.111 124.61V131.069H233.571V119.213H227.111V124.61ZM228.171 120.273H232.507V124.61H228.171V120.273ZM228.171 125.67H232.507V130.009H228.171V125.67Z" fill="#D7E8F0"/>
<path d="M238.504 124.61V131.069H244.961V119.213H238.504V124.61ZM239.564 120.273H243.9V124.61H239.564V120.273ZM239.564 125.67H243.9V130.009H239.564V125.67Z" fill="#D7E8F0"/>
<path d="M249.582 124.61V131.069H256.039V119.213H249.582V124.61ZM250.642 120.273H254.979V124.61H250.642V120.273ZM250.642 125.67H254.979V130.009H250.642V125.67Z" fill="#D7E8F0"/>
<path d="M260.01 124.61V131.069H266.466V119.213H260.01V124.61ZM261.07 120.273H265.406V124.61H261.07V120.273ZM261.07 125.67H265.406V130.009H261.07V125.67Z" fill="#D7E8F0"/>
<path d="M227.111 140.558V147.015H233.571V135.162H227.111V140.558ZM228.171 136.222H232.507V140.558H228.171V136.222ZM228.171 141.621H232.507V145.958H228.171V141.621Z" fill="#D7E8F0"/>
<path d="M238.504 140.558V147.015H244.961V135.162H238.504V140.558ZM239.564 136.222H243.9V140.558H239.564V136.222ZM239.564 141.621H243.9V145.958H239.564V141.621Z" fill="#D7E8F0"/>
<path d="M249.582 140.558V147.015H256.039V135.162H249.582V140.558ZM250.642 136.222H254.979V140.558H250.642V136.222ZM250.642 141.621H254.979V145.958H250.642V141.621Z" fill="#D7E8F0"/>
<path d="M260.01 140.558V147.015H266.466V135.162H260.01V140.558ZM261.07 136.222H265.406V140.558H261.07V136.222ZM261.07 141.621H265.406V145.958H261.07V141.621Z" fill="#D7E8F0"/>
<path d="M227.111 156.519V162.976H233.571V151.11H227.111V156.519ZM228.171 152.183H232.507V156.519H228.171V152.183ZM228.171 157.579H232.507V161.915H228.171V157.579Z" fill="#D7E8F0"/>
<path d="M238.504 156.519V162.976H244.961V151.11H238.504V156.519ZM239.564 152.183H243.9V156.519H239.564V152.183ZM239.564 157.579H243.9V161.915H239.564V157.579Z" fill="#D7E8F0"/>
<path d="M249.582 156.519V162.976H256.039V151.11H249.582V156.519ZM250.642 152.183H254.979V156.519H250.642V152.183ZM250.642 157.579H254.979V161.915H250.642V157.579Z" fill="#D7E8F0"/>
<path d="M260.01 156.519V162.976H266.466V151.11H260.01V156.519ZM261.07 152.183H265.406V156.519H261.07V152.183ZM261.07 157.579H265.406V161.915H261.07V157.579Z" fill="#D7E8F0"/>
<path d="M227.111 172.455V178.915H233.571V167.059H227.111V172.455ZM228.171 168.122H232.507V172.455H228.171V168.122ZM228.171 173.519H232.507V177.855H228.171V173.519Z" fill="#D7E8F0"/>
<path d="M238.504 172.455V178.915H244.961V167.059H238.504V172.455ZM239.564 168.122H243.9V172.455H239.564V168.122ZM239.564 173.519H243.9V177.855H239.564V173.519Z" fill="#D7E8F0"/>
<path d="M249.582 172.455V178.915H256.039V167.059H249.582V172.455ZM250.642 168.122H254.979V172.455H250.642V168.122ZM250.642 173.519H254.979V177.855H250.642V173.519Z" fill="#D7E8F0"/>
<path d="M260.01 172.455V178.915H266.466V167.059H260.01V172.455ZM261.07 168.122H265.406V172.455H261.07V168.122ZM261.07 173.519H265.406V177.855H261.07V173.519Z" fill="#D7E8F0"/>
<path d="M106.336 223.386V173.403C106.336 166.436 103.901 159.687 99.4515 154.324C98.6668 153.379 97.6837 152.617 96.5715 152.095C95.4592 151.572 94.2456 151.302 93.017 151.302C91.7883 151.302 90.5747 151.572 89.4625 152.095C88.3502 152.617 87.3668 153.379 86.5825 154.324C82.1334 159.687 79.6983 166.436 79.698 173.403V223.478" stroke="#CCDDE2" stroke-width="1.19097" stroke-miterlimit="10"/>
<g opacity="0.81">
<path opacity="0.81" d="M84.6252 168.88H88.2041V165.302H84.6252V168.88Z" stroke="#CCDDE2" stroke-width="1.19097" stroke-miterlimit="10"/>
<path opacity="0.81" d="M91.3879 168.88H94.9667V165.302H91.3879V168.88Z" stroke="#CCDDE2" stroke-width="1.19097" stroke-miterlimit="10"/>
<path opacity="0.81" d="M98.1536 168.88H101.732V165.302H98.1536V168.88Z" stroke="#CCDDE2" stroke-width="1.19097" stroke-miterlimit="10"/>
</g>
<g opacity="0.46">
<path opacity="0.46" d="M84.6252 177.193H88.2041V173.614H84.6252V177.193Z" stroke="#CCDDE2" stroke-width="1.19097" stroke-miterlimit="10"/>
<path opacity="0.46" d="M91.3879 177.193H94.9667V173.614H91.3879V177.193Z" stroke="#CCDDE2" stroke-width="1.19097" stroke-miterlimit="10"/>
<path opacity="0.46" d="M98.1536 177.193H101.732V173.614H98.1536V177.193Z" stroke="#CCDDE2" stroke-width="1.19097" stroke-miterlimit="10"/>
</g>
<g opacity="0.25">
<path opacity="0.25" d="M84.6252 185.857H88.2041V182.278H84.6252V185.857Z" stroke="#CCDDE2" stroke-width="1.19097" stroke-miterlimit="10"/>
<path opacity="0.25" d="M91.3879 185.857H94.9667V182.278H91.3879V185.857Z" stroke="#CCDDE2" stroke-width="1.19097" stroke-miterlimit="10"/>
<path opacity="0.25" d="M98.1536 185.857H101.732V182.278H98.1536V185.857Z" stroke="#CCDDE2" stroke-width="1.19097" stroke-miterlimit="10"/>
</g>
<g opacity="0.25">
<path opacity="0.25" d="M84.6252 193.3H88.2041V189.721H84.6252V193.3Z" stroke="#CCDDE2" stroke-width="1.19097" stroke-miterlimit="10"/>
<path opacity="0.25" d="M91.3879 193.3H94.9667V189.721H91.3879V193.3Z" stroke="#CCDDE2" stroke-width="1.19097" stroke-miterlimit="10"/>
<path opacity="0.25" d="M98.1536 193.3H101.732V189.721H98.1536V193.3Z" stroke="#CCDDE2" stroke-width="1.19097" stroke-miterlimit="10"/>
</g>
<path d="M40.1821 223.614V139.611H74.747V223.496" stroke="#CCDDE2" stroke-width="1.19097" stroke-miterlimit="10"/>
<path d="M71.3107 146.561V150.974H66.8973V142.872H71.3107V146.561ZM70.583 143.591H67.622V146.561H70.592L70.583 143.591ZM70.583 147.28H67.622V150.25H70.592L70.583 147.28Z" fill="#D7E8F0"/>
<path d="M63.5233 146.561V150.974H59.1099V142.872H63.5233V146.561ZM62.7987 143.591H59.8287V146.561H62.7987V143.591ZM62.7987 147.28H59.8287V150.25H62.7987V147.28Z" fill="#D7E8F0"/>
<path d="M55.9529 146.561V150.974H51.5394V142.872H55.9529V146.561ZM55.2282 143.591H52.2582V146.561H55.2282V143.591ZM55.2282 147.28H52.2582V150.25H55.2282V147.28Z" fill="#D7E8F0"/>
<path d="M48.8249 142.872V150.974H44.4114V142.872H48.8249ZM45.1361 150.25H48.1061V147.28H45.1361V150.25ZM45.1361 146.561H48.1061V143.591H45.1361V146.561Z" fill="#D7E8F0"/>
<path d="M71.3107 157.461V161.866H66.8973V153.775H71.3107V157.461ZM70.583 154.491H67.622V157.461H70.592L70.583 154.491ZM70.583 158.18H67.622V161.15H70.592L70.583 158.18Z" fill="#D7E8F0"/>
<path d="M63.5233 157.461V161.866H59.1099V153.775H63.5233V157.461ZM62.7987 154.491H59.8287V157.461H62.7987V154.491ZM62.7987 158.18H59.8287V161.15H62.7987V158.18Z" fill="#D7E8F0"/>
<path d="M55.9529 157.461V161.866H51.5394V153.775H55.9529V157.461ZM55.2282 154.491H52.2582V157.461H55.2282V154.491ZM55.2282 158.18H52.2582V161.15H55.2282V158.18Z" fill="#D7E8F0"/>
<path d="M48.8249 157.461V161.866H44.4114V153.775H48.8249V157.461ZM48.1002 154.491H45.1302V157.461H48.1002V154.491ZM48.1002 158.18H45.1302V161.15H48.1002V158.18Z" fill="#D7E8F0"/>
<path d="M71.3107 168.364V172.777H66.8973V164.675H71.3107V168.364ZM70.583 165.394H67.622V168.364H70.592L70.583 165.394ZM70.583 169.082H67.622V172.052H70.592L70.583 169.082Z" fill="#D7E8F0"/>
<path d="M63.5233 168.364V172.777H59.1099V164.675H63.5233V168.364ZM62.7987 165.394H59.8287V168.364H62.7987V165.394ZM62.7987 169.082H59.8287V172.052H62.7987V169.082Z" fill="#D7E8F0"/>
<path d="M55.9529 168.364V172.777H51.5394V164.675H55.9529V168.364ZM55.2282 165.394H52.2582V168.364H55.2282V165.394ZM55.2282 169.082H52.2582V172.052H55.2282V169.082Z" fill="#D7E8F0"/>
<path d="M48.8249 168.364V172.777H44.4114V164.675H48.8249V168.364ZM48.1002 165.394H45.1302V168.364H48.1002V165.394ZM48.1002 169.082H45.1302V172.052H48.1002V169.082Z" fill="#D7E8F0"/>
<path d="M71.3107 179.263V183.677H66.8973V175.575H71.3107V179.263ZM70.583 176.293H67.622V179.263H70.592L70.583 176.293ZM70.592 179.982H67.622V182.952H70.592V179.982Z" fill="#D7E8F0"/>
<path d="M63.5233 179.263V183.677H59.1099V175.575H63.5233V179.263ZM62.7987 176.293H59.8287V179.263H62.7987V176.293ZM62.7987 179.982H59.8287V182.952H62.7987V179.982Z" fill="#D7E8F0"/>
<path d="M55.9529 179.263V183.677H51.5394V175.575H55.9529V179.263ZM55.2282 176.293H52.2582V179.263H55.2282V176.293ZM55.2282 179.982H52.2582V182.952H55.2282V179.982Z" fill="#D7E8F0"/>
<path d="M48.8249 179.263V183.677H44.4114V175.575H48.8249V179.263ZM48.1002 176.293H45.1302V179.263H48.1002V176.293ZM48.1002 179.982H45.1302V182.952H48.1002V179.982Z" fill="#D7E8F0"/>
<path d="M71.3107 190.163V194.576H66.8973V186.474H71.3107V190.163ZM70.583 187.193H67.622V190.163H70.592L70.583 187.193ZM70.583 190.882H67.622V193.852H70.592L70.583 190.882Z" fill="#D7E8F0"/>
<path d="M63.5233 190.163V194.576H59.1099V186.474H63.5233V190.163ZM62.7987 187.193H59.8287V190.163H62.7987V187.193ZM62.7987 190.882H59.8287V193.852H62.7987V190.882Z" fill="#D7E8F0"/>
<path d="M55.9529 190.163V194.576H51.5394V186.474H55.9529V190.163ZM55.2282 187.193H52.2582V190.163H55.2282V187.193ZM55.2282 190.882H52.2582V193.852H55.2282V190.882Z" fill="#D7E8F0"/>
<path d="M48.8249 190.163V194.576H44.4114V186.474H48.8249V190.163ZM48.1002 187.193H45.1302V190.163H48.1002V187.193ZM48.1002 190.882H45.1302V193.852H48.1002V190.882Z" fill="#D7E8F0"/>
<path d="M130.01 131.883C130.01 131.883 129.169 143.318 116.502 142.26C116.502 142.26 120.939 153.638 124.123 155.652L140.12 165.777L143.951 147.865L130.01 131.883Z" fill="#233380"/>
<path d="M116.449 174.933L82.9293 223.472L45.9647 223.6V222.922C45.9656 221.342 46.5664 219.821 47.646 218.666C48.7256 217.512 50.2032 216.81 51.78 216.703L61.979 216.023L91.7205 162.332C93.1251 159.717 95.0567 157.422 97.3935 155.592C99.7303 153.762 102.421 152.437 105.297 151.701C108.172 150.965 111.169 150.833 114.097 151.314C117.026 151.795 119.823 152.879 122.312 154.497L122.567 154.663L139.686 165.486L127.539 194.758L112.116 181.227" fill="#F9FAFF"/>
<path d="M229.811 203.205C226.725 211.794 221.079 213.187 214.477 212.745C211.023 208.218 206.93 202.053 203.621 197.446C199.776 192.07 195.925 186.702 192.068 181.343C191.085 179.965 190.102 178.596 189.098 177.217V197.868C189.102 198.934 189.031 199.999 188.887 201.055C170.075 217.131 143.206 196.959 139.541 194.045C139.264 193.835 139.128 193.716 139.128 193.716C137.372 180.995 139.267 171.375 139.671 164.102C140.224 154.384 142.023 151.295 143.621 148.307L144.284 146.632C145.525 144.319 145.472 143.743 145.638 143.633L145.587 143.208C145.587 143.208 146.232 142.483 146.232 142.466C149.861 136.475 152.656 131.477 158.664 127.874C156.585 129.406 155.148 133.119 157.352 135.147C159.915 137.509 163.404 134.717 165.507 133.068C168.195 131.04 170.553 128.608 172.499 125.86C173.113 124.969 173.886 124.022 173.767 122.89C178.121 122.828 181.804 124.375 186.294 126.971C191.973 130.259 196.499 135.219 199.588 141.016L229.811 203.205Z" fill="#233380"/>
<path d="M175.552 111.155V111.238C175.552 112.971 174.863 114.633 173.638 115.858C172.413 117.084 170.751 117.772 169.018 117.772C167.907 117.777 166.815 117.491 165.849 116.943C165.571 116.799 165.306 116.63 165.059 116.439C164.957 116.356 164.877 116.249 164.826 116.129C164.774 116.008 164.753 115.877 164.762 115.747C164.772 115.616 164.813 115.49 164.883 115.379C164.952 115.267 165.047 115.174 165.16 115.108C166.499 114.3 167.759 113.124 168.21 111.663C168.348 111.214 168.394 110.743 168.347 110.276C168.307 109.679 168.112 109.104 167.78 108.607C167.448 108.11 166.99 107.71 166.455 107.445C166.286 107.382 166.111 107.338 165.932 107.318C165.427 107.234 164.744 107.243 164.59 107.615C165.386 105.845 165.577 103.861 165.133 101.972C164.857 100.799 164.316 99.7052 163.553 98.773C163.564 99.1092 163.501 99.4433 163.368 99.7522C163.235 100.061 163.035 100.337 162.783 100.559C162.531 100.782 162.233 100.946 161.91 101.041C161.587 101.135 161.248 101.157 160.916 101.104C158.335 100.807 158.05 98.2948 158.05 98.2948C158.05 98.2948 158.032 98.3215 158.032 98.3393C156.671 101.06 153.375 100.867 151.124 99.4234C150.326 98.9277 149.644 98.2675 149.122 97.4869C148.688 94.5466 151.299 91.9568 154.073 91.7816C154.284 89.955 155.781 88.0988 157.598 88.0988C158.23 88.097 158.851 88.2648 159.395 88.5844C159.94 88.9039 160.389 89.364 160.696 89.9164C160.744 90.0028 160.786 90.0922 160.824 90.1837C161.649 89.1739 162.956 88.1047 164.251 88.1047C165.158 88.1059 166.043 88.3898 166.781 88.9167C167.52 89.4436 168.077 90.1876 168.373 91.045C168.373 90.9143 169.561 90.4926 169.677 90.451C170.159 90.3108 170.66 90.2428 171.162 90.249C172.038 90.2719 172.893 90.5143 173.651 90.9538C174.409 91.3934 175.044 92.0159 175.498 92.7646C175.544 93.0254 175.566 93.2897 175.564 93.5547C175.564 94.3462 175.378 95.1267 175.02 95.8327C175.428 95.9841 175.803 96.2119 176.125 96.5039C176.818 97.1092 177.244 97.9624 177.313 98.8799C177.313 98.9719 177.313 99.064 177.313 99.1561C177.314 99.8493 177.107 100.527 176.719 101.101C177.146 101.263 177.551 101.48 177.922 101.746C179.028 102.543 179.775 103.745 180.001 105.09C180.051 105.384 180.075 105.683 180.075 105.981C180.075 107.245 179.617 108.466 178.785 109.417C177.953 110.368 176.804 110.986 175.552 111.155Z" fill="#1FD45D"/>
<path d="M175.552 111.155V111.238C175.552 112.971 174.863 114.633 173.638 115.858C172.413 117.084 170.751 117.772 169.018 117.772C167.907 117.777 166.815 117.491 165.849 116.943C167.188 116.136 168.448 114.959 168.899 113.501C169.06 112.957 169.094 112.383 168.998 111.824C168.903 111.265 168.68 110.735 168.347 110.276C168.307 109.679 168.112 109.104 167.78 108.607C167.448 108.11 166.99 107.71 166.455 107.445C166.286 107.382 166.111 107.338 165.932 107.318C166.254 105.496 165.974 103.619 165.133 101.972C164.857 100.799 164.316 99.7052 163.553 98.773C163.564 99.1092 163.501 99.4433 163.368 99.7522C163.235 100.061 163.035 100.337 162.783 100.559C162.531 100.782 162.233 100.946 161.91 101.041C161.587 101.135 161.248 101.157 160.916 101.104C158.335 100.807 158.05 98.2948 158.05 98.2948C158.05 98.2948 158.032 98.3215 158.032 98.3393C156.671 101.06 153.375 100.867 151.124 99.4234C150.326 98.9277 149.644 98.2675 149.122 97.4869C148.688 94.5466 151.299 91.9568 154.073 91.7816C154.284 89.955 155.781 88.0988 157.598 88.0988C158.23 88.097 158.851 88.2648 159.395 88.5844C159.94 88.9039 160.389 89.364 160.696 89.9164C160.744 90.0028 160.786 90.0922 160.824 90.1837C161.649 89.1739 162.956 88.1047 164.251 88.1047C165.158 88.1059 166.043 88.3898 166.781 88.9167C167.52 89.4436 168.077 90.1876 168.373 91.045C168.373 90.9143 169.561 90.4926 169.677 90.451C170.159 90.3108 170.66 90.2428 171.162 90.249C172.038 90.2719 172.893 90.5143 173.651 90.9538C174.409 91.3934 175.044 92.0159 175.498 92.7646C175.544 93.0254 175.566 93.2897 175.564 93.5547C175.564 94.3462 175.378 95.1267 175.02 95.8327C175.428 95.9841 175.803 96.2119 176.125 96.5039C176.037 96.9093 175.898 97.3016 175.709 97.6711C176.348 97.9131 176.906 98.3301 177.319 98.8739C177.319 98.966 177.319 99.0581 177.319 99.1501C177.32 99.8433 177.113 100.521 176.725 101.095C177.152 101.257 177.557 101.474 177.928 101.74C177.828 102.163 177.654 102.565 177.414 102.928C178.501 103.33 179.42 104.088 180.022 105.078C180.072 105.373 180.096 105.671 180.096 105.969C180.098 107.238 179.638 108.464 178.802 109.419C177.965 110.373 176.81 110.99 175.552 111.155Z" fill="#1FD45D"/>
<path d="M158.682 284.271H116.449V283.454C116.448 281.839 117.073 280.287 118.193 279.124C119.313 277.96 120.841 277.277 122.454 277.217L132.421 276.804H155.956L158.682 284.271Z" fill="#1FD45D"/>
<path d="M82.9293 223.472L45.9647 223.38V222.563C45.9635 220.947 46.5893 219.395 47.7099 218.231C48.8305 217.068 50.3588 216.385 51.973 216.326L61.9403 215.919L87.8655 216.332L82.9293 223.472Z" fill="#1FD45D"/>
<path d="M144.105 223.261H163.707C169.883 223.244 175.841 220.984 180.475 216.902C185.108 212.82 188.101 207.193 188.896 201.069C189.04 200.012 189.11 198.946 189.107 197.879V177.223" stroke="#10173A" stroke-width="1.19097" stroke-miterlimit="10"/>
<path d="M151.225 193.644L139.734 194.039H139.541L132.285 194.185C130.686 194.217 129.095 194.405 127.533 194.746C114.581 197.547 106.303 210.526 109.068 223.368C109.476 225.281 110.114 227.138 110.969 228.898L132.421 276.804L122.454 277.208C120.841 277.268 119.313 277.951 118.193 279.115C117.073 280.278 116.448 281.83 116.449 283.445V284.262H158.682L155.956 276.804L136.33 223.187" stroke="#10173A" stroke-width="1.19097" stroke-miterlimit="10"/>
<path d="M116.449 174.945L82.9293 223.471" stroke="#10173A" stroke-width="1.19097" stroke-miterlimit="10"/>
<path d="M127.527 194.758L112.104 181.227" stroke="#10173A" stroke-width="1.19097" stroke-miterlimit="10"/>
<path d="M159.995 223.241L159.897 223.152" stroke="#10173A" stroke-width="1.19097" stroke-miterlimit="10"/>
<path d="M122.555 154.663L112.543 134.152" stroke="#10173A" stroke-width="1.19097" stroke-miterlimit="10"/>
<path d="M244.248 223.186C244.248 223.204 244.266 223.213 244.275 223.234H235.798" stroke="#10173A" stroke-width="1.19097" stroke-miterlimit="10"/>
<path d="M146.382 223.276C146.382 223.233 146.356 223.186 146.348 223.152" stroke="#10173A" stroke-width="1.19097" stroke-miterlimit="10"/>
<path d="M173.77 123.16C176.917 123.076 180.041 123.719 182.9 125.037C189.566 128.141 195.115 133.222 198.792 139.59C202.843 146.656 206.122 154.28 209.722 161.568C214.232 170.728 218.748 179.883 223.271 189.035C225.449 193.452 227.627 197.871 229.805 202.29L234.426 211.648C235.376 213.212 236.714 214.503 238.311 215.397C239.906 216.286 241.702 216.754 243.529 216.757C245.359 216.757 247.151 217.28 248.694 218.264C250.237 219.248 251.466 220.653 252.237 222.314L252.641 223.187H241.495" stroke="#10173A" stroke-width="1.19097" stroke-miterlimit="10"/>
<path d="M139.737 194.045C138.427 185.646 138.703 177.19 139.365 168.744C140.553 153.647 145.145 138.521 157.456 128.756C157.773 128.503 158.094 128.254 158.427 128.022" stroke="#10173A" stroke-width="1.19097" stroke-miterlimit="10"/>
<path d="M170.203 143.208C169.971 152.1 177.56 161.111 177.56 161.111C177.56 161.111 177.577 161.128 177.577 161.137C181.426 166.483 185.27 171.845 189.107 177.223C190.099 178.601 191.082 179.97 192.077 181.345C195.936 186.711 199.787 192.079 203.63 197.449C206.915 202.07 210.013 206.92 213.467 211.464C214.358 212.628 215.267 213.769 216.223 214.88C217.444 216.305 218.703 217.93 220.191 219.079C221.679 220.229 223.404 221.301 224.943 222.512C226.232 223.594 227.336 224.879 228.21 226.317C229.166 227.951 229.267 229.798 230.084 231.431C231.516 234.318 235.053 233.84 236.265 231.084C237.946 227.261 234.272 218.996 234.272 218.996" stroke="#10173A" stroke-width="1.19097" stroke-miterlimit="10"/>
<path d="M282.65 223.234H235.798" stroke="#10173A" stroke-width="1.19097" stroke-miterlimit="10"/>
<path d="M139.674 165.486L122.567 154.663L122.312 154.497C119.823 152.879 117.026 151.795 114.097 151.314C111.169 150.833 108.172 150.965 105.297 151.701C102.421 152.437 99.7303 153.762 97.3935 155.592C95.0567 157.422 93.1251 159.717 91.7206 162.332L61.979 216.023L51.7741 216.703C50.1973 216.81 48.7197 217.512 47.6401 218.666C46.5605 219.821 45.9597 221.342 45.9588 222.922V223.6" stroke="#10173A" stroke-width="1.19097" stroke-miterlimit="10"/>
<path d="M108.29 118.04C109.704 118.316 110.238 118.224 111.26 118.426C111.338 118.438 111.418 118.425 111.488 118.388C111.558 118.35 111.614 118.292 111.647 118.22C111.681 118.148 111.69 118.068 111.674 117.99C111.658 117.913 111.617 117.843 111.557 117.791L108.177 114.524C107.252 113.735 106.613 112.663 106.36 111.473L106.33 111.355C106.446 110.95 106.669 110.585 106.974 110.296C107.28 110.007 107.658 109.806 108.067 109.712C108.786 109.596 109.523 109.691 110.188 109.985C111.29 110.419 112.769 110.805 114.177 111.289C116.124 111.976 117.76 113.338 118.786 115.129L118.917 115.361C122.963 122.393 127.593 129.072 132.757 135.328L143.746 148.833" stroke="#10173A" stroke-width="1.19097" stroke-miterlimit="10"/>
<path d="M110.045 135.537C109.416 135.537 108.802 135.335 108.296 134.96C107.789 134.586 107.415 134.06 107.23 133.458L104.402 124.741L101.908 116.505L98.6555 105.902C98.5296 105.491 98.5035 105.055 98.5795 104.632C98.6558 104.209 98.8319 103.81 99.0933 103.469C99.3549 103.127 99.6941 102.853 100.083 102.669C100.472 102.485 100.899 102.397 101.329 102.412C101.884 102.428 102.421 102.616 102.866 102.949C103.312 103.283 103.643 103.745 103.814 104.274L108.296 118.04L112.855 131.676C112.999 132.118 113.036 132.589 112.963 133.049C112.89 133.51 112.709 133.946 112.435 134.322C112.161 134.699 111.802 135.005 111.386 135.217C110.971 135.428 110.511 135.537 110.045 135.537Z" fill="#1FD45D"/>
<path d="M110.045 135.537C109.416 135.537 108.802 135.335 108.296 134.96C107.789 134.586 107.415 134.06 107.23 133.458L104.402 124.741L101.908 116.505L98.6555 105.902C98.5296 105.491 98.5035 105.055 98.5795 104.632C98.6558 104.209 98.8319 103.81 99.0933 103.469C99.3549 103.127 99.6941 102.853 100.083 102.669C100.472 102.485 100.899 102.397 101.329 102.412C101.884 102.428 102.421 102.616 102.866 102.949C103.312 103.283 103.643 103.745 103.814 104.274L108.296 118.04L112.855 131.676C112.999 132.118 113.036 132.589 112.963 133.049C112.89 133.51 112.709 133.946 112.435 134.322C112.161 134.699 111.802 135.005 111.386 135.217C110.971 135.428 110.511 135.537 110.045 135.537Z" stroke="#10173A" stroke-width="1.19097" stroke-miterlimit="10"/>
<path d="M98.4892 122.192C97.7826 122.164 97.0983 121.937 96.5141 121.539C96.1951 121.302 95.9269 121.003 95.7256 120.661C95.5239 120.319 95.3932 119.939 95.341 119.545C95.2884 119.152 95.3157 118.751 95.4209 118.368C95.526 117.985 95.7069 117.627 95.9528 117.315C96.395 116.77 96.9911 116.371 97.6635 116.169C98.5239 115.886 99.4541 115.899 100.307 116.205C101.214 116.598 101.958 117.294 102.41 118.174" stroke="#10173A" stroke-width="1.19097" stroke-miterlimit="10"/>
<path d="M100.244 127.858C99.5347 127.852 98.8412 127.646 98.2427 127.264C97.9181 127.035 97.6425 126.743 97.4325 126.406C97.2228 126.069 97.0826 125.693 97.0205 125.3C96.9585 124.908 96.9757 124.507 97.0716 124.122C97.1673 123.736 97.3392 123.373 97.5774 123.055C98.0075 122.499 98.5955 122.085 99.2644 121.867C100.116 121.564 101.044 121.553 101.902 121.838C102.754 122.135 103.595 122.663 104.007 123.45" stroke="#10173A" stroke-width="1.19097" stroke-miterlimit="10"/>
<path d="M105.638 128.571C105.128 127.895 104.404 127.412 103.584 127.202C102.763 126.992 101.896 127.066 101.124 127.413C100.535 127.666 100.036 128.089 99.689 128.628C99.4983 128.934 99.3706 129.276 99.3139 129.632C99.2575 129.989 99.2726 130.353 99.359 130.703C99.4455 131.054 99.6011 131.383 99.817 131.673C100.033 131.962 100.304 132.205 100.616 132.388L101.02 132.605C101.02 132.605 103.443 133.579 107.485 134.045" stroke="#10173A" stroke-width="1.19097" stroke-miterlimit="10"/>
<path d="M132.617 223.288C133.737 223.288 145.255 223.288 146.383 223.288C150.904 223.27 155.451 223.262 159.998 223.253C182.51 223.196 205.106 223.161 225.635 223.152" stroke="#10173A" stroke-width="1.19097" stroke-miterlimit="10"/>
<path d="M235.769 223.142C242.623 223.142 246.434 223.142 252.626 223.142C262.724 223.16 271.824 223.187 279.54 223.225" stroke="#10173A" stroke-width="1.19097" stroke-miterlimit="10"/>
<path d="M15.35 223.721C15.8905 223.721 57.4111 223.537 109.062 223.38" stroke="#10173A" stroke-width="1.19097" stroke-miterlimit="10"/>
<path d="M173.77 122.893C173.889 124.033 173.116 124.99 172.502 125.863C170.556 128.611 168.198 131.042 165.51 133.071C163.407 134.708 159.918 137.499 157.355 135.15C155.151 133.122 156.573 129.409 158.667 127.877L158.694 127.859" stroke="#10173A" stroke-width="1.19097" stroke-miterlimit="10"/>
<path d="M153.191 103.386C153.191 103.386 156.915 103.746 157.509 106.95" stroke="#10173A" stroke-width="1.19097" stroke-miterlimit="10"/>
<path d="M151.456 112.729C150.59 112.868 149.706 112.839 148.851 112.643C148.69 112.603 148.541 112.525 148.417 112.415C148.293 112.305 148.197 112.166 148.139 112.011C148.08 111.856 148.061 111.688 148.081 111.524C148.102 111.359 148.162 111.202 148.257 111.066C149.148 109.815 150.039 108.58 151.023 107.404C151.174 107.256 151.278 107.065 151.32 106.857C151.32 106.857 151.281 102.94 152.312 100.026" stroke="#10173A" stroke-width="1.19097" stroke-miterlimit="10"/>
<path d="M154.894 106.861C155.025 106.24 154.702 105.646 154.174 105.535C153.646 105.424 153.112 105.837 152.982 106.459C152.851 107.08 153.173 107.674 153.701 107.785C154.23 107.896 154.764 107.482 154.894 106.861Z" fill="#10173A"/>
<path d="M173.77 123.16C172.401 119.189 171.771 117.161 171.771 117.161" stroke="#10173A" stroke-width="1.19097" stroke-linecap="round" stroke-linejoin="round"/>
<path d="M158.697 121.833L158.676 135.536" stroke="#10173A" stroke-width="1.19097" stroke-miterlimit="10"/>
<path d="M150.09 112.816C150.09 112.816 151.046 120.698 154.872 122.192C158.697 123.686 162.496 119.077 162.496 119.077" stroke="#10173A" stroke-width="1.19097" stroke-linecap="round" stroke-linejoin="round"/>
<path d="M150.874 116.401C151.37 116.748 151.944 116.965 152.545 117.034C153.146 117.103 153.755 117.021 154.316 116.796" stroke="#10173A" stroke-width="1.19097" stroke-linecap="round" stroke-linejoin="round"/>
<path d="M160.467 89.8065C160.468 89.2013 160.311 88.6064 160.01 88.081C159.62 87.4059 159.019 86.8772 158.3 86.5761C157.581 86.2749 156.783 86.2179 156.028 86.4136C155.273 86.6093 154.604 87.0474 154.122 87.6601C153.64 88.2731 153.372 89.0269 153.36 89.8065" stroke="#10173A" stroke-width="1.19097" stroke-miterlimit="10" stroke-linecap="round"/>
<path d="M158.504 95.0396C158.5 94.1822 158.287 93.339 157.884 92.5826C157.48 91.8264 156.898 91.1804 156.187 90.7005C152.623 88.3007 147.488 91.9657 148.507 96.097C148.863 97.5374 149.9 98.6452 151.121 99.4263C153.369 100.87 156.668 101.069 158.023 98.3453L158.044 98.3007C158.044 98.3007 158.341 100.807 160.91 101.11C161.242 101.161 161.581 101.139 161.904 101.044C162.226 100.95 162.524 100.785 162.776 100.563C163.028 100.34 163.227 100.065 163.361 99.7569C163.495 99.4486 163.559 99.1148 163.55 98.7789C165.59 101.253 165.893 104.719 164.592 107.615C164.827 107.092 166.11 107.297 166.458 107.451C168.008 108.137 168.703 110.089 168.216 111.663C167.761 113.13 166.502 114.297 165.169 115.114C165.056 115.18 164.96 115.272 164.891 115.383C164.821 115.494 164.78 115.62 164.77 115.75C164.759 115.881 164.781 116.012 164.832 116.132C164.884 116.253 164.963 116.359 165.065 116.441C166.033 117.177 167.188 117.628 168.399 117.744C169.61 117.859 170.829 117.634 171.919 117.093C173.009 116.553 173.927 115.719 174.569 114.686C175.21 113.652 175.551 112.46 175.552 111.244V111.161C176.708 111.016 177.782 110.488 178.603 109.662C179.423 108.835 179.944 107.757 180.081 106.601C180.217 105.444 179.963 104.275 179.357 103.279C178.752 102.284 177.83 101.52 176.74 101.11C177.128 100.536 177.335 99.8582 177.334 99.165C177.334 98.2196 176.958 97.3132 176.29 96.6449C175.622 95.9764 174.715 95.601 173.77 95.601" stroke="#10173A" stroke-width="1.19097" stroke-linecap="round" stroke-linejoin="round"/>
<path d="M160.467 87.9747C161.266 86.8728 162.104 86.261 163.565 86.261C164.474 86.2619 165.36 86.5464 166.099 87.0751C166.838 87.604 167.393 88.3504 167.687 89.2102C167.649 89.0914 168.875 88.6518 168.997 88.6162C169.479 88.4769 169.98 88.4089 170.482 88.4142C171.829 88.4517 173.109 89.0068 174.057 89.9646C175.004 90.9221 175.546 92.2084 175.57 93.5553C175.569 94.3468 175.383 95.127 175.026 95.8333" stroke="#10173A" stroke-width="1.19097" stroke-linecap="square" stroke-linejoin="round"/>
<path d="M175.552 111.155V111.238C175.552 112.971 174.863 114.633 173.638 115.858C172.413 117.084 170.751 117.772 169.018 117.772C167.907 117.777 166.815 117.491 165.849 116.943C165.571 116.799 165.306 116.63 165.059 116.439C164.957 116.356 164.877 116.249 164.826 116.129C164.774 116.008 164.753 115.877 164.762 115.747C164.772 115.616 164.813 115.49 164.883 115.379C164.952 115.267 165.047 115.174 165.16 115.108C166.499 114.3 167.759 113.124 168.21 111.663C168.348 111.214 168.394 110.743 168.347 110.276C168.307 109.679 168.112 109.104 167.78 108.607C167.448 108.11 166.99 107.71 166.455 107.445C166.286 107.382 166.111 107.338 165.932 107.318C165.427 107.234 164.744 107.243 164.59 107.615C165.386 105.845 165.577 103.861 165.133 101.972C164.857 100.799 164.316 99.7052 163.553 98.773C163.564 99.1092 163.501 99.4433 163.368 99.7522C163.235 100.061 163.035 100.337 162.783 100.559C162.531 100.782 162.233 100.946 161.91 101.041C161.587 101.135 161.248 101.157 160.916 101.104C158.335 100.807 158.05 98.2948 158.05 98.2948C158.05 98.2948 158.032 98.3215 158.032 98.3393C156.671 101.06 153.375 100.867 151.124 99.4234C150.326 98.9277 149.644 98.2675 149.122 97.4869C148.688 94.5466 151.299 91.9568 154.073 91.7816C154.284 89.955 155.781 88.0988 157.598 88.0988C158.23 88.097 158.851 88.2648 159.395 88.5844C159.94 88.9039 160.389 89.364 160.696 89.9164C160.744 90.0028 160.786 90.0922 160.824 90.1837C161.649 89.1739 162.956 88.1047 164.251 88.1047C165.158 88.1059 166.043 88.3898 166.781 88.9167C167.52 89.4436 168.077 90.1876 168.373 91.045C168.373 90.9143 169.561 90.4926 169.677 90.451C170.159 90.3108 170.66 90.2428 171.162 90.249C172.038 90.2719 172.893 90.5143 173.651 90.9538C174.409 91.3934 175.044 92.0159 175.498 92.7646C175.544 93.0254 175.566 93.2897 175.564 93.5547C175.564 94.3462 175.378 95.1267 175.02 95.8327C175.428 95.9841 175.803 96.2119 176.125 96.5039C176.818 97.1092 177.244 97.9624 177.313 98.8799C177.313 98.9719 177.313 99.064 177.313 99.1561C177.314 99.8493 177.107 100.527 176.719 101.101C177.146 101.263 177.551 101.48 177.922 101.746C179.028 102.543 179.775 103.745 180.001 105.09C180.051 105.384 180.075 105.683 180.075 105.981C180.075 107.245 179.617 108.466 178.785 109.417C177.953 110.368 176.804 110.986 175.552 111.155Z" fill="#1FD45D"/>
<path d="M175.552 111.155V111.238C175.552 112.971 174.863 114.633 173.638 115.858C172.413 117.084 170.751 117.772 169.018 117.772C167.907 117.777 166.815 117.491 165.849 116.943C167.188 116.136 168.448 114.959 168.899 113.501C169.06 112.957 169.094 112.383 168.998 111.824C168.903 111.265 168.68 110.735 168.347 110.276C168.307 109.679 168.112 109.104 167.78 108.607C167.448 108.11 166.99 107.71 166.455 107.445C166.286 107.382 166.111 107.338 165.932 107.318C166.254 105.496 165.974 103.619 165.133 101.972C164.857 100.799 164.316 99.7052 163.553 98.773C163.564 99.1092 163.501 99.4433 163.368 99.7522C163.235 100.061 163.035 100.337 162.783 100.559C162.531 100.782 162.233 100.946 161.91 101.041C161.587 101.135 161.248 101.157 160.916 101.104C158.335 100.807 158.05 98.2948 158.05 98.2948C158.05 98.2948 158.032 98.3215 158.032 98.3393C156.671 101.06 153.375 100.867 151.124 99.4234C150.326 98.9277 149.644 98.2675 149.122 97.4869C148.688 94.5466 151.299 91.9568 154.073 91.7816C154.284 89.955 155.781 88.0988 157.598 88.0988C158.23 88.097 158.851 88.2648 159.395 88.5844C159.94 88.9039 160.389 89.364 160.696 89.9164C160.744 90.0028 160.786 90.0922 160.824 90.1837C161.649 89.1739 162.956 88.1047 164.251 88.1047C165.158 88.1059 166.043 88.3898 166.781 88.9167C167.52 89.4436 168.077 90.1876 168.373 91.045C168.373 90.9143 169.561 90.4926 169.677 90.451C170.159 90.3108 170.66 90.2428 171.162 90.249C172.038 90.2719 172.893 90.5143 173.651 90.9538C174.409 91.3934 175.044 92.0159 175.498 92.7646C175.544 93.0254 175.566 93.2897 175.564 93.5547C175.564 94.3462 175.378 95.1267 175.02 95.8327C175.428 95.9841 175.803 96.2119 176.125 96.5039C176.037 96.9093 175.898 97.3016 175.709 97.6711C176.348 97.9131 176.906 98.3301 177.319 98.8739C177.319 98.966 177.319 99.0581 177.319 99.1501C177.32 99.8433 177.113 100.521 176.725 101.095C177.152 101.257 177.557 101.474 177.928 101.74C177.828 102.163 177.654 102.565 177.414 102.928C178.501 103.33 179.42 104.088 180.022 105.078C180.072 105.373 180.096 105.671 180.096 105.969C180.098 107.238 179.638 108.464 178.802 109.419C177.965 110.373 176.81 110.99 175.552 111.155Z" fill="#1FD45D"/>
<path d="M153.191 103.386C153.191 103.386 156.915 103.746 157.509 106.95" stroke="#10173A" stroke-width="1.19097" stroke-miterlimit="10"/>
<path d="M151.456 112.729C150.59 112.868 149.706 112.839 148.851 112.643C148.69 112.603 148.541 112.525 148.417 112.415C148.293 112.305 148.197 112.166 148.139 112.011C148.08 111.856 148.061 111.688 148.081 111.524C148.102 111.359 148.162 111.202 148.257 111.066C149.148 109.815 150.039 108.58 151.023 107.404C151.174 107.256 151.278 107.065 151.32 106.857C151.32 106.857 151.281 102.94 152.312 100.026" stroke="#10173A" stroke-width="1.19097" stroke-miterlimit="10"/>
<path d="M154.894 106.861C155.025 106.24 154.702 105.646 154.174 105.535C153.646 105.424 153.112 105.837 152.982 106.459C152.851 107.08 153.173 107.674 153.701 107.785C154.23 107.896 154.764 107.482 154.894 106.861Z" fill="#10173A"/>
<path d="M173.77 123.16C172.401 119.189 171.771 117.161 171.771 117.161" stroke="#10173A" stroke-width="1.19097" stroke-linecap="round" stroke-linejoin="round"/>
<path d="M158.697 121.833L158.676 135.536" stroke="#10173A" stroke-width="1.19097" stroke-miterlimit="10"/>
<path d="M150.09 112.816C150.09 112.816 151.046 120.698 154.872 122.192C158.697 123.686 162.496 119.077 162.496 119.077" stroke="#10173A" stroke-width="1.19097" stroke-linecap="round" stroke-linejoin="round"/>
<path d="M150.874 116.401C151.37 116.748 151.944 116.965 152.545 117.034C153.146 117.103 153.755 117.021 154.316 116.796" stroke="#10173A" stroke-width="1.19097" stroke-linecap="round" stroke-linejoin="round"/>
<path d="M160.467 89.8065C160.468 89.2013 160.311 88.6064 160.01 88.081C159.62 87.4059 159.019 86.8772 158.3 86.5761C157.581 86.2749 156.783 86.2179 156.028 86.4136C155.273 86.6093 154.604 87.0474 154.122 87.6601C153.64 88.2731 153.372 89.0269 153.36 89.8065" stroke="#10173A" stroke-width="1.19097" stroke-miterlimit="10" stroke-linecap="round"/>
<path d="M158.504 95.0396C158.5 94.1822 158.287 93.339 157.884 92.5826C157.48 91.8264 156.898 91.1804 156.187 90.7005C152.623 88.3007 147.488 91.9657 148.507 96.097C148.863 97.5374 149.9 98.6452 151.121 99.4263C153.369 100.87 156.668 101.069 158.023 98.3453L158.044 98.3007C158.044 98.3007 158.341 100.807 160.91 101.11C161.242 101.161 161.581 101.139 161.904 101.044C162.226 100.95 162.524 100.785 162.776 100.563C163.028 100.34 163.227 100.065 163.361 99.7569C163.495 99.4486 163.559 99.1148 163.55 98.7789C165.59 101.253 165.893 104.719 164.592 107.615C164.827 107.092 166.11 107.297 166.458 107.451C168.008 108.137 168.703 110.089 168.216 111.663C167.761 113.13 166.502 114.297 165.169 115.114C165.056 115.18 164.96 115.272 164.891 115.383C164.821 115.494 164.78 115.62 164.77 115.75C164.759 115.881 164.781 116.012 164.832 116.132C164.884 116.253 164.963 116.359 165.065 116.441C166.033 117.177 167.188 117.628 168.399 117.744C169.61 117.859 170.829 117.634 171.919 117.093C173.009 116.553 173.927 115.719 174.569 114.686C175.21 113.652 175.551 112.46 175.552 111.244V111.161C176.708 111.016 177.782 110.488 178.603 109.662C179.423 108.835 179.944 107.757 180.081 106.601C180.217 105.444 179.963 104.275 179.357 103.279C178.752 102.284 177.83 101.52 176.74 101.11C177.128 100.536 177.335 99.8582 177.334 99.165C177.334 98.2196 176.958 97.3132 176.29 96.6449C175.622 95.9764 174.715 95.601 173.77 95.601" stroke="#10173A" stroke-width="1.19097" stroke-linecap="round" stroke-linejoin="round"/>
<path d="M160.467 87.9747C161.266 86.8728 162.104 86.261 163.565 86.261C164.474 86.2619 165.36 86.5464 166.099 87.0751C166.838 87.604 167.393 88.3504 167.687 89.2102C167.649 89.0914 168.875 88.6518 168.997 88.6162C169.479 88.4769 169.98 88.4089 170.482 88.4142C171.829 88.4517 173.109 89.0068 174.057 89.9646C175.004 90.9221 175.546 92.2084 175.57 93.5553C175.569 94.3468 175.383 95.127 175.026 95.8333" stroke="#10173A" stroke-width="1.19097" stroke-linecap="square" stroke-linejoin="round"/>
</svg>
