<svg width="728" height="728" viewBox="0 0 728 728" fill="none" xmlns="http://www.w3.org/2000/svg">
<path d="M64.1749 404.846C63.6653 398.367 63.2722 391.88 62.9591 385.408" stroke="#10173A" stroke-width="2.9484" stroke-miterlimit="10"/>
<path d="M432.645 637.902H247.718" stroke="#CCDDE2" stroke-width="2.9484" stroke-miterlimit="10"/>
<path d="M486.633 174.637C486.633 174.637 541.131 148.902 587.367 199.112C602.473 215.522 612.781 237.296 613.509 259.762C613.84 270.724 612.073 281.648 608.304 291.947C604.467 302.459 597.58 309.419 592.288 318.781C584.171 333.217 601.14 335.773 610.248 342.769C616.301 347.458 622.042 352.535 627.436 357.969C639.592 370.109 650.288 383.628 659.307 398.25C677.168 427.375 687.922 460.294 690.699 494.346C693.443 527.921 691.34 564.379 674.122 594.205C665.838 608.569 653.36 622.656 638.013 629.353C617.629 638.242 594.734 637.907 572.952 637.907H526.6" stroke="#CCDDE2" stroke-width="2.9484" stroke-miterlimit="10"/>
<path d="M259.461 510.137C257.634 523.139 254.911 538.056 251.904 552.987L248.359 553.999C237.012 557.186 224.963 556.833 213.822 552.987L218.467 537.204L190.192 454.94C190.192 454.94 211.806 447.951 229.555 442.761L231.593 442.673C241.29 444.719 261.274 452.399 261.9 481.163C261.943 482.546 261.9 484.002 261.9 485.589C264.717 494.871 263.596 503.054 259.461 510.137Z" fill="#1FD45D"/>
<path d="M192.907 196.995C192.628 196.286 192.083 195.714 191.388 195.403C190.692 195.09 189.902 195.064 189.187 195.328C188.787 195.449 188.416 195.655 188.102 195.933C186.981 196.843 186.726 198.437 186.69 199.951C186.588 203.409 186.391 206.874 186.137 210.318C186.137 210.551 186.1 210.813 186.1 211.046C185.94 213.82 186.057 217.183 184.877 219.6C184.801 219.784 184.673 219.941 184.506 220.051C184.113 220.233 183.698 219.84 183.443 219.483C182.715 218.421 181.987 217.379 181.259 216.295C180.684 215.428 180.036 214.489 179.031 214.213C177.539 213.798 176.119 215.115 175.297 216.455C172.64 220.823 172.385 227.979 176.498 231.641C180.611 235.303 171.402 242.503 164.806 245.531C163.702 246.152 162.545 246.673 161.348 247.089C161.29 247.089 163.729 247.635 163.671 247.657C158.538 249.444 153.192 250.543 147.771 250.926C141.336 251.355 135.06 250.547 130.496 247.752C130.692 247.024 132.25 241.928 132.345 241.2C132.68 238.659 132.92 236.14 133.073 233.585C133.349 228.787 133.328 223.982 133.146 219.199C132.483 201.99 135.548 187.531 142.653 185.326C143.214 185.157 143.752 184.92 144.255 184.619C147.458 182.85 149.169 179.116 147.698 175.592C147.596 175.352 147.48 175.119 147.378 174.864C147.263 174.613 147.132 174.37 146.985 174.136C160.86 169.827 170.281 172.819 179.803 178.031C181.615 179.479 183.319 181.058 184.899 182.756C188.626 186.802 191.367 191.656 192.907 196.937V196.995Z" fill="#1FD45D"/>
<path d="M526.455 362.462H479.135V249.36C479.135 249.36 470.399 347.632 446.462 403.31H299.909C317.184 392.332 331.038 375.748 340.262 357.897C343.902 350.836 349.726 340.352 359.408 343.104C361.708 343.752 365.094 344.167 366.804 342.063C367.395 341.256 367.73 340.29 367.765 339.29C368.595 328.981 357.908 320.303 349.099 317.566C340.291 314.829 329.997 316.11 322.986 322.509C317.934 327.132 314.767 333.269 311.069 338.955C308.849 342.324 306.218 345.403 303.235 348.12C307.036 325.043 310.421 302.984 310.909 294.867C320.176 287.551 326.983 275.619 329.4 265.063C332.057 253.531 334.401 242.254 338.529 231.458L372.315 231.575C373.588 231.575 374.808 231.069 375.708 230.17C376.608 229.27 377.113 228.05 377.113 226.777V170.663C377.115 169.402 376.617 168.192 375.729 167.297C374.841 166.402 373.635 165.895 372.374 165.887L349.369 165.691C357.729 163.943 366.207 162.812 374.732 162.305C374.907 162.305 375.067 162.305 375.22 162.305C380.833 161.934 390.668 161.774 396.332 161.716C389.584 165.356 385.412 173.087 386.14 179.916C386.268 181.37 386.64 182.793 387.239 184.124C393.005 196.791 408.191 200.533 420.727 196.849C434.676 192.78 444.926 179.952 444.315 165.196C453.051 166.477 461.699 168.103 470.261 170.073C483.27 173.065 495.959 177.098 506.246 185.893C515.215 193.529 522.815 203.365 526.331 214.481C541.43 262.012 536.785 315.054 526.455 362.462Z" fill="#233380"/>
<path d="M311.287 294.868C310.224 312.238 307.487 329.593 304.517 346.905" stroke="#10173A" stroke-width="2.9484" stroke-miterlimit="10"/>
<path d="M338.907 231.459C334.772 242.255 332.436 253.532 329.778 265.063C327.34 275.583 320.547 287.551 311.287 294.868C303.512 301.005 293.99 303.895 283.798 300.022C270.126 294.81 265.329 279.74 263.654 266.454C261.478 249.91 261.346 233.162 263.261 216.586C265.19 220.874 273.074 233.92 297.528 230.491C298.185 230.981 298.974 231.263 299.792 231.299L338.907 231.459Z" fill="#233380"/>
<path d="M325.177 194.136C330.87 192.68 334.336 198.155 333.491 202.319C332.115 209.111 322.345 211.783 316.529 211.906C311.87 212.001 300.513 210.771 295.883 210.232" stroke="#10173A" stroke-width="2.9484" stroke-miterlimit="10"/>
<path d="M293.968 197.498C301.011 199.533 308.469 199.656 315.575 197.854C321.552 196.318 328.614 193.486 331.744 187.801C333.571 184.496 332.115 179.225 328.3 178.06C323.896 176.728 319.819 181.11 315.83 182.217C313.256 182.918 310.629 183.405 307.975 183.673C307.247 183.753 306.562 183.811 305.856 183.87C302.141 184.167 298.407 184.14 294.696 183.789C294.301 183.789 293.916 183.665 293.597 183.434C293.276 183.203 293.037 182.877 292.913 182.502C292.789 182.127 292.786 181.723 292.905 181.346C293.024 180.97 293.258 180.64 293.575 180.404L294.245 179.917" stroke="#10173A" stroke-width="2.9484" stroke-miterlimit="10"/>
<path d="M338.907 231.457C334.772 242.254 332.435 253.53 329.778 265.062C325.294 284.419 306.169 308.538 283.798 300.006C270.126 294.793 265.328 279.724 263.654 266.438C261.033 245.865 261.252 224.731 265.11 204.332C268.313 187.53 273.999 169.883 290.35 161.62L298.023 157.784C299.853 156.859 301.972 156.687 303.927 157.305C305.882 157.923 307.518 159.281 308.484 161.089C309.073 162.213 309.386 163.461 309.394 164.729C309.402 164.915 309.387 165.1 309.351 165.282" stroke="#10173A" stroke-width="2.9484" stroke-miterlimit="10"/>
<path d="M494.758 389.377C498.711 389.254 502.667 389.354 506.61 389.675C509.827 389.937 513.162 390.09 516.226 391.291C518.753 392.296 521.388 394.691 521.257 397.618C521.017 403.354 513.504 403.311 509.383 403.311" stroke="#10173A" stroke-width="2.9484" stroke-miterlimit="10"/>
<path opacity="0.54" d="M424.054 383.909L458.314 296.134C458.738 294.433 458.768 292.657 458.403 290.943C458.037 289.228 457.285 287.62 456.204 286.239C455.123 284.859 453.741 283.744 452.165 282.978C450.587 282.213 448.856 281.817 447.103 281.822H311.054C308.005 281.828 305.047 282.861 302.654 284.751C300.262 286.642 298.575 289.282 297.863 292.247L260.313 380C259.906 381.694 259.887 383.458 260.26 385.16C260.634 386.862 261.388 388.458 262.466 389.826C263.544 391.194 264.919 392.301 266.487 393.062C268.054 393.822 269.774 394.217 271.516 394.218H410.856C413.89 394.216 416.836 393.201 419.228 391.333C421.619 389.465 423.318 386.853 424.054 383.909Z" fill="#F9FAFF"/>
<path d="M424.054 383.909L458.314 296.134C458.738 294.433 458.768 292.657 458.403 290.943C458.037 289.228 457.285 287.62 456.204 286.239C455.123 284.859 453.741 283.744 452.165 282.978C450.587 282.213 448.856 281.817 447.103 281.822H311.054C308.005 281.828 305.047 282.861 302.654 284.751C300.262 286.642 298.575 289.282 297.863 292.247L260.313 380C259.906 381.694 259.887 383.458 260.26 385.16C260.634 386.862 261.388 388.458 262.466 389.826C263.544 391.194 264.919 392.301 266.487 393.062C268.054 393.822 269.774 394.217 271.516 394.218H410.856C413.89 394.216 416.836 393.201 419.228 391.333C421.619 389.465 423.318 386.853 424.054 383.909Z" fill="#1FD45D"/>
<path d="M424.054 383.909L458.314 296.134C458.738 294.433 458.768 292.657 458.403 290.943C458.037 289.228 457.285 287.62 456.204 286.239C455.123 284.859 453.741 283.744 452.165 282.978C450.587 282.213 448.856 281.817 447.103 281.822H311.054C308.005 281.828 305.047 282.861 302.654 284.751C300.262 286.642 298.575 289.282 297.863 292.247L260.313 380C259.906 381.694 259.887 383.458 260.26 385.16C260.634 386.862 261.388 388.458 262.466 389.826C263.544 391.194 264.919 392.301 266.487 393.062C268.054 393.822 269.774 394.217 271.516 394.218H410.856C413.89 394.216 416.836 393.201 419.228 391.333C421.619 389.465 423.318 386.853 424.054 383.909Z" stroke="#10173A" stroke-width="2.9484" stroke-linecap="square" stroke-linejoin="round"/>
<path d="M419.038 380.356L450.648 299.381C451.04 297.813 451.069 296.178 450.734 294.597C450.398 293.017 449.708 291.534 448.712 290.26C447.718 288.988 446.447 287.958 444.995 287.25C443.542 286.542 441.948 286.174 440.332 286.175H314.789C311.971 286.174 309.233 287.122 307.02 288.867C304.806 290.612 303.245 293.051 302.588 295.792L268.015 376.753C267.642 378.315 267.628 379.941 267.974 381.509C268.319 383.077 269.016 384.547 270.01 385.808C271.005 387.069 272.272 388.088 273.717 388.789C275.162 389.49 276.746 389.855 278.352 389.857H406.866C409.665 389.859 412.383 388.925 414.589 387.203C416.795 385.481 418.361 383.071 419.038 380.356Z" fill="#1FD45D"/>
<path d="M323.845 301.1C325.512 298.603 328.213 297.46 329.931 298.617C331.649 299.775 331.649 302.687 329.989 305.169C329.727 305.551 329.435 305.912 329.116 306.247L341.448 332.287C343.414 330.977 345.576 330.649 347.134 331.683C347.633 332.048 348.047 332.516 348.346 333.057C348.645 333.598 348.823 334.197 348.866 334.813L357.297 331.974L364.664 329.492L367.066 328.705C367.371 327.801 367.792 326.939 368.319 326.143C370.656 322.627 374.478 321.047 376.858 322.649C379.239 324.25 379.268 328.291 376.996 331.778L391.047 350.96C394.112 348.449 397.715 347.67 400.212 349.33C403.612 351.594 403.663 357.498 400.329 362.507C400.19 362.71 400.038 362.871 399.899 363.06L409.247 375.844L409.334 375.967C409.812 376.689 409.984 377.57 409.812 378.418C409.64 379.266 409.138 380.011 408.417 380.488C407.695 380.966 406.815 381.138 405.966 380.966C405.118 380.794 404.374 380.292 403.896 379.571L395.597 367.042C392.969 368.563 390.173 368.855 388.128 367.493C384.881 365.309 384.72 359.864 387.618 355.008L374.172 334.711C372.184 336.058 369.993 336.4 368.421 335.359C367.547 334.739 366.951 333.801 366.761 332.746L365.756 333.023L358.265 335.068L348.67 337.66C348.371 338.809 347.878 339.9 347.214 340.885C344.877 344.394 341.055 345.981 338.674 344.379C336.294 342.778 336.258 338.665 338.594 335.148C338.937 334.632 339.322 334.145 339.745 333.692L328.002 307.164C326.59 308.132 325.024 308.38 323.903 307.63C322.214 306.509 322.185 303.568 323.845 301.1Z" fill="#D7E8F0"/>
<path d="M413.178 302.496H431.378C432.21 302.494 433.023 302.252 433.72 301.797C434.417 301.342 434.966 300.694 435.302 299.933C435.402 299.703 435.456 299.456 435.462 299.205C435.46 298.708 435.261 298.232 434.909 297.881C434.557 297.531 434.08 297.334 433.584 297.334H414.241C415.151 298.856 414.692 300.989 413.178 302.496Z" fill="#D7E8F0"/>
<path d="M401.414 300.632C401.416 301.127 401.614 301.601 401.964 301.95C402.315 302.299 402.789 302.496 403.284 302.496H413.178C414.692 300.989 415.151 298.856 414.241 297.32H405.505C404.673 297.319 403.86 297.561 403.164 298.014C402.467 298.468 401.917 299.114 401.581 299.875C401.474 300.113 401.416 300.371 401.414 300.632Z" fill="#1FD45D"/>
<path d="M405.964 302.498C406.017 302.598 406.077 302.693 406.146 302.782C407.441 304.558 410.259 304.726 412.443 303.132C412.702 302.94 412.945 302.728 413.171 302.498C414.685 300.991 415.144 298.858 414.234 297.322C414.186 297.222 414.127 297.126 414.059 297.038C412.77 295.255 409.953 295.102 407.769 296.681C407.511 296.877 407.267 297.091 407.041 297.322C405.527 298.836 405.068 300.955 405.964 302.498Z" fill="#F9FAFF"/>
<path d="M396.871 312.056C396.874 312.552 397.074 313.026 397.426 313.374C397.778 313.724 398.253 313.92 398.749 313.92H417.844C416.92 312.376 417.379 310.28 418.893 308.744H400.933C400.1 308.744 399.285 308.987 398.587 309.442C397.889 309.897 397.339 310.544 397.002 311.306C396.91 311.546 396.866 311.8 396.871 312.056Z" fill="#1FD45D"/>
<path d="M417.815 313.918H426.799C427.629 313.918 428.442 313.678 429.138 313.225C429.835 312.773 430.385 312.129 430.723 311.37C430.825 311.141 430.882 310.894 430.89 310.642C430.891 310.396 430.844 310.153 430.75 309.925C430.656 309.698 430.518 309.491 430.344 309.317C430.17 309.144 429.963 309.006 429.736 308.912C429.509 308.818 429.265 308.771 429.019 308.771H418.864C417.349 310.257 416.891 312.375 417.815 313.918Z" fill="#D7E8F0"/>
<path d="M417.815 313.919C417.858 314.02 417.911 314.115 417.976 314.203C419.264 315.987 422.081 316.147 424.265 314.56C424.524 314.365 424.767 314.15 424.993 313.919C426.493 312.405 426.952 310.279 426.056 308.743C426.003 308.645 425.945 308.55 425.882 308.459C424.578 306.683 421.761 306.523 419.577 308.117C419.319 308.306 419.075 308.515 418.849 308.743C417.349 310.257 416.891 312.376 417.815 313.919Z" fill="#F9FAFF"/>
<path d="M411.431 325.262H422.86C423.692 325.26 424.506 325.018 425.204 324.565C425.901 324.112 426.453 323.466 426.792 322.706C426.891 322.476 426.946 322.229 426.952 321.978C426.952 321.48 426.754 321.001 426.402 320.648C426.05 320.294 425.572 320.094 425.073 320.093H412.515C413.418 321.629 412.952 323.747 411.431 325.262Z" fill="#1FD45D"/>
<path d="M392.925 323.405C392.926 323.65 392.975 323.892 393.07 324.118C393.165 324.343 393.302 324.549 393.476 324.721C393.65 324.893 393.856 325.03 394.083 325.122C394.309 325.216 394.551 325.263 394.796 325.261H411.431C412.93 323.747 413.396 321.621 412.494 320.078H397.016C396.183 320.077 395.367 320.321 394.67 320.777C393.973 321.233 393.424 321.884 393.092 322.648C392.985 322.886 392.928 323.144 392.925 323.405Z" fill="#D7E8F0"/>
<path d="M404.238 325.262C404.291 325.362 404.352 325.456 404.42 325.546C405.709 327.329 408.519 327.482 410.71 325.895C410.969 325.703 411.212 325.492 411.438 325.262C412.938 323.748 413.404 321.622 412.501 320.079C412.454 319.978 412.395 319.883 412.326 319.795C411.023 318.026 408.213 317.873 406.022 319.452C405.765 319.644 405.522 319.853 405.294 320.079C403.794 321.593 403.328 323.726 404.238 325.262Z" fill="#F9FAFF"/>
<path d="M337.546 378.754H348.983C349.814 378.752 350.627 378.51 351.323 378.057C352.019 377.604 352.569 376.958 352.907 376.199C353.007 375.968 353.061 375.721 353.067 375.471C353.067 374.973 352.869 374.495 352.517 374.143C352.164 373.79 351.687 373.592 351.189 373.592H338.631C339.512 375.121 339.046 377.24 337.546 378.754Z" fill="#1FD45D"/>
<path d="M292.163 376.898C292.163 377.142 292.213 377.384 292.307 377.611C292.401 377.836 292.54 378.041 292.714 378.213C292.887 378.386 293.093 378.522 293.319 378.615C293.547 378.708 293.789 378.755 294.034 378.754H337.546C339.046 377.24 339.512 375.114 338.609 373.578H296.254C295.422 373.577 294.607 373.819 293.91 374.274C293.213 374.73 292.664 375.378 292.33 376.141C292.226 376.379 292.169 376.636 292.163 376.898Z" fill="#D7E8F0"/>
<path d="M330.332 378.755C330.385 378.854 330.445 378.95 330.514 379.039C331.802 380.823 334.612 380.976 336.804 379.396C337.061 379.199 337.304 378.985 337.532 378.755C339.031 377.241 339.497 375.115 338.594 373.579C338.547 373.478 338.488 373.383 338.42 373.295C337.117 371.519 334.307 371.366 332.115 372.946C331.856 373.137 331.613 373.349 331.387 373.579C329.895 375.086 329.422 377.219 330.332 378.755Z" fill="#F9FAFF"/>
<path d="M49.7459 406.791C49.7459 406.791 25.7219 515.314 87.5218 537.984C149.322 560.654 316.259 539.36 246.881 461.056C177.503 382.753 49.7459 406.791 49.7459 406.791Z" fill="#233380"/>
<path d="M349.609 165.692C358.009 163.939 366.524 162.804 375.089 162.292C375.271 162.292 375.424 162.292 375.584 162.292C381.212 161.921 391.069 161.76 396.696 161.702" stroke="#10173A" stroke-width="2.9484" stroke-miterlimit="10"/>
<path d="M307.975 183.652C307.917 183.689 307.88 183.732 307.822 183.769" stroke="#10173A" stroke-width="2.9484" stroke-miterlimit="10"/>
<path d="M403.75 138.026C399.455 140.283 394.519 138.754 392.627 134.911" stroke="#10173A" stroke-width="2.9484" stroke-miterlimit="10"/>
<path d="M378.816 83.1715C378.623 86.5115 379.48 89.8283 381.267 92.6559C383.055 95.4841 385.683 97.6813 388.783 98.94C389.439 97.7366 390.378 96.7123 391.52 95.9552C396.347 92.832 395.488 101.175 408.592 98.9764C426.755 95.9115 431.385 102.238 431.385 102.238C431.786 102.791 430.657 106.402 430.497 107.064C429.769 110.945 429.041 114.803 428.379 118.712C427.951 121.081 427.52 123.434 427.083 125.774C427.413 125.454 427.763 125.155 428.131 124.879C431.116 120.219 435.491 114.992 440.26 119.258C441.217 120.147 441.951 121.25 442.4 122.476C444.584 128.409 440.405 132.224 435.52 134.51C434.232 135.29 432.862 135.927 431.436 136.41C431.676 137.91 432.674 143.887 432.674 143.901C432.776 144.513 444.904 137.036 445.916 136.126C447.745 133.709 449.154 131.002 450.088 128.118C453.859 116.223 453.218 100.847 445.625 91.063C443.739 88.6388 444.999 87.241 445.545 84.8823C445.571 84.7549 445.559 84.6231 445.509 84.5037C445.46 84.3836 445.375 84.2817 445.267 84.2103C445.159 84.139 445.032 84.1019 444.902 84.1033C444.772 84.1055 444.646 84.1455 444.54 84.2198C440.449 86.7896 433.045 84.1616 433.045 84.1616C409.021 69.7324 396.711 78.6579 390.821 79.1092C388.433 79.273 386.061 78.5982 384.116 77.2019C383.774 77.8775 383.254 78.4468 382.614 78.8493C381.972 79.2519 381.233 79.4725 380.476 79.4878L380.243 80.74C380.065 81.6915 379.56 82.5512 378.816 83.1715Z" fill="#1FD45D"/>
<path d="M388.797 98.9694C385.697 97.7114 383.069 95.5143 381.281 92.686C379.494 89.8578 378.637 86.541 378.831 83.2009C378.902 81.9182 379.087 80.6442 379.384 79.3935L379.595 79.4372C379.882 79.502 380.176 79.5238 380.469 79.5027C381.226 79.4881 381.965 79.2676 382.606 78.865C383.248 78.4624 383.767 77.8924 384.109 77.2168C384.31 76.8411 384.45 76.4356 384.524 76.0156L385.645 69.9224C385.645 69.9224 389.285 74.8508 395.109 74.3921C400.933 73.9335 413.244 65.0084 437.333 79.4445C437.333 79.4445 443.113 81.5775 447.205 79.0077C447.311 78.9341 447.437 78.8934 447.567 78.8919C447.696 78.8904 447.824 78.9276 447.931 78.9989C448.04 79.0703 448.124 79.1722 448.174 79.2916C448.223 79.4117 448.236 79.5435 448.209 79.6701C447.663 82.0216 448.027 83.9217 449.913 86.3459C457.506 96.1302 458.147 111.506 454.376 123.401C452.724 128.331 449.793 132.733 445.88 136.156C444.868 137.066 432.739 144.542 432.637 143.931C432.637 143.931 431.64 137.939 431.4 136.44L431.342 136.097L431.684 135.995C432.981 135.594 434.251 135.108 435.484 134.539C440.369 132.254 444.569 128.439 442.364 122.506C441.914 121.28 441.181 120.177 440.223 119.288C435.455 115.022 431.08 120.249 428.095 124.908C427.517 125.793 427.044 126.74 426.682 127.733C426.799 127.092 426.915 126.466 427.039 125.825C427.476 123.481 427.908 121.128 428.335 118.764C429.063 114.876 429.74 111.018 430.453 107.116C430.584 106.453 431.742 102.842 431.342 102.289C431.342 102.289 426.712 95.9628 408.548 99.0277C395.444 101.212 396.303 92.8833 391.476 96.0065C390.334 96.7636 389.395 97.7886 388.739 98.9912C388.536 99.3836 388.356 99.787 388.2 100.2C388.174 100.251 388.152 100.305 388.135 100.36C387.807 101.263 387.509 102.173 387.218 103.061C384.495 111.717 382.697 121.064 383.658 130.157C384.83 141.179 392.86 154.137 405.636 153.038C409.656 152.567 413.577 151.466 417.255 149.777" stroke="#10173A" stroke-width="2.9484" stroke-miterlimit="10"/>
<path d="M390.191 122.46C391.441 122.425 392.42 121.171 392.378 119.66C392.335 118.149 391.287 116.952 390.037 116.988C388.787 117.023 387.808 118.277 387.851 119.788C387.894 121.299 388.941 122.495 390.191 122.46Z" fill="#10173A"/>
<path d="M407.299 127.059C408.549 127.023 409.527 125.769 409.485 124.259C409.442 122.747 408.394 121.551 407.144 121.586C405.894 121.622 404.916 122.876 404.958 124.386C405.001 125.897 406.049 127.094 407.299 127.059Z" fill="#10173A"/>
<path d="M399.914 128.067C399.914 128.067 393.296 129.523 393.966 126.131C394.17 125.068 395.83 114.628 395.83 114.628C395.83 114.628 392.743 108.411 384.669 109.86" stroke="#10173A" stroke-width="2.9484" stroke-miterlimit="10"/>
<path d="M402.884 113.699C402.884 113.699 413.375 111.915 417.393 120.295" stroke="#10173A" stroke-width="2.9484" stroke-miterlimit="10"/>
<path d="M396.812 161.612C388.55 165.98 384.138 176.493 387.596 184.1C393.362 196.775 408.541 200.502 421.084 196.84C435.032 192.763 445.283 179.907 444.671 165.165" stroke="#10173A" stroke-width="2.9484" stroke-miterlimit="10"/>
<path d="M446.841 403.303C470.799 347.626 479.499 249.353 479.499 249.353V386.464C479.498 388.676 479.933 390.866 480.779 392.909C481.625 394.953 482.865 396.809 484.429 398.373C485.993 399.937 487.849 401.177 489.892 402.023C491.936 402.869 494.126 403.304 496.337 403.303H549.481C551.474 403.334 553.408 402.628 554.911 401.321C556.414 400.014 557.382 398.197 557.628 396.22C557.735 395.131 557.612 394.031 557.268 392.992C556.924 391.953 556.365 390.998 555.629 390.187C554.893 389.377 553.996 388.731 552.995 388.289C551.994 387.847 550.91 387.62 549.816 387.622H528.049C527.181 387.619 526.325 387.418 525.546 387.035C524.768 386.651 524.087 386.095 523.556 385.408C523.025 384.721 522.658 383.922 522.483 383.072C522.308 382.222 522.329 381.343 522.545 380.502C535.649 328.814 543.752 268.143 526.695 214.453C523.171 203.373 515.578 193.501 506.609 185.871C496.316 177.077 483.627 173.044 470.624 170.059C462.049 168.094 453.398 166.467 444.671 165.182C444.645 165.19 444.617 165.19 444.591 165.182C444.533 165.182 444.475 165.182 444.438 165.182H444.38H444.3H444.183" stroke="#10173A" stroke-width="2.9484" stroke-miterlimit="10"/>
<path d="M439.182 140.444L438.221 157.836C438.13 159.536 438.663 161.211 439.721 162.543C440.779 163.876 442.289 164.776 443.965 165.073H444.184C444.221 165.062 444.262 165.062 444.3 165.073H444.336H444.438" stroke="#10173A" stroke-width="2.9484" stroke-miterlimit="10"/>
<path d="M444.591 165.152H444.438H444.38H444.336H444.3H444.184H443.965C442.289 164.856 440.779 163.956 439.721 162.623C438.663 161.289 438.13 159.615 438.221 157.916L439.182 140.524" stroke="#10173A" stroke-width="2.9484" stroke-miterlimit="10"/>
<path d="M398.188 151.954C397.715 151.765 398.188 171.377 386.489 179.895" stroke="#10173A" stroke-width="2.9484" stroke-miterlimit="10"/>
<path d="M241.559 403.309H204.082" stroke="#10173A" stroke-width="2.9484" stroke-miterlimit="10"/>
<path d="M607.692 403.309H299.909" stroke="#10173A" stroke-width="2.9484" stroke-miterlimit="10"/>
<path d="M133.153 219.176C133.514 226.519 133.251 233.879 132.367 241.176C131.231 249.752 123.303 260.65 121.585 269.131C119.132 281.333 122.844 293.942 127.94 305.269C134.099 318.963 143.803 332.737 142.857 348.418C142.372 355.247 140.34 361.877 136.914 367.805C133.489 373.733 128.759 378.804 123.085 382.634C115.312 387.835 106.432 391.15 97.1532 392.316C95.8574 392.469 94.5397 392.593 93.222 392.629C92.494 392.629 91.766 392.549 91.038 392.491C66.3588 390.402 41.0463 371.576 41.1045 345.367C41.1045 328.624 53.8299 315.519 55.9775 299.271C57.2951 289.333 54.3832 279.01 57.0768 269.364C61.4448 253.96 78.3271 245.559 85.7236 231.377C91.1691 220.909 92.0572 208.693 96.367 197.715C102.366 182.427 111.946 164.955 125.05 163.499C128.853 163.93 132.528 165.129 135.854 167.022C143.978 171.39 146.046 171.667 147.698 175.561C149.387 179.631 146.868 183.977 142.66 185.28C135.555 187.53 132.49 201.966 133.153 219.176Z" fill="#1FD45D"/>
<path d="M140.294 169.391C161.625 163.21 175.18 172.303 184.877 182.786C194.574 193.269 194.123 205.172 194.123 205.172" stroke="#10173A" stroke-width="2.9484" stroke-miterlimit="10"/>
<path d="M206.455 374.422C206.133 391.087 204.022 407.669 200.158 423.883" stroke="#10173A" stroke-width="2.9484" stroke-miterlimit="10"/>
<path d="M259.461 510.135C251.649 523.574 233.122 533.118 210.452 539.059C170.223 549.6 116.962 548.777 87.5363 537.974C25.6999 515.311 49.7385 406.788 49.7385 406.788C49.7385 406.788 156.689 386.659 228.004 443.188C234.817 448.573 241.141 454.549 246.903 461.046C254.787 469.964 259.628 478.125 261.914 485.58C264.717 494.869 263.596 503.052 259.461 510.135Z" stroke="#10173A" stroke-width="2.9484" stroke-miterlimit="10"/>
<path d="M218.467 537.227C218.467 537.227 180.997 641.236 243.947 667.801C306.897 694.366 12.7779 697.904 77.701 667.801C142.624 637.698 105.307 543.582 105.307 543.582" stroke="#10173A" stroke-width="2.9484" stroke-miterlimit="10"/>
<path d="M294.689 183.768C293.91 181.388 294.23 173.11 294.485 168.437C294.534 167.554 294.925 166.725 295.574 166.126C296.223 165.527 297.081 165.204 297.965 165.226L372.752 165.881C374.013 165.893 375.219 166.402 376.106 167.297C376.993 168.194 377.491 169.403 377.491 170.664V226.786C377.491 227.416 377.367 228.039 377.125 228.621C376.884 229.203 376.529 229.731 376.083 230.175C375.637 230.62 375.107 230.972 374.523 231.211C373.941 231.45 373.316 231.572 372.687 231.569L299.807 231.299C298.751 231.256 297.753 230.806 297.021 230.044C296.29 229.281 295.882 228.264 295.883 227.208V222.927C301.066 225.344 310.865 226.087 310.865 226.087C314.352 225.992 319.863 225.57 322.884 223.837C325.651 222.25 329.145 219.972 329.618 216.521C329.801 215.187 329.448 213.834 328.636 212.759C327.824 211.684 326.62 210.974 325.287 210.784C324.485 210.624 323.656 210.683 322.884 210.952" stroke="#10173A" stroke-width="2.9484" stroke-miterlimit="10"/>
<path d="M367.678 339.291C367.643 340.292 367.306 341.259 366.71 342.065C364.999 344.169 361.614 343.754 359.313 343.106C349.638 340.354 343.829 350.837 340.174 357.899C330.943 375.749 317.097 392.333 299.821 403.311C298.7 404.039 297.557 404.724 296.4 405.393C279.517 415.134 257.641 413.321 241.312 403.209L262.191 351.922L264.258 353.574C276.867 363.526 292.388 357.942 303.134 348.122C306.116 345.405 308.748 342.325 310.967 338.956C314.665 333.27 317.832 327.133 322.891 322.511C329.895 316.111 340.145 314.859 348.998 317.567C357.85 320.276 368.479 328.982 367.678 339.291Z" fill="#F9FAFF"/>
<path d="M367.591 335.657C367.591 335.657 365.217 323.092 343.821 332.898" stroke="#10173A" stroke-width="2.9484" stroke-miterlimit="10"/>
<path d="M355.688 320.574C355.688 320.574 342.351 316.308 334.925 326.5" stroke="#10173A" stroke-width="2.9484" stroke-miterlimit="10"/>
<path d="M86.4662 392.516C90.0268 392.833 93.6115 392.774 97.1605 392.341C106.437 391.159 115.312 387.837 123.085 382.636C128.759 378.806 133.488 373.736 136.914 367.808C140.34 361.88 142.372 355.25 142.857 348.421C143.803 332.733 134.121 318.959 127.94 305.265C122.844 293.93 119.132 281.321 121.592 269.135C123.303 260.646 131.216 249.754 132.359 241.171C133.248 233.874 133.516 226.515 133.16 219.171C132.498 201.954 135.555 187.504 142.66 185.305C146.868 184.002 149.394 179.649 147.698 175.587C146.075 171.684 143.985 171.452 135.854 167.033C114.654 155.501 99.9123 176.999 91.7733 197.725C87.4562 208.711 86.5826 220.912 81.1299 231.38C73.7334 245.569 56.8147 253.948 52.4903 269.382C49.7895 279.021 52.7015 289.351 51.3911 299.274C49.2507 315.515 36.5471 328.612 36.5107 345.371C36.4525 371.571 61.7942 390.412 86.4662 392.516Z" stroke="#10173A" stroke-width="2.9484" stroke-miterlimit="10"/>
<path d="M259.461 510.138C257.634 523.14 254.911 538.056 251.911 552.988C243.408 595.306 232.59 637.88 232.59 637.88" stroke="#10173A" stroke-width="2.9484" stroke-miterlimit="10"/>
<path d="M261.885 485.581C261.921 483.994 261.943 482.538 261.885 481.155C261.237 451.307 239.776 444.172 230.545 442.462C229.167 442.192 227.774 442.015 226.373 441.93" stroke="#10173A" stroke-width="2.9484" stroke-miterlimit="10"/>
<path d="M235.794 624.972C236.982 624.245 238.342 623.847 239.735 623.821C241.128 623.794 242.503 624.14 243.718 624.821C244.933 625.502 245.944 626.496 246.647 627.699C247.351 628.901 247.72 630.27 247.718 631.663C247.718 631.765 247.718 631.888 247.718 632.034C247.602 635.629 246.655 639.148 244.951 642.316C243.247 645.484 240.833 648.214 237.897 650.292L227.778 657.492" stroke="#10173A" stroke-width="2.9484" stroke-miterlimit="10"/>
<path d="M120.842 278.756C122.255 278.181 123.696 277.671 125.152 277.198C128.217 271.534 127.744 259.137 127.453 254.63L130.517 247.721C138.977 252.919 150.173 250.968 160.562 247.35C162.021 246.841 163.44 246.223 164.806 245.501C171.402 242.473 180.648 235.309 176.498 231.611C172.348 227.913 172.64 220.793 175.297 216.425C176.105 215.085 177.539 213.768 179.031 214.183C180.036 214.459 180.684 215.398 181.259 216.265C181.987 217.349 182.715 218.39 183.443 219.453C183.698 219.81 184.113 220.181 184.506 220.021C184.673 219.912 184.802 219.755 184.877 219.57C186.158 216.934 185.918 213.156 186.137 210.266C186.391 206.822 186.588 203.357 186.69 199.899C186.748 197.992 187.141 195.946 189.187 195.276C189.6 195.118 190.044 195.054 190.485 195.092C190.925 195.13 191.352 195.268 191.732 195.495C192.111 195.723 192.435 196.034 192.676 196.404C192.917 196.775 193.071 197.196 193.125 197.635C194.614 206.002 194.833 214.545 193.773 222.977C192.769 231.807 190.956 241.177 185.292 248.297C182.066 252.404 177.742 255.513 172.822 257.266C168.06 258.918 168.213 264.662 168.213 269.7V278.065C182.853 281.035 196.605 284.617 207.977 294.809C215.497 301.684 222.573 309.029 229.161 316.801C249.902 341.138 254.387 345.703 264.375 353.573C276.984 363.524 292.512 357.941 303.25 348.12C306.228 345.402 308.854 342.323 311.069 338.954C314.767 333.269 317.934 327.132 322.986 322.509C329.997 316.11 340.247 314.858 349.099 317.566C357.952 320.274 368.595 328.981 367.751 339.289C367.715 340.29 367.38 341.256 366.79 342.063C365.079 344.167 361.694 343.752 359.393 343.104C349.711 340.352 343.909 350.835 340.247 357.897C331.023 375.748 317.169 392.331 299.894 403.31C298.773 404.038 297.637 404.722 296.472 405.392C277.173 416.53 251.3 412.555 234.702 398.367L194.662 364.376" stroke="#10173A" stroke-width="2.9484" stroke-miterlimit="10"/>
<path d="M125.152 277.2C125.152 277.2 144.277 271.288 168.213 278.088" stroke="#10173A" stroke-width="2.9484" stroke-miterlimit="10"/>
<path d="M295.883 222.927C295.883 222.927 296.028 247.679 301.932 257.208" stroke="#10173A" stroke-width="2.9484" stroke-miterlimit="10"/>
<path d="M315.284 109.635C310.741 117.388 310.952 122.892 312.132 131.825C312.229 132.585 312.11 133.358 311.786 134.054C311.464 134.75 310.951 135.34 310.307 135.757C309.664 136.175 308.915 136.401 308.148 136.411C307.381 136.421 306.627 136.214 305.973 135.814C279.765 120.73 255.238 132.662 223.949 125.273C212.461 122.572 198.141 116.988 188.321 107.997C185.063 103.158 183.324 97.4573 183.327 91.6245C183.327 67.1708 216.734 47.3401 257.925 47.3401C284.329 47.3401 307.523 55.4864 320.787 67.7605C320.787 67.7605 320.787 67.7605 320.824 67.8042C324.152 72.5887 325.968 78.2621 326.036 84.0897C326.036 92.8913 319.513 102.355 315.284 109.635Z" fill="#D7E8F0"/>
<path d="M325.92 84.1051V84.7239C325.767 93.2925 321.479 101.257 316.39 108.151C312.983 112.766 308.943 117.884 309.904 123.541C310.326 126.031 311.717 128.295 312.088 130.821C312.459 133.347 311.105 136.441 308.579 136.572C306.977 136.652 305.609 135.509 304.342 134.526C296.822 128.702 287.052 126.518 277.552 126.14C268.051 125.761 258.565 127.006 249.058 127.276C235.357 127.669 221.437 125.958 208.777 120.724C197.399 115.977 187.025 108.26 180.196 97.9881C173.491 87.8616 177.459 73.1704 184.608 64.3689C191.32 56.1134 201.032 50.8281 210.998 47.108C237.796 37.098 268.386 37.3383 294.82 48.2947C302.668 51.5124 310.239 55.7639 316.136 61.8937C321.887 67.8706 325.869 75.835 325.92 84.1051Z" stroke="#10173A" stroke-width="2.9484" stroke-miterlimit="10"/>
<path d="M215.948 93.8454C221.633 93.8454 226.242 89.2372 226.242 83.5515C226.242 77.8665 221.633 73.2576 215.948 73.2576C210.263 73.2576 205.654 77.8665 205.654 83.5515C205.654 89.2372 210.263 93.8454 215.948 93.8454Z" fill="#F9FAFF"/>
<path d="M249.232 93.8454C254.917 93.8454 259.526 89.2372 259.526 83.5515C259.526 77.8665 254.917 73.2576 249.232 73.2576C243.547 73.2576 238.938 77.8665 238.938 83.5515C238.938 89.2372 243.547 93.8454 249.232 93.8454Z" fill="#F9FAFF"/>
<path d="M283.164 93.8454C288.849 93.8454 293.458 89.2372 293.458 83.5515C293.458 77.8665 288.849 73.2576 283.164 73.2576C277.48 73.2576 272.871 77.8665 272.871 83.5515C272.871 89.2372 277.48 93.8454 283.164 93.8454Z" fill="#F9FAFF"/>
<g opacity="0.54">
<path opacity="0.54" d="M480.969 515.133L476.783 575.557C474.869 579.204 472.477 582.581 469.671 585.596C469.365 585.487 469.059 585.37 468.761 585.232C468.2 585.043 467.647 584.817 467.123 584.599C458.642 580.878 452.199 573.948 450.321 566.093C448.624 559.213 450.153 551.78 446.877 545.316C442.88 537.351 432.011 532.357 430.679 523.374C429.427 514.965 436.998 507.256 435.775 499.015C434.319 489.696 422.926 484.171 420.793 475.071C419.461 469.414 420.655 462.921 420.152 457.097C419.598 450.582 418.505 444.124 416.883 437.79C433.751 436.567 450.917 445.864 456.385 459.179C460.847 470.099 458.161 482.817 465.121 492.747C468.921 498.127 475.247 502.153 478.523 507.78C479.534 509.536 480.27 511.436 480.707 513.415C480.707 513.553 480.707 513.691 480.758 513.801C480.758 514.026 480.816 514.186 480.846 514.354C480.918 514.856 480.969 515.133 480.969 515.133Z" fill="#1FD45D"/>
<path opacity="0.54" d="M480.998 515.081C480.998 515.081 480.947 514.833 480.889 514.353C480.939 514.544 480.975 514.738 480.998 514.935C481.009 514.957 481.014 514.982 481.014 515.008C481.014 515.033 481.009 515.057 480.998 515.081Z" fill="#1FD45D"/>
</g>
<path d="M536.727 491.502C534.543 499.349 522.582 504.118 521.14 512.162C519.866 519.297 527.743 525.95 526.44 533.194C525.05 540.962 513.729 545.257 509.573 552.122C506.187 557.699 507.767 564.112 506.02 570.045C503.996 576.787 497.284 582.807 488.431 585.996C487.878 586.192 487.354 586.382 486.793 586.549C486.488 586.637 486.153 586.746 485.847 586.826C482.935 584.416 479.55 580.172 476.805 575.593L480.969 515.132C484.216 512.381 487.929 509.862 490.513 506.804C493.316 503.506 494.619 499.903 495.449 496.124H495.537V495.709C496.752 489.747 496.862 483.501 499.664 477.844C505.35 466.335 523.193 458.312 540.753 459.368C539.096 464.804 537.962 470.387 537.368 476.039C536.865 481.04 538.103 486.646 536.727 491.502Z" fill="#1FD45D"/>
<path d="M495.566 495.657V496.072H495.478L495.566 495.657Z" fill="#1FD45D"/>
<path d="M495.566 495.657L495.478 496.072C494.649 499.85 493.345 503.454 490.543 506.752C487.958 509.809 484.245 512.328 480.999 515.08C481.012 515.042 481.012 515.001 480.999 514.964C480.976 514.767 480.939 514.573 480.889 514.381C480.889 514.214 480.831 514.054 480.802 513.828C480.802 513.719 480.802 513.58 480.751 513.442C480.314 511.463 479.577 509.563 478.567 507.807C475.291 502.18 468.965 498.154 465.165 492.774C465.165 492.774 466.883 464.418 481.392 455.792C495.151 447.638 495.566 490.94 495.566 495.657Z" fill="#1FD45D"/>
<path d="M495.566 495.657V496.072H495.478L495.566 495.657Z" fill="#1FD45D"/>
<path d="M480.969 514.964V515.131C480.969 515.131 480.918 514.884 480.86 514.403C480.909 514.588 480.945 514.775 480.969 514.964Z" fill="#1FD45D"/>
<path d="M479.673 515.13C482.906 512.378 486.662 509.823 489.254 506.773C496.534 498.19 493.724 487.219 498.39 477.806C504.069 466.31 521.927 458.295 539.479 459.344C537.812 464.778 536.676 470.361 536.086 476.015C535.562 481.052 536.814 486.651 535.438 491.528C533.203 499.376 521.286 504.137 519.837 512.182C518.549 519.309 526.447 525.963 525.144 533.199C523.754 540.974 512.441 545.269 508.277 552.127C504.877 557.711 506.471 564.11 504.709 570.058C502.576 577.229 495.151 583.562 485.476 586.554C485.17 586.656 484.835 586.765 484.522 586.845C481.61 584.436 478.225 580.191 475.473 575.605" stroke="#10173A" stroke-width="2.9484" stroke-miterlimit="10"/>
<path d="M528.763 468.348C502.591 496.514 490.281 555.897 485.49 586.56C485.097 589.145 484.762 591.511 484.442 593.644" stroke="#10173A" stroke-width="2.9484" stroke-miterlimit="10"/>
<path d="M531.179 610.913L519.175 681.959C518.889 683.904 517.924 685.686 516.451 686.989C514.976 688.29 513.089 689.029 511.123 689.072H448.166C446.18 689.026 444.276 688.273 442.797 686.947C441.317 685.622 440.361 683.811 440.099 681.843L428.997 610.906L531.179 610.913Z" stroke="#10173A" stroke-width="2.9484" stroke-miterlimit="10"/>
<path d="M542.616 602.98C542.509 605.087 541.609 607.076 540.097 608.547C538.585 610.019 536.572 610.865 534.463 610.916H425.911C423.825 610.865 421.833 610.037 420.327 608.593C418.821 607.148 417.909 605.194 417.772 603.111C417.313 598.015 421.084 593.647 425.911 593.647H534.463C539.246 593.655 543.002 597.957 542.616 602.98Z" stroke="#10173A" stroke-width="2.9484" stroke-miterlimit="10"/>
<path d="M468.382 585.579C473.041 580.956 478.749 570.648 481.275 562.232C483.357 555.294 479.695 548.153 478.851 541.033C477.54 529.887 483.073 517.904 477.242 507.8C473.988 502.165 467.662 498.161 463.861 492.766C456.865 482.829 459.552 470.118 455.082 459.22C449.614 445.891 432.455 436.594 415.595 437.832C417.206 444.167 418.299 450.625 418.864 457.138C419.366 462.962 418.136 469.456 419.49 475.105C421.623 484.205 433.067 489.716 434.472 499.042C435.71 507.283 428.131 515 429.376 523.393C430.716 532.391 441.57 537.364 445.581 545.343C448.843 551.815 447.314 559.24 449.003 566.112C451.121 574.703 458.627 582.252 468.382 585.579Z" stroke="#10173A" stroke-width="2.9484" stroke-miterlimit="10"/>
<path d="M425.889 448.272C451.012 480.915 462.835 549.704 467.487 585.216C467.88 588.296 468.215 591.12 468.513 593.646" stroke="#10173A" stroke-width="2.9484" stroke-miterlimit="10"/>
<path d="M463.847 492.767C463.847 492.767 465.572 464.411 480.074 455.791C494.576 447.172 494.27 495.475 494.27 495.475" stroke="#10173A" stroke-width="2.9484" stroke-miterlimit="10"/>
<path d="M479.674 515.131C479.674 515.131 476.711 498.911 481.908 482.96" stroke="#10173A" stroke-width="2.9484" stroke-miterlimit="10"/>
</svg>
