<svg width="298" height="297" viewBox="0 0 298 297" fill="none" xmlns="http://www.w3.org/2000/svg">
<path d="M53.1313 135.863C62.9056 122.201 77.5536 116.008 77.5536 116.008C78.0318 115.809 75.9943 97.0923 75.9528 95.7647C75.335 73.8996 78.9614 51.1494 95.3973 35.3608C115.944 15.637 153.223 11.5503 176.793 28.1674C176.496 27.9476 184.548 21.6007 185.228 21.1939C189.627 18.539 194.591 16.9606 199.716 16.5874C220.339 15.1024 239.252 31.3068 246.989 50.9088C254.726 70.5108 252.95 115.174 238.756 128.055" stroke="#CCDDE2" stroke-width="1.49985" stroke-miterlimit="10"/>
<path d="M44.3193 159.563C44.8275 154.182 46.2109 148.92 48.4149 143.985C48.6249 143.516 48.8447 143.057 49.0743 142.607" stroke="#CCDDE2" stroke-width="1.49985" stroke-miterlimit="10"/>
<path d="M69.8079 216.42C67.4319 214.261 65.2311 212.063 63.2145 209.854" stroke="#CCDDE2" stroke-width="1.49985" stroke-miterlimit="10"/>
<path d="M267.8 152.207C267.818 153.692 267.8 155.206 267.729 156.724C267.307 166.112 265.296 175.815 260.271 183.721C259.356 185.18 258.336 186.57 257.218 187.879C246.526 186.468 244.931 175.563 232.567 169.397C217.755 161.993 193.502 164.645 193.502 164.645L205.451 153.623C204.812 120.43 180.443 122.468 180.443 122.468L179.205 125.5C180.145 122.754 181.097 120.193 182.059 117.817L182.112 117.692C193.398 89.6613 205.091 86.1864 214.188 82.1383C216.362 81.6221 218.587 81.3569 220.82 81.3483C244.079 81.2235 257.729 104.909 263.698 123.977C265.183 128.729 267.467 138.892 267.773 150.321C267.779 150.932 267.8 151.571 267.8 152.207Z" fill="#233380"/>
<path d="M280.868 276.614C279.062 279.1 276.083 280.454 273.012 280.454H237.729C236.373 280.474 235.028 280.209 233.78 279.678C232.533 279.146 231.41 278.36 230.485 277.369C230.359 277.242 230.242 277.107 230.134 276.965C229.029 275.595 228.337 273.938 228.141 272.189C227.963 270.582 229.157 269.154 230.773 269.219C231.385 269.242 231.968 269.487 232.414 269.908C232.859 270.328 233.137 270.896 233.196 271.506C233.196 271.634 233.223 271.758 233.241 271.883C233.372 272.608 233.69 273.286 234.165 273.849C234.584 274.345 235.111 274.739 235.705 275.002C236.299 275.265 236.946 275.39 237.595 275.367H273.164C273.8 275.378 274.432 275.251 275.015 274.994C275.598 274.738 276.118 274.358 276.541 273.882C277.017 273.331 277.342 272.665 277.483 271.951C277.625 271.237 277.578 270.498 277.348 269.807L261.462 222.569C261.332 222.207 261.179 221.853 261.002 221.512C260.069 219.542 258.591 217.881 256.743 216.726C254.894 215.571 252.753 214.97 250.574 214.996C243.885 215.076 235.394 215.094 234.595 215.094C216.796 215.028 208.697 215.028 204.242 215.147C204.548 214.052 205.1 213.042 205.858 212.195C205.858 212.195 205.875 212.177 205.875 212.168C206.962 211.01 208.449 210.31 210.033 210.211C216.633 209.67 223.167 208.684 229.514 206.962C240.714 203.926 251.397 198.72 258.819 190.348C262.431 186.295 265.162 181.535 266.838 176.371C268.138 172.27 268.957 168.032 269.279 163.742C269.394 162.388 269.465 161.024 269.493 159.65V159.587C269.493 159.273 269.511 158.949 269.511 158.634C269.551 156.677 269.462 154.719 269.243 152.774C271.183 152.789 273.04 153.558 274.423 154.919C274.544 155.238 274.634 155.57 274.69 155.908C274.744 156.227 274.771 156.551 274.77 156.876V195.293C274.774 197.917 274.256 200.515 273.247 202.937C272.238 205.36 270.758 207.557 268.893 209.403C265.804 212.462 264.925 217.104 266.389 221.188L282.178 268.168C282.655 269.577 282.785 271.081 282.557 272.551C282.329 274.021 281.749 275.415 280.868 276.614Z" fill="#1FD45D"/>
<path d="M63.2174 275.428V167.727H69.8079V275.473L63.2174 275.428Z" fill="#233380"/>
<path d="M193.505 164.63C198.225 164.128 203.684 163.534 208.926 163.653" stroke="#10173A" stroke-width="1.49985" stroke-miterlimit="10"/>
<path d="M167.797 169.387C159.44 171.496 151.308 174.54 144.37 179.601C132.727 188.084 127.405 203.908 132.163 217.617C132.163 217.635 150.874 271.609 150.874 271.609H145.95C144.889 271.609 143.838 271.818 142.858 272.226C141.878 272.634 140.989 273.232 140.241 273.985C138.777 275.44 138.056 277.867 138.056 280.094H182.377L165.534 225.001C165.114 223.643 165.02 222.205 165.258 220.803C165.497 219.402 166.062 218.077 166.908 216.934C167.755 215.792 168.858 214.865 170.129 214.229C171.4 213.592 172.803 213.263 174.224 213.269C183.82 213.539 192.733 213.908 202.439 213.486" stroke="#10173A" stroke-width="1.49985" stroke-miterlimit="10"/>
<path d="M267.868 157.172V157.113C267.438 145.53 266.855 134.101 263.686 123.968C257.717 104.9 244.067 81.2144 220.809 81.3391C218.575 81.3477 216.35 81.6129 214.177 82.1291C198.845 85.7733 188.198 101.482 182.101 117.683L182.047 117.808C181.465 119.362 180.927 120.912 180.431 122.459C180.096 123.499 179.682 124.513 179.193 125.491C177.325 129.255 174.364 132.368 170.698 134.421C167.032 136.474 162.832 137.373 158.646 137C130.491 134.44 93.3837 132.979 81.6968 152.762" stroke="#10173A" stroke-width="1.49985" stroke-miterlimit="10"/>
<path d="M221.795 135.628C217.696 140.576 213.381 145.355 208.92 149.976C199.787 159.444 191.908 169.501 177.735 170.172C166.428 170.715 155.665 166.376 144.973 163.368C133.535 160.151 127.747 157.579 117.087 154.33C114.017 153.398 110.833 152.898 107.625 152.845L96.8943 152.928" stroke="#10173A" stroke-width="1.49985" stroke-miterlimit="10"/>
<path d="M179.941 272.305C180.963 271.847 182.071 271.612 183.191 271.616H188.127C188.127 271.616 177.809 251.559 169.558 238.209" stroke="#10173A" stroke-width="1.49985" stroke-miterlimit="10"/>
<path d="M186.719 213.531L221.23 280.454H182.193H175.112" stroke="#10173A" stroke-width="1.49985" stroke-miterlimit="10"/>
<path d="M280.868 276.614C279.062 279.1 276.083 280.454 273.012 280.454H237.729C234.803 280.454 231.949 279.243 230.125 276.956C229.02 275.586 228.328 273.929 228.133 272.18C227.954 270.573 229.148 269.145 230.764 269.21C231.376 269.233 231.959 269.478 232.405 269.899C232.85 270.319 233.128 270.887 233.188 271.497C233.26 272.359 233.598 273.178 234.156 273.84C234.582 274.328 235.11 274.718 235.702 274.98C236.295 275.242 236.938 275.371 237.586 275.358H273.164C273.801 275.369 274.432 275.242 275.015 274.985C275.598 274.729 276.118 274.349 276.541 273.873C277.017 273.322 277.342 272.656 277.483 271.942C277.625 271.228 277.578 270.489 277.348 269.798L261.462 222.569C260.657 220.333 259.177 218.402 257.226 217.045C255.275 215.688 252.95 214.972 250.574 214.996C243.885 215.076 235.394 215.094 234.595 215.094C214.777 215.031 206.974 215.031 202.84 215.183C202.776 215.182 202.712 215.169 202.653 215.144C202.593 215.119 202.54 215.083 202.494 215.037C202.449 214.991 202.413 214.937 202.389 214.877C202.365 214.818 202.352 214.754 202.353 214.69C202.347 212.856 203.02 211.085 204.242 209.718C204.247 209.714 204.251 209.71 204.254 209.705C204.257 209.7 204.259 209.694 204.26 209.688C205.348 208.533 206.834 207.834 208.418 207.734C215.017 207.193 221.551 206.207 227.898 204.485C239.098 201.449 249.781 196.243 257.203 187.871C260.816 183.818 263.547 179.058 265.222 173.894C266.519 169.795 267.335 165.559 267.654 161.271C267.771 159.913 267.842 158.549 267.868 157.179V157.113C267.868 156.801 267.886 156.478 267.886 156.163C267.926 154.206 267.837 152.248 267.619 150.303C270.85 150.285 274.108 152.635 274.673 155.913C274.726 156.233 274.753 156.557 274.753 156.882V195.293C274.756 197.917 274.238 200.515 273.229 202.937C272.22 205.359 270.74 207.557 268.875 209.403C265.786 212.462 264.907 217.104 266.371 221.188L282.16 268.168C282.639 269.576 282.772 271.078 282.547 272.549C282.323 274.019 281.746 275.414 280.868 276.614Z" stroke="#10173A" stroke-width="1.49985" stroke-miterlimit="10"/>
<path d="M111.352 159.567H19.4277C17.1756 159.567 15.3499 161.393 15.3499 163.645V163.648C15.3499 165.9 17.1756 167.725 19.4277 167.725H111.352C113.604 167.725 115.43 165.9 115.43 163.648V163.645C115.43 161.393 113.604 159.567 111.352 159.567Z" stroke="#10173A" stroke-width="1.49985" stroke-miterlimit="10"/>
<path d="M85.3202 275.94H48.1506C46.8892 275.94 45.8667 276.962 45.8667 278.224C45.8667 279.485 46.8892 280.508 48.1506 280.508H85.3202C86.5815 280.508 87.6041 279.485 87.6041 278.224C87.6041 276.962 86.5815 275.94 85.3202 275.94Z" stroke="#10173A" stroke-width="1.49985" stroke-miterlimit="10"/>
<path d="M58.0763 155.905V156.315C58.1357 159.133 60.788 159.564 63.0749 159.582L107.286 159.552C109.223 159.552 110.821 158.067 110.824 156.243V156.166C110.788 154.384 109.232 152.932 107.319 152.929C107.319 152.929 82.5848 152.84 63.4283 152.783C63.0838 153.787 62.2106 154.565 61.1206 155.201C60.183 155.692 59.1346 155.935 58.0763 155.905Z" stroke="#10173A" stroke-width="1.49985" stroke-miterlimit="10"/>
<path d="M33.7639 116.195C33.7731 116.665 33.9074 117.123 34.153 117.523L54.646 151.942C54.9112 152.356 55.2593 152.711 55.668 152.984C56.077 153.257 56.5379 153.442 57.022 153.528C57.8408 153.69 58.6894 153.597 59.4544 153.264C60.7107 152.706 61.4354 151.58 61.4117 150.439C61.4072 150.296 61.3924 150.153 61.3671 150.012C61.3041 149.697 61.1874 149.396 61.0226 149.121L40.5296 114.701C39.6386 113.196 37.4586 112.605 35.7063 113.38C34.4559 113.926 33.7313 115.052 33.7639 116.195Z" stroke="#10173A" stroke-width="1.49985" stroke-miterlimit="10"/>
<path d="M89.1782 152.929C89.1782 152.929 91.6462 150.579 97.3219 146.849" stroke="#10173A" stroke-width="1.49985" stroke-miterlimit="10"/>
<path d="M109.303 114.318L100.307 124.295C99.6804 124.99 98.8108 125.418 97.8779 125.49C96.9447 125.562 96.0196 125.274 95.2934 124.684C94.8922 124.358 94.5649 123.951 94.3326 123.489C94.1004 123.028 93.9685 122.522 93.9462 122.006C93.9237 121.49 94.011 120.975 94.2022 120.495C94.3935 120.015 94.6846 119.581 95.0558 119.222L96.7012 117.63C96.7636 117.541 96.8349 117.461 96.9061 117.377L98.0941 116.068L108.311 104.966C109.551 103.603 111.113 102.573 112.853 101.969C114.594 101.365 116.458 101.207 118.275 101.509L118.427 101.535" stroke="#10173A" stroke-width="1.49985" stroke-miterlimit="10"/>
<path d="M121.973 117.018H112.974C111.95 117.018 110.968 116.611 110.244 115.887C109.52 115.163 109.113 114.181 109.113 113.157C109.113 112.133 109.52 111.151 110.244 110.427C110.968 109.703 111.95 109.296 112.974 109.296H125.745" stroke="#10173A" stroke-width="1.49985" stroke-miterlimit="10"/>
<path d="M115.074 117.018C114.949 118.595 114.346 119.762 113.458 120.582C111.171 122.661 106.977 122.432 104.061 121.004" stroke="#10173A" stroke-width="1.49985" stroke-miterlimit="10"/>
<path d="M98.109 116.062C95.5221 112.946 96.0537 108.711 98.0644 105.435C106.366 91.8798 122.19 100.229 132.594 106.071C138.787 109.565 144.707 113.522 150.304 117.909C155.258 121.77 159.843 126.391 165.795 128.714C169.359 130.107 173.568 130.439 177.114 128.833" stroke="#10173A" stroke-width="1.49985" stroke-miterlimit="10"/>
<path d="M113.458 120.559C119.736 125.192 125.73 130.198 131.409 135.548" stroke="#10173A" stroke-width="1.49985" stroke-miterlimit="10"/>
<path d="M189.84 47.6917C191.343 49.0638 193.651 49.1381 195.561 48.9539C198.002 48.7312 200.42 48.1401 202.81 47.6412L204.263 47.5669H204.284C204.562 47.5699 204.837 47.6272 205.093 47.7365C205.35 47.8455 205.582 48.0041 205.777 48.2028C205.972 48.4018 206.126 48.637 206.23 48.8954C206.334 49.1538 206.386 49.43 206.383 49.7083C206.417 52.8428 206.104 55.9714 205.451 59.0371L208.234 60.5429C208.593 59.539 208.189 58.0926 209.041 57.9827C209.588 56.964 210.402 56.3017 211.679 57.0591C214.18 58.5441 215.166 62.907 212.757 64.9058L214.301 67.7926C214.84 68.8048 215.713 69.5984 216.771 70.0383C217.829 70.4781 219.008 70.5369 220.105 70.2043L218.528 66.7175C222.228 67.3739 224.818 62.7555 223.69 59.937C222.92 58.0005 222.959 56.4948 223.987 54.6118C224.055 54.4841 223.357 54.3148 223.416 54.1841C223.452 52.803 223.069 51.324 222.404 50.6201C221.233 49.3608 218.878 49.1351 219.359 47.2224C219.573 46.3902 219.652 45.5289 219.594 44.6712C219.468 43.55 219.104 42.4686 218.526 41.5001C217.947 40.5313 217.168 39.6976 216.241 39.0549C214.292 37.7748 212.112 38.9361 210.03 38.9034C207.503 38.8767 205.691 36.7324 203.042 36.6997C201.723 36.6789 200.666 37.1927 199.537 37.8313C198.593 38.3748 197.663 38.9421 196.761 39.5568C195.858 40.1716 195.056 40.7033 193.978 40.7062C192.573 40.7241 191.216 39.8331 189.802 40.2489C189.087 40.4413 188.459 40.8708 188.02 41.4666C187.571 43.6584 188.382 46.37 189.84 47.6917Z" fill="#1FD45D"/>
<path d="M208.245 60.2171C208.427 59.4434 208.694 58.6923 209.041 57.9777C209.588 56.959 210.405 56.2967 211.679 57.0541C214.18 58.5391 215.166 62.902 212.757 64.9008L214.301 67.7876C214.839 68.7995 215.713 69.5934 216.771 70.0333C217.829 70.4731 219.008 70.5316 220.105 70.1993" stroke="#10173A" stroke-width="1.49985" stroke-linecap="round" stroke-linejoin="round"/>
<path d="M218.528 66.7124L220.099 70.2051C220.494 71.0397 221.625 73.6058 222.81 76.2728C223.654 78.1825 224.533 80.1487 225.186 81.5951" stroke="#10173A" stroke-width="1.49985" stroke-linecap="round" stroke-linejoin="round"/>
<path d="M193.078 54.1701C193.078 54.1701 197.708 53.0178 199.73 56.5283" stroke="#10173A" stroke-width="1.49985" stroke-miterlimit="10"/>
<path d="M194.441 64.6513C193.194 64.9929 191.515 65.2988 190.553 64.2117L192.65 59.7983C193.159 58.7161 193.285 57.4927 193.006 56.3294C192.549 54.3721 191.406 51.3992 192.632 48.8182" stroke="#10173A" stroke-width="1.49985" stroke-miterlimit="10"/>
<path d="M197.557 58.7362C197.908 58.1532 197.637 57.3457 196.951 56.9326C196.266 56.5194 195.425 56.6569 195.074 57.2399C194.722 57.823 194.993 58.6305 195.679 59.0436C196.365 59.4571 197.205 59.3192 197.557 58.7362Z" fill="#10173A"/>
<path d="M204.313 86.5226L203.214 74.3278" stroke="#10173A" stroke-width="1.49985" stroke-miterlimit="10"/>
<path d="M208.234 60.5369C208.234 60.43 208.234 60.3201 208.234 60.2132C208.24 60.0985 208.24 59.9836 208.234 59.8687" stroke="#10173A" stroke-width="1.49985" stroke-linecap="round" stroke-linejoin="round"/>
<path d="M208.237 60.5411L207.28 60.0273L205.451 59.0323" stroke="#10173A" stroke-width="1.49985" stroke-linecap="round" stroke-linejoin="round"/>
<path d="M200.58 64.9652C200.58 64.9652 200.488 68.054 196.957 69.3252" stroke="#10173A" stroke-width="1.49985" stroke-miterlimit="10"/>
<path d="M218.528 66.7121C222.228 67.3685 224.818 62.7501 223.69 59.9316C222.92 57.9952 222.959 56.4894 223.987 54.6064C224.055 54.4787 224.111 54.354 224.171 54.2292C224.934 52.5452 224.664 50.8761 223.464 49.4445C222.326 48.0902 220.613 47.615 221.106 45.64C221.327 44.7825 221.409 43.8951 221.349 43.0115C221.221 41.8583 220.847 40.746 220.253 39.7496C219.659 38.7531 218.858 37.8957 217.904 37.2349C215.902 35.9073 213.648 37.1101 211.492 37.0775C208.896 37.0389 207.022 34.8292 204.298 34.7965C202.935 34.7965 201.836 35.3044 200.678 35.9637C199.704 36.525 198.739 37.1161 197.818 37.7457C196.897 38.3754 196.036 38.9337 194.943 38.9337C193.494 38.9337 192.095 38.0427 190.645 38.4585C189.196 38.8743 188.335 40.0742 188.05 41.4642C187.586 43.6441 188.397 46.3676 189.855 47.7012C191.358 49.0733 193.666 49.1475 195.575 48.9634C198.017 48.7407 200.434 48.1496 202.825 47.6507L204.278 47.5764H204.298C204.577 47.5791 204.852 47.6367 205.108 47.7457C205.365 47.855 205.597 48.0133 205.792 48.2123C205.987 48.411 206.141 48.6465 206.245 48.9046C206.349 49.163 206.401 49.4392 206.398 49.7178C206.431 52.8523 206.119 55.9806 205.466 59.0466" stroke="#10173A" stroke-width="1.49985" stroke-miterlimit="10"/>
<path d="M208.795 70.0921C208.795 70.0921 203.277 77.422 198.373 75.7796C193.47 74.1372 193.22 65.0638 193.22 65.0638" stroke="#10173A" stroke-width="1.49985" stroke-linecap="round" stroke-linejoin="round"/>
<path d="M63.2174 275.428V167.727H69.8079V275.473" stroke="#10173A" stroke-width="1.49985" stroke-miterlimit="10"/>
<path d="M69.2822 105.058C75.1577 105.058 79.9207 100.295 79.9207 94.4192C79.9207 88.5436 75.1577 83.7806 69.2822 83.7806C63.4066 83.7806 58.6436 88.5436 58.6436 94.4192C58.6436 100.295 63.4066 105.058 69.2822 105.058Z" fill="#1FD45D"/>
<path d="M65.1212 97.1636C64.8099 96.9509 64.5337 96.6914 64.3015 96.3944C63.8907 95.8859 63.6807 95.2447 63.7107 94.5919C63.7407 93.9391 64.0092 93.3198 64.4648 92.8512C64.7621 92.5452 65.1262 92.3121 65.5287 92.1704C65.9311 92.0288 66.3609 91.9821 66.7844 92.0344C66.6905 91.4455 66.7909 90.8417 67.0707 90.3148C67.3502 89.7879 67.7939 89.3662 68.3341 89.1137C68.8747 88.8613 69.4826 88.7912 70.066 88.9147C70.6496 89.0383 71.1773 89.3483 71.5691 89.798C72.3977 90.7365 72.7868 92.1324 72.9323 93.362C73.0074 94.0038 73.0175 94.6519 72.962 95.2955C72.9353 95.6192 72.8194 97.4873 72.5165 97.6061C70.5147 98.3724 67.1022 98.5387 65.1212 97.1636Z" fill="#F9FAFF"/>
<path d="M144.343 102.548C147.492 102.548 150.045 99.9949 150.045 96.8455C150.045 93.6961 147.492 91.1431 144.343 91.1431C141.194 91.1431 138.641 93.6961 138.641 96.8455C138.641 99.9949 141.194 102.548 144.343 102.548Z" fill="#1FD45D"/>
<path d="M143.951 94.2028C144.124 94.098 144.314 94.0228 144.512 93.98C144.853 93.8981 145.212 93.9435 145.521 94.1074C145.831 94.2717 146.07 94.5432 146.193 94.871C146.274 95.0852 146.303 95.3154 146.28 95.5432C146.257 95.7707 146.182 95.9901 146.06 96.1838C146.36 96.2791 146.622 96.4677 146.808 96.7222C146.994 96.9768 147.095 97.2836 147.095 97.599C147.095 97.9141 146.994 98.2212 146.808 98.4757C146.622 98.73 146.36 98.9186 146.06 99.0142C145.38 99.163 144.671 99.1113 144.019 98.8657C143.691 98.7549 143.374 98.6118 143.075 98.438C142.923 98.3519 142.041 97.8707 142.056 97.6955C142.142 96.5432 142.84 94.8503 143.951 94.2028Z" fill="#F9FAFF"/>
<path d="M100.129 90.3412C100.768 90.8746 101.481 91.3118 102.246 91.6391C103.655 92.2271 105.193 92.4392 106.708 92.2545C108.224 92.0697 109.666 91.4944 110.892 90.5847C111.842 89.86 112.674 88.8592 113.657 88.1315C114.343 87.5942 115.166 87.2607 116.033 87.1692C116.321 87.1775 116.607 87.1173 116.867 86.994C117.527 86.5841 116.749 85.904 116.68 85.4229C116.589 84.6533 116.782 83.877 117.224 83.2399C118.352 81.5577 118.864 79.5369 118.671 77.5203C118.48 75.504 117.596 73.6159 116.171 72.1767C114.745 70.7374 112.866 69.8354 110.852 69.6237C108.837 69.4122 106.811 69.904 105.118 71.0154C103.446 72.1113 102.205 73.7359 100.945 75.2892C99.8345 76.6584 98.6733 78.0068 97.8595 79.572C95.9468 83.2518 97.0635 87.784 100.129 90.3412Z" fill="#1FD45D"/>
<path d="M111.471 78.2121C112.522 78.2121 113.375 77.3597 113.375 76.3083C113.375 75.2566 112.522 74.4045 111.471 74.4045C110.42 74.4045 109.567 75.2566 109.567 76.3083C109.567 77.3597 110.42 78.2121 111.471 78.2121Z" fill="#F9FAFF"/>
<path d="M107.788 82.7145C108.84 82.7145 109.692 81.8621 109.692 80.8108C109.692 79.7594 108.84 78.907 107.788 78.907C106.737 78.907 105.884 79.7594 105.884 80.8108C105.884 81.8621 106.737 82.7145 107.788 82.7145Z" fill="#F9FAFF"/>
<path d="M104.334 86.9408C105.385 86.9408 106.238 86.0885 106.238 85.0371C106.238 83.9857 105.385 83.1333 104.334 83.1333C103.283 83.1333 102.43 83.9857 102.43 85.0371C102.43 86.0885 103.283 86.9408 104.334 86.9408Z" fill="#F9FAFF"/>
<g opacity="0.46">
<path opacity="0.46" d="M159.395 67.2082C159.246 67.9539 158.933 68.6566 158.478 69.2658C158.022 69.8746 157.437 70.3742 156.764 70.7276L140.886 79.1624C140.287 79.482 139.631 79.6801 138.955 79.7457C138.28 79.8111 137.598 79.7425 136.949 79.5438C136.3 79.3451 135.697 79.0204 135.174 78.588C134.65 78.1556 134.218 77.6239 133.9 77.024L121.245 53.1957C120.604 51.9872 120.469 50.5738 120.869 49.2655C121.27 47.9575 122.173 46.8616 123.381 46.2192L139.27 37.7873C141.661 36.5162 144.961 37.4903 146.244 39.9228L158.902 63.7422C159.472 64.8028 159.646 66.0309 159.395 67.2082Z" fill="#1FD45D"/>
</g>
<path d="M154.681 65.4027L139.199 59.5013C139.002 59.4247 138.838 59.2803 138.737 59.0944C138.637 58.9082 138.605 58.6923 138.649 58.4856L142.24 41.9694C142.281 41.7936 142.374 41.6344 142.507 41.5129C142.64 41.3911 142.807 41.3127 142.986 41.2881C143.164 41.2631 143.346 41.2931 143.507 41.3739C143.668 41.4547 143.801 41.5827 143.889 41.7407L155.78 64.1523C155.864 64.3118 155.898 64.4933 155.877 64.6724C155.856 64.8515 155.78 65.0202 155.661 65.1556C155.542 65.291 155.385 65.3873 155.21 65.4315C155.035 65.4755 154.85 65.4654 154.681 65.4027Z" fill="#F9FAFF"/>
<g opacity="0.46">
<path opacity="0.46" d="M177.809 83.7894C178.134 84.0222 178.402 84.3252 178.594 84.6759C178.787 85.0264 178.898 85.4158 178.92 85.8149L179.514 95.2566C179.536 95.613 179.488 95.9703 179.373 96.3079C179.257 96.6459 179.075 96.9575 178.839 97.2251C178.603 97.4927 178.316 97.711 177.995 97.8675C177.673 98.024 177.325 98.1158 176.968 98.1375L162.799 99.0106C162.08 99.0537 161.374 98.8102 160.836 98.3335C160.297 97.8571 159.969 97.1862 159.924 96.4683L159.344 87.0208C159.319 86.3074 159.568 85.6115 160.041 85.0766C160.513 84.5417 161.173 84.2085 161.884 84.1458L176.051 83.2548C176.682 83.2195 177.305 83.4089 177.809 83.7894Z" fill="#1FD45D"/>
</g>
<path d="M175.926 85.6545L169.725 91.7935C169.646 91.868 169.543 91.9132 169.435 91.9206C169.327 91.9283 169.219 91.8981 169.131 91.8351L162.003 86.5188C161.927 86.4615 161.87 86.3822 161.84 86.2916C161.811 86.201 161.81 86.1033 161.837 86.0121C161.865 85.9209 161.919 85.8404 161.994 85.781C162.069 85.7219 162.16 85.6872 162.255 85.6812L175.584 84.8586C175.678 84.8562 175.769 84.8817 175.848 84.9322C175.927 84.9824 175.988 85.0552 176.025 85.141C176.062 85.2265 176.072 85.3213 176.054 85.4131C176.037 85.5045 175.992 85.5886 175.926 85.6545Z" fill="#F9FAFF"/>
<g opacity="0.46">
<path opacity="0.46" d="M81.5809 135.673C80.651 135.826 79.7107 135.905 78.7683 135.91C69.7455 135.91 70.0484 127.544 70.0484 127.544L77.5239 129.159C77.2415 128.467 77.1334 127.717 77.2091 126.973C77.2845 126.229 77.5417 125.516 77.9575 124.895C79.6683 122.394 83.6421 123.68 83.6421 123.68L86.1132 122.088L85.5786 125.058L88.8901 124.5L87.1883 126.469C89.4752 128.666 92.3888 135.358 85.3618 138.836C78.3347 142.314 75.3024 138.147 75.3024 138.147L78.7683 135.913L81.5809 135.673Z" fill="#1FD45D"/>
</g>
<path d="M81.4324 127.49C82.0294 127.49 82.5135 127.006 82.5135 126.409C82.5135 125.812 82.0294 125.328 81.4324 125.328C80.8355 125.328 80.3513 125.812 80.3513 126.409C80.3513 127.006 80.8355 127.49 81.4324 127.49Z" fill="#F9FAFF"/>
<path d="M100.277 280.454H223.909" stroke="#10173A" stroke-width="0.93555" stroke-miterlimit="10"/>
</svg>
